<?xml version="1.0" encoding="UTF-8"?>
<svg id="Layer_1" data-name="Layer 1" xmlns="http://www.w3.org/2000/svg" version="1.1" viewBox="0 0 160.84 95.31">
  <defs>
    <style>
      .cls-1 {
        fill: #00beff;
        stroke-width: 0px;
      }
    </style>
  </defs>
  <path class="cls-1" d="M107.67,73.48h-20.34c-1.24,0-2.33-.38-3.27-1.18-1-.85-1.66-1.92-2.01-3.19-.15-.54-.23-1.1-.22-1.65,0-1.43.45-2.72,1.37-3.83.82-1,1.87-1.66,3.12-1.99.59-.16,1.2-.21,1.81-.21h33.89c.12,0,.18-.06.19-.18v-7.54q0-.46-.46-.46h-28.44c-1.66,0-3.33,0-4.99-.03-.77,0-1.53-.02-2.28-.24-1.94-.57-3.21-1.81-3.8-3.75-.18-.59-.28-1.2-.29-1.82,0-.57-.03-1.13-.03-1.7v-18.48c0-1.39.34-2.68,1.2-3.8.84-1.08,1.92-1.79,3.25-2.09.43-.1.89-.15,1.33-.15h40.5c1.65,0,3.11.56,4.31,1.71.73.71,1.21,1.57,1.49,2.55.19.7.26,1.41.26,2.13v39.78c0,1.29-.3,2.51-.98,3.62-.67,1.09-1.64,1.8-2.85,2.19-.77.24-1.56.33-2.36.33h-20.37l-.03-.02ZM122.18,33.26c-.31-.08-27.93-.07-28.22,0v7.97c0,.29.15.44.44.44h27.6c.12,0,.18-.06.19-.18v-7.96c0-.1-.01-.19-.02-.28h0Z"/>
  <path class="cls-1" d="M55.54,66.39c0,3.97-3.28,7.24-7.37,7.1-3.63-.13-6.89-3.08-6.84-7.2.04-3.86,3.17-7.05,7.2-7,3.95.05,7.01,3.25,7.01,7.1Z"/>
  <path class="cls-1" d="M48.46,40.24c3.79-.05,7.09,3.09,7.08,7.11,0,3.88-3.12,7.14-7.2,7.1-3.9-.04-7.04-3.21-7.01-7.16.03-4.09,3.41-7.11,7.12-7.04h0Z"/>
  <path class="cls-1" d="M35.18,66.38c.07,3.86-3.16,7.2-7.25,7.12-3.78-.08-6.98-3.17-6.95-7.16.03-3.85,3.15-7.09,7.19-7.04,4.08.05,7.07,3.41,7.02,7.09h0Z"/>
  <path class="cls-1" d="M48.4,35.39c-3.87,0-7.15-3.17-7.06-7.25.08-3.81,3.12-6.97,7.12-6.95,4.09.01,7.09,3.31,7.08,7.12,0,3.95-3.18,7.1-7.14,7.09h0Z"/>
  <path class="cls-1" d="M35.18,47.34c.06,3.72-2.96,7.05-7,7.1-4.09.05-7.26-3.25-7.21-7.2.05-3.98,3.38-7.07,7.23-7,3.78.06,7.02,3.2,6.97,7.1h0Z"/>
  <path class="cls-1" d="M28.07,35.39c-3.87,0-7.03-3.11-7.09-6.99-.06-3.89,3.02-7.21,7.1-7.22,4.12,0,7.22,3.42,7.1,7.34-.12,3.68-3.15,6.89-7.11,6.87Z"/>
  <path class="cls-1" d="M68.82,40.24c3.69-.05,7.09,2.96,7.08,7.11,0,4-3.21,7.1-7.11,7.09-3.96,0-7.09-3.19-7.09-7.11s3.33-7.17,7.13-7.09h-.01Z"/>
  <path class="cls-1" d="M68.8,35.39c-3.87.03-7.11-3.11-7.12-7.08,0-3.86,3.03-7.12,7.11-7.12s7.1,3.14,7.1,7.1-3.31,7.12-7.09,7.11h0Z"/>
  <path class="cls-1" d="M61.69,66.38c0-3.91,3.16-7.16,7.23-7.09,3.84.06,6.98,3.12,6.98,7.1s-3.37,7.24-7.36,7.1c-3.73-.13-6.84-3.17-6.85-7.11Z"/>
</svg>