<svg version="1.1" id="Layer_1" xmlns="http://www.w3.org/2000/svg" xmlns:xlink="http://www.w3.org/1999/xlink" x="0px" y="0px" viewBox="0 0 115 55" style="enable-background:new 0 0 115 55;" xml:space="preserve">
 <style type="text/css">
  .st0{fill:#46BCFA;}
 </style>
 <path class="st0" d="M67.7,18.4h8.9c3,0,4.6,1.1,4.6,4.3c0,2.8-2,4.3-4.6,4.3h-8.9V18.4z M62.3,45.2h14.3c8.1,0,11.5-3.8,11.5-8.7
	c0-4.2-2.1-7.2-5.9-8v-0.1c2.8-1.2,4.5-3.5,4.5-6.6c0-5.2-3.7-7.7-9.3-7.7H62.3C62.3,14.1,62.3,45.2,62.3,45.2z M67.7,31h9.7
	c3.3,0,5.2,1.7,5.2,4.8s-1.9,4.9-5.2,4.9h-9.7V31z M34.7,34.8c0.1,7.7,5.9,11.1,13,11.1c6.2,0,12.4-2.8,12.4-9.8c0-3.2-2-6.7-6.1-8
	c-1.6-0.5-8.5-2.3-9-2.4c-2.2-0.6-3.7-1.8-3.7-4c0-3.1,3.2-4.1,5.7-4.1c3.8,0,6.5,1.5,6.7,5.5h5.5c0-6.5-5.5-10-12-10
	c-5.6,0-11.4,2.9-11.4,9.2c0,3.2,1.6,6.5,6.9,7.9c4.3,1.2,7.1,1.7,9.3,2.6c1.3,0.5,2.6,1.4,2.6,3.8s-1.8,4.7-6.6,4.7
	c-4.4,0-7.9-1.9-7.9-6.7h-5.4L34.7,34.8z M89.5,34.8c0.1,7.7,5.9,11.1,13,11.1c6.2,0,12.4-2.8,12.4-9.8c0-3.2-2-6.7-6.1-8
	c-1.6-0.5-8.5-2.3-9-2.4c-2.2-0.6-3.7-1.8-3.7-4c0-3.1,3.2-4.1,5.7-4.1c3.8,0,6.5,1.5,6.7,5.5h5.5c0-6.5-5.5-10-12-10
	c-5.6,0-11.4,2.9-11.4,9.2c0,3.2,1.6,6.5,6.9,7.9c4.3,1.2,7.1,1.7,9.3,2.6c1.3,0.5,2.6,1.4,2.6,3.8s-1.8,4.7-6.6,4.7
	c-4.4,0-7.9-1.9-7.9-6.7h-5.4V34.8z M36.2,0c0,0-8.4,7.3-15.7,22.7c4.4-11.3,4.1-19.2,4.1-19.2s-6.1,5.3-11.4,16.4
	C16.2,11.7,16,6,16,6s-4.4,3.8-8.3,11.9c2.2-5.9,2-10,2-10s-3.8,3.3-6.9,10.3c-3,7-2.9,12.1-2.9,12.1S3,27.6,5.8,22
	c-3.2,8.4-3,14.2-3,14.2s4.3-3.7,8.2-11.6C6.6,36.1,6.9,44.2,6.9,44.2s6-5.2,11.3-16.1C11.9,43.8,12.3,55,12.3,55s9.4-8.2,16.9-25.4
	C36.6,12.5,36.2,0,36.2,0z">
 </path>
</svg>