<?xml version="1.0" encoding="iso-8859-1"?>
<!-- Uploaded to: SVG Repo, www.svgrepo.com, Generator: SVG Repo Mixer Tools -->
<svg fill="#000000" height="800px" width="800px" version="1.1" id="Layer_1" xmlns="http://www.w3.org/2000/svg" xmlns:xlink="http://www.w3.org/1999/xlink" 
	 viewBox="0 0 492.308 492.308" xml:space="preserve">
<g>
	<g>
		<path d="M246.154,0C110.423,0,0,110.423,0,246.154s110.423,246.154,246.154,246.154s246.154-110.423,246.154-246.154
			S381.885,0,246.154,0z M19.692,246.154c0-56.121,20.565-107.499,54.495-147.106c6.962,8.122,13.502,16.531,19.191,25.439
			l-31.855,18.388l9.846,17.058l31.814-18.365c6.11,11.713,11.078,23.953,15.039,36.546l-35.391,9.483l5.096,19.019l35.34-9.469
			c2.825,12.796,4.499,25.879,5.071,39.161H91.837V256h36.502c-0.572,13.281-2.245,26.362-5.068,39.156l-35.343-9.473l-5.096,19.019
			l35.396,9.487c-3.96,12.596-8.929,24.838-15.04,36.552L71.37,332.375l-9.846,17.058l31.857,18.39
			c-5.689,8.909-12.229,17.317-19.192,25.438C40.258,353.654,19.692,302.276,19.692,246.154z M246.154,472.615
			c-61.643,0-117.584-24.786-158.46-64.879c8.331-9.544,16.059-19.503,22.75-30.064l32.166,18.568l9.846-17.058l-32.23-18.605
			c6.953-13.217,12.623-27.031,17.05-41.283l35.992,9.647l5.096-19.019l-36.085-9.672c3.242-14.448,5.156-29.232,5.751-44.251
			h37.431v-19.692h-37.431c-0.595-15.02-2.51-29.806-5.752-44.254l36.087-9.669l-5.096-19.019l-35.995,9.644
			c-4.427-14.249-10.097-28.063-17.05-41.278l32.232-18.606l-9.846-17.058l-32.17,18.57c-6.691-10.561-14.418-20.519-22.748-30.065
			c40.876-40.094,96.817-64.88,158.461-64.88c61.642,0,117.583,24.785,158.459,64.878c-8.331,9.547-16.059,19.506-22.751,30.068
			l-32.169-18.571l-9.846,17.058l32.232,18.607c-6.953,13.216-12.624,27.028-17.051,41.277l-35.993-9.644l-5.096,19.019
			l36.084,9.668c-3.243,14.45-5.159,29.235-5.754,44.255h-37.431V256h37.431c0.595,15.02,2.51,29.804,5.752,44.252l-36.082,9.671
			l5.096,19.019l35.989-9.646c4.427,14.251,10.099,28.065,17.052,41.281l-32.228,18.605l9.846,17.058l32.167-18.569
			c6.692,10.562,14.421,20.52,22.752,30.067C363.736,447.83,307.796,472.615,246.154,472.615z M418.117,393.263
			c-6.965-8.123-13.506-16.532-19.196-25.442l31.853-18.388l-9.846-17.058l-31.813,18.365c-6.111-11.714-11.08-23.956-15.041-36.55
			l35.398-9.488l-5.096-19.019l-35.346,9.474c-2.823-12.794-4.497-25.876-5.07-39.157h36.507v-19.692H363.96
			c0.572-13.282,2.246-26.366,5.072-39.162l35.344,9.469l5.096-19.019l-35.395-9.483c3.962-12.593,8.931-24.832,15.041-36.544
			l31.81,18.364l9.846-17.058l-31.85-18.387c5.689-8.909,12.23-17.319,19.194-25.442c33.932,39.607,54.498,90.986,54.498,147.108
			C472.615,302.277,452.049,353.656,418.117,393.263z"/>
	</g>
</g>
</svg>