<?xml version="1.0" encoding="utf-8"?>
<!-- Svg Vector Icons : http://www.onlinewebfonts.com/icon -->
<!DOCTYPE svg PUBLIC "-//W3C//DTD SVG 1.1//EN" "http://www.w3.org/Graphics/SVG/1.1/DTD/svg11.dtd">
<svg version="1.1" xmlns="http://www.w3.org/2000/svg" xmlns:xlink="http://www.w3.org/1999/xlink" x="0px" y="0px" viewBox="0 0 256 256" enable-background="new 0 0 256 256" xml:space="preserve">
<metadata> Svg Vector Icons : http://www.onlinewebfonts.com/icon </metadata>
<g><g><g><path fill="#000000" d="M163.6,10.3c-36.2,3.1-70.5,14.8-94.4,32.3C36.8,66.4,16,107.8,10.7,159.2c-1.2,11.5-0.8,34.3,0.7,42.9c2.8,15.6,6.3,24.2,12.5,30.5c7,7,19.1,11.2,37.4,13c8.9,0.9,32.1,0.3,42-1c40-5.5,73.6-20.1,96.4-41.9c25.2-24.1,42.2-64.8,45.9-109.2c0.9-11.1,0.4-33.2-1-41.1c-3.1-17.2-7.9-26.7-16.4-32.4c-10.4-7-25.9-10-49.7-9.9C171.4,10.1,164.7,10.2,163.6,10.3z M193.8,25.1c6.9,0.7,12.2,1.7,17.3,3.1c4,1.2,4.5,1.7,2.6,2.3c-2.4,0.7-19,8.7-26.6,12.8c-13.6,7.3-28.8,16.7-41,25.5l-3.1,2.2l-1.8-2.2c-2.2-2.7-4.2-3.7-6.7-3.7c-4.1,0-7,3.1-7,7.3c0,2.2,0.3,3,2.8,6.4l1,1.4l-2,1.7l-2,1.8l-2.7-2.5c-3-2.8-5.3-3.6-8.2-2.7c-5.5,1.8-6.7,8.9-2.2,13c1.8,1.7,1.7,2.1-0.5,4.2l-1.8,1.7l-2.3-2.1c-3.4-3.2-6.4-3.7-10.1-1.7c-2.7,1.4-4,6.2-2.6,9c0.3,0.6,1.5,2.1,2.6,3.2l2,2.1l-2,2l-2.1,2l-2.1-1.9c-2.4-2.2-5.1-3.1-7.4-2.4c-4.1,1.2-5.9,3.8-5.6,7.9c0.3,2.2,0.6,2.9,2.8,5.1l2.4,2.5l-1.7,2.1c-1.6,2-1.8,2.1-2.8,1.4c-2.5-1.9-4.3-2.9-5.4-3.2c-2.2-0.6-4.9,0.3-6.7,2.2c-3.3,3.5-2.8,7.6,1.4,11.2l2.5,2.2l-3.4,4.6c-15.3,20.8-30.6,47.8-40,70.8l-0.8,2.1l-0.7-1.4c-0.4-0.8-1.2-3.1-1.8-5.3c-6.4-23.5-3.8-60.9,6.4-92c6.3-19.3,15-34.9,26.6-48.3C82,45.8,118.6,29.6,161.5,25.3C170,24.4,186.4,24.3,193.8,25.1z M224.4,36.9c7.9,12.6,9.4,48.3,3.2,78.6c-7.6,37.3-24,66.7-47,84.2c-27.4,20.9-68,32.7-108.2,31.6c-15.2-0.4-25.6-2.2-32.8-5.7c-2.8-1.4-3.4-1.9-3.3-2.8c0.4-3.2,11.2-26.3,18.5-39.4c7.7-13.9,24.5-39.3,25.9-39.3c0.3,0,1.2,0.6,2.2,1.3c3.3,2.5,7.9,2.2,10.3-0.8c2.8-3.2,2.2-7.4-1.3-10.6c-2.2-2-2.2-2.5,0.2-4.8l1.2-1.2l1.5,1.6c4.7,4.9,12.7,1.7,12.7-4.9c0-2.3-0.6-3.6-2.9-6l-1.8-1.9l1.8-1.8l1.8-1.7l2.1,1.9c1.1,1,2.9,2,3.9,2.2c4.5,0.9,8.6-2.7,8.6-7.3c0-2.2-0.6-3.6-2.7-5.8l-1.5-1.6l1.8-1.8l1.8-1.7l2.3,2.1c3.7,3.4,8.1,3.4,10.9,0.1c2.5-3,2.4-6.6-0.3-10l-1.6-2l1.5-1.5c0.8-0.8,1.7-1.5,2.1-1.5s1.3,0.8,2.1,1.8c3,3.7,8.5,4.1,11.3,0.7c2.5-2.9,2.5-6.9,0-10.1l-1.5-1.9l1.3-1c6.6-5.1,20.9-14.4,32-20.8c12-6.9,39.3-20.2,41.6-20.2C222.8,34.9,223.6,35.8,224.4,36.9z"/></g></g></g>
</svg>