<?xml version="1.0" encoding="iso-8859-1"?>
<!-- Uploaded to: SVG Repo, www.svgrepo.com, Generator: SVG Repo Mixer Tools -->
<!DOCTYPE svg PUBLIC "-//W3C//DTD SVG 1.1//EN" "http://www.w3.org/Graphics/SVG/1.1/DTD/svg11.dtd">
<svg fill="#000000" height="800px" width="800px" version="1.1" id="Capa_1" xmlns="http://www.w3.org/2000/svg" xmlns:xlink="http://www.w3.org/1999/xlink" 
	 viewBox="0 0 434.979 434.979" xml:space="preserve">
<path d="M406.43,28.55C387.752,9.872,360.395,0,327.317,0C258.74,0,174.729,41.409,108.069,108.068
	C5.654,210.485-30.761,347.117,28.55,406.43c18.676,18.676,46.031,28.548,79.11,28.55c0.004,0,0.005,0,0.01,0
	c68.57,0,152.578-41.41,219.238-108.07C429.325,224.493,465.741,87.861,406.43,28.55z M42.952,392.531
	c-0.084-0.083-0.175-0.16-0.259-0.243c-0.015-0.015-0.028-0.031-0.043-0.046c-11.927-12.018-7.169-44.407,12.431-84.564
	c22.416-45.925,60.796-97.253,108.07-144.526C250.426,75.875,332.301,36.124,371.44,36.124c9.469,0,16.479,2.208,20.839,6.56
	c0.003,0.003,0.006,0.005,0.009,0.008c11.982,11.984,7.234,44.403-12.389,84.608c-22.416,45.926-60.797,97.253-108.071,144.527
	c-87.279,87.28-169.153,127.029-208.288,127.026C54.244,398.853,47.325,396.722,42.952,392.531z M122.211,122.211
	C185.258,59.165,263.85,20,327.317,20c4.708,0,9.252,0.246,13.647,0.696c-53.443,14.506-126.1,62.457-191.956,128.313
	c-48.799,48.799-88.539,102.033-111.9,149.896c-7.542,15.452-13.045,29.755-16.511,42.717
	C14.077,280.355,52.43,191.993,122.211,122.211z M312.766,312.767c-63.05,63.051-141.642,102.216-205.104,102.213
	c-4.708,0-9.253-0.246-13.648-0.697c53.442-14.505,126.099-62.456,191.956-128.313c48.799-48.8,88.54-102.034,111.901-149.897
	c7.543-15.453,13.046-29.758,16.512-42.72C420.904,154.619,382.55,242.983,312.766,312.767z"/>
</svg>