<?xml version="1.0" encoding="utf-8"?>
<!-- Generator: Adobe Illustrator 25.0.0, SVG Export Plug-In . SVG Version: 6.00 Build 0)  -->
<svg version="1.1" id="Layer_1" xmlns="http://www.w3.org/2000/svg" xmlns:xlink="http://www.w3.org/1999/xlink" x="0px" y="0px"
	 viewBox="0 0 328.9 254" style="enable-background:new 0 0 328.9 254;" xml:space="preserve">
<style type="text/css">
	.st0{fill-rule:evenodd;clip-rule:evenodd;}
	.st1{fill-rule:evenodd;clip-rule:evenodd;fill:#D6C278;}
	.st2{fill-rule:evenodd;clip-rule:evenodd;fill:#0085CC;}
	.st3{fill-rule:evenodd;clip-rule:evenodd;fill:#E20613;}
	.st4{fill-rule:evenodd;clip-rule:evenodd;fill:#F9B21E;}
	.st5{fill-rule:evenodd;clip-rule:evenodd;fill:#009540;}
	.st6{fill-rule:evenodd;clip-rule:evenodd;fill:#1D1D1B;}
</style>
<path class="st0" d="M89.2,158.2c-0.6,0.9-1.7,1.4-2.6,1.9c-1.1,0.5-2.1,1-3,1.8v-8.4h2.5c1.4,0,2.9,0.4,3.4,1.8
	C89.8,156.3,89.8,157.4,89.2,158.2 M89.4,151.8c-1.2-0.6-2.6-0.7-3.9-0.7H81v16.7h2.6c0-0.9-0.1-1.9,0.3-2.8
	c0.7-1.4,2.2-2.1,3.5-2.7c1.4-0.7,3-1.4,4-2.7c0.8-1.2,1.1-2.8,0.8-4.2C91.9,153.8,90.8,152.5,89.4,151.8 M108.4,161.6
	c-1.5-1.5-3.9-2.1-6-1.8v-2.7c0-0.5,0-1,0.1-1.5c0.2-0.9,1-1.7,1.9-2c1-0.3,2.1-0.2,2.9,0.4c0.8,0.6,1.2,1.6,1.2,2.6
	c0,0.8,0,1.6,0,2.4v2.8C108.5,161.7,108.5,161.6,108.4,161.6 M108.4,151.6c-2.2-1.3-5.5-0.9-7.2,1.1c-0.8,0.9-1.3,2.2-1.4,3.4
	c0,0.3,0,11.7,0,11.7h2.6v-5.5c1.5-0.2,3.2,0,4.5,0.9c1.1,0.8,1.6,2.1,1.6,3.5v1.2h2.6v-11.2C111.1,154.6,110.3,152.7,108.4,151.6
	 M124.8,153.6c1.7,0,3.3,0.8,3.5,2.6c0.1,0.9-0.1,1.7-0.7,2.4c-0.6,0.7-1.6,1.2-2.4,1.6c-1,0.5-2.1,1-2.9,1.8v-8.4L124.8,153.6
	L124.8,153.6z M128.8,161.6c-0.3-0.2-0.6-0.3-0.9-0.4c0.8-0.5,1.6-1,2.2-1.8c0.5-0.7,0.8-1.5,0.9-2.4c0.2-1.8-0.4-3.6-1.9-4.7
	c-2-1.5-4.5-1.3-6.9-1.3h-2.5v16.7h2.6c0-0.5,0-1,0-1.5c0-1.1,0.5-2.2,1.5-2.8s2.2-0.6,3.2-0.2c1,0.5,1.7,1.4,1.8,2.5
	c0.1,0.6,0,1.3,0,1.9h2.6c0-0.9,0-1.9-0.2-2.8C131.1,163.6,130.1,162.4,128.8,161.6z M139.6,153.5c0.8-0.2,1.7-0.3,2.6-0.4v-2h-2.6
	V153.5z M139.6,155v12.9h2.6v-13.3C141.3,154.6,140.5,154.7,139.6,155 M159.5,159.8c-0.9-0.7-2-1.1-3.1-1.6c-1-0.4-2.2-0.8-2.9-1.6
	s-0.5-2,0.2-2.7s1.9-0.9,2.8-0.6c1.1,0.3,1.7,1.3,1.7,2.4h2.6c0-1.2-0.4-2.4-1.2-3.3c-0.8-0.9-1.9-1.4-3.1-1.5
	c-1.2-0.2-2.5,0-3.6,0.6c-1,0.6-1.9,1.5-2.2,2.6s-0.3,2.4,0.3,3.4c0.6,1.1,1.7,1.8,2.9,2.3s2.7,0.8,3.8,1.6c0.4,0.3,0.8,0.7,0.9,1.3
	c0.1,0.5,0.1,1.1-0.2,1.6c-0.6,1.2-2.1,1.6-3.3,1.3c-1.4-0.2-2.4-1.4-2.4-2.8h-2.5c0,1.4,0.4,2.6,1.4,3.6s2.3,1.5,3.6,1.6
	c1.4,0.1,2.9-0.2,4-1s1.8-1.9,1.9-3.2C161.2,162.3,160.7,160.8,159.5,159.8 M183.7,160.2c0.6-0.7,1.1-1.5,1.5-2.3s0.5-1.7,0.4-2.6
	c-0.2-1.7-1.4-3.1-2.9-3.8c-1.6-0.7-3.5-0.7-5.1,0.1s-2.7,2.3-2.8,4.1s0.7,3.4,2.2,4.5l1.5-1.9c-0.5-0.5-0.9-1.1-1.1-1.8
	c-0.1-0.7,0-1.4,0.4-2c0.8-1.1,2.5-1.5,3.8-0.8c0.6,0.3,1.1,0.9,1.4,1.5c0.2,0.7,0.1,1.5-0.2,2.1c-0.3,0.7-0.8,1.2-1.2,1.8l-5.2,6.5
	l-1.9,2.3h11.7v-2.4h-6.7L183.7,160.2L183.7,160.2z M207.5,161.9c-1,2.4-3.4,3.9-6,3.7c-2.5-0.1-4.7-1.9-5.4-4.3
	c-0.7-2.5,0.1-5.2,2.2-6.8c2.1-1.6,4.9-1.6,7.1-0.2C207.7,156,208.6,159.2,207.5,161.9 M208.1,153.4c-2.6-2.5-6.6-3.2-9.9-1.7
	c-3.3,1.6-5.3,5-5,8.7c0.3,3.6,3,6.6,6.4,7.5c3.5,0.9,7.3-0.4,9.4-3.4s2-7.2-0.2-10.1C208.6,154,208.4,153.7,208.1,153.4
	 M227.1,160.2c0.6-0.7,1.1-1.5,1.5-2.3s0.5-1.7,0.4-2.6c-0.2-1.7-1.4-3.1-2.9-3.8c-1.6-0.7-3.5-0.7-5.1,0.1s-2.7,2.3-2.8,4.1
	s0.7,3.4,2.2,4.5l1.5-1.9c-0.5-0.5-0.9-1.1-1.1-1.8c-0.1-0.7,0-1.4,0.4-2c0.8-1.1,2.5-1.5,3.8-0.8c0.6,0.3,1.1,0.9,1.4,1.5
	c0.2,0.7,0.1,1.5-0.2,2.1c-0.3,0.7-0.8,1.2-1.2,1.8l-5.2,6.5l-1.9,2.3h11.7v-2.4h-6.7L227.1,160.2L227.1,160.2z M245.4,155.6v5.7
	c-1.2-0.9-2.8-1.1-4.1-1.9c-1.1-0.7-1.5-1.8-1.5-3.1c0-1.2,0-5.1,0-5.1h-2.6v5.2c0,1.8,0.4,3.5,1.9,4.7c0.9,0.7,2,1.1,3,1.5
	c1,0.3,2,0.8,2.6,1.6c0.5,0.6,0.6,1.4,0.6,2.2v1.6h2.5v-12.2C247.9,155.6,245.4,155.6,245.4,155.6z"/>
<path class="st1" d="M170.3,122.6c-1.4-0.5-3.8-0.6-5.9,1.1c-2-1.7-4.4-1.6-5.9-1.1c-1.2,0.4-2.1,0.7-3.9,0.7
	c2.6,5.4,9.1,7.7,14.5,5.1c2.2-1.1,4-2.9,5.1-5.1C172.5,123.3,171.5,123,170.3,122.6"/>
<path class="st1" d="M164.4,31C134.9,31,111,54.9,111,84.4c0,25.3,17.6,46.5,41.2,52c-18.8-10-26.4-33-17.4-52.3
	c1.5,7.8,6.6,14.5,13.8,17.9c-9.6-22.6-2.5-49.2,17.5-63.9c-3.9,13.4,2.1,25.7,15,35c14.8,10.6,15.4,32.3,2.4,44
	c5.3-1.2,10.1-4.2,13.6-8.4c-2.2,11.5-9.4,21.8-20.4,27.7c23.6-5.5,41.2-26.7,41.2-52C217.8,54.9,193.9,31,164.4,31 M210.4,132.4
	c-0.8,0-1.4,0.3-1.6,0.9c-0.3-0.5-0.9-0.9-1.6-0.9h-0.3v3.9h0.5v-3.5l0,0c0.7,0,1.2,0.5,1.2,1.3v1h0.5v-1c0-0.8,0.5-1.3,1.2-1.3l0,0
	v3.5h0.5v-3.9C210.6,132.4,210.4,132.4,210.4,132.4z M203.4,132.9h1v3.5h0.5v-3.5h1v-0.5h-2.5V132.9z"/>
<g>
	<path class="st2" d="M120.6,196.7c0-7.6,6.1-13.6,13.7-13.6c7.6,0,13.7,6.1,13.7,13.6c0,5.9-3.7,10.9-8.9,12.9c0-0.2,0-0.3,0-0.5
		c0-0.9,0.2-1.9,0.3-2.7c3.5-1.9,5.9-5.5,5.9-9.7c0-6-4.9-11-11-11c-6.1,0-11,4.9-11,11c0,6.1,4.9,11,11,11c0.2,0,0.5,0,0.8-0.1
		c-0.1,0.5-0.1,1-0.1,1.5c0,0.5,0,0.8,0,1.3c-0.2,0-0.5,0-0.7,0C126.7,210.4,120.6,204.3,120.6,196.7L120.6,196.7z"/>
	<path class="st3" d="M194.7,210.4c-6.9,0-12.5-4.9-13.6-11.5h0.2c0.9,0.2,1.9,0.5,2.7,0.8l0.2,0.2c1.4,4.5,5.6,7.8,10.6,7.8
		c6,0,10.9-4.9,10.9-11c0-6-4.9-11-10.9-11c-5.6,0-10.3,4.2-10.9,9.6c-0.4-0.1-0.9-0.2-1.3-0.3c-0.4-0.1-0.9-0.2-1.3-0.2
		c0.9-6.6,6.6-11.7,13.6-11.7c7.6,0,13.6,6.1,13.6,13.6C208.3,204.3,202.2,210.4,194.7,210.4L194.7,210.4z"/>
	<path class="st4" d="M163,206.8c-1-0.2-1.9-0.5-2.9-0.9l-0.2-0.1c-1.3-4.5-5.6-7.8-10.5-7.8c-0.2,0-0.5,0-0.7,0c0-0.5,0-0.9,0-1.4
		c0-0.5,0-0.9,0-1.4c0.2,0,0.5,0,0.7,0C156.3,195.3,161.9,200.3,163,206.8L163,206.8z"/>
	<path class="st4" d="M135.7,209c0-5.9,3.7-10.9,8.9-12.9c0,0.2,0,0.4,0,0.5c0,0.9-0.2,1.8-0.4,2.6c-3.5,1.9-5.8,5.6-5.8,9.7
		c0,6.1,4.9,11,10.9,11c5.6,0,10.2-4.2,10.9-9.5c0.9,0.2,1.8,0.5,2.7,0.5c-0.9,6.6-6.6,11.7-13.6,11.7
		C141.9,222.7,135.7,216.6,135.7,209L135.7,209z"/>
	<path class="st5" d="M193.1,206.8c-1-0.2-1.9-0.5-2.8-0.9l-0.2-0.1c-1.4-4.5-5.6-7.8-10.5-7.8c-0.3,0-0.5,0-0.8,0
		c0.1-0.5,0.1-0.9,0.1-1.4c0-0.5,0-0.9-0.1-1.4c0.2,0,0.5,0,0.8,0C186.4,195.3,192.1,200.3,193.1,206.8L193.1,206.8z"/>
	<path class="st5" d="M165.9,209c0-5.9,3.7-10.9,8.9-12.9c0,0.2,0,0.4,0,0.5c0,0.9-0.1,1.8-0.3,2.6c-3.5,1.9-5.9,5.6-5.9,9.7
		c0,6.1,4.9,11,11,11c5.6,0,10.2-4.2,10.9-9.5c0.8,0.2,1.8,0.5,2.7,0.5c-1,6.6-6.7,11.7-13.6,11.7C172,222.7,165.9,216.6,165.9,209
		L165.9,209z"/>
	<path class="st6" d="M151,194.7c0.9-6.7,6.6-11.8,13.6-11.8c7.6,0,13.7,6.2,13.7,13.7c0,5.9-3.7,10.9-8.9,12.9v-0.2
		c0-0.2,0-0.2,0-0.4c0-0.8,0.2-1.7,0.3-2.5l0.1-0.1c3.5-1.9,5.8-5.6,5.8-9.7c0-6.1-4.9-11-11-11c-5.6,0-10.2,4.2-10.9,9.6
		c-0.5-0.2-0.9-0.3-1.4-0.4C151.9,194.8,151.3,194.7,151,194.7L151,194.7z"/>
	<path class="st6" d="M151,198.8c1,0.2,2,0.5,2.9,0.9l0.2,0.1c1.4,4.5,5.6,7.8,10.5,7.8c0.2,0,0.5,0,0.8,0c-0.1,0.5-0.1,0.9-0.1,1.4
		c0,0.5,0,0.8,0.1,1.3c-0.2,0-0.5,0.1-0.8,0.1C157.7,210.4,152,205.4,151,198.8L151,198.8z"/>
</g>
</svg>
