<?xml version="1.0" encoding="UTF-8"?>
<svg width="800.5" height="534.32" version="1.1" viewBox="0 0 800.5 534.32" xmlns="http://www.w3.org/2000/svg">
 <rect x=".26001" y=".24999" width="800" height="533.81" fill="#951a42" stroke="#ccc" stroke-dasharray="1.00719438, 2.01438875" stroke-linecap="round" stroke-linejoin="round" stroke-width=".5036" style="paint-order:stroke fill markers"/>
 <g fill-rule="evenodd">
  <path d="m386.89 464.77c-1.0285-1.4492-2.0066-2.9232-2.9603-4.3972-2.5888-3.9636-5.0165-8.0387-7.308-12.188-2.2295-4.0256-4.3104-8.1255-6.2798-12.275-0.59452-1.2635-1.1767-2.5392-1.7464-3.815-3.6416-8.1007-6.7753-16.461-9.4509-24.971-2.7869-8.8686-5.0784-17.898-6.9362-26.965-0.49563-2.4153-0.95401-4.8182-1.3873-7.2336-3.0595-16.945-4.7069-34.149-5.1899-51.354-0.14892-5.5739-0.18616-11.148-0.1047-16.722 0.16053-10.021 0.71899-20.041 1.6722-30.024 1.3873-14.641 3.6044-29.207 6.7877-43.563 2.8489-12.832 6.4656-25.516 11.197-37.791 1.1018-2.8364 2.2914-5.6606 3.5176-8.4474 1.4493 2.8241 2.9603 6.0569 4.4838 9.6241l5.5863-6.4284s-2.3906 5.9826-3.654 9.9709c-0.0698 0.22337-0.19777 0.64453 0.0466 1.251 1.9322 4.8678 3.8273 10.157 5.549 15.656l4.744-3.7654c-2.564 3.0224-3.5549 7.6796-2.7621 10.528 4.2733 15.495 6.7258 31.746 4.4095 43.761 15.966-22.196 18.022-64.384 0.093-88.785 1.2882 0.4584 2.6506 0.99124 4.0504 1.5731l0.84232-5.066s0.63174 3.0842 1.1274 5.289c0.14892 0.69341 0.55729 0.89235 0.75507 0.97844 3.8521 1.7589 7.6176 3.8274 11.978 6.6391l1.6474-7.0726s0.44594 4.0875 0.99089 7.8281c0.12379 0.89119 0.60696 1.412 0.84232 1.5731 5.2518 3.6788 10.603 8.1255 15.718 13.377l3.3195-6.8374c-1.7341 3.8646 0.19825 10.479 3.3319 14.331 7.0602 8.5961 9.9215 8.7819 14.987 20.239 2.1676-19.162 4.4714-53.806-44.442-68.608 0 0 3.3815-1.3625 8.5466-3.047l-3.9513-4.3352s3.3815 1.8208 6.1312 3.1337c0.52017 0.2478 1.1024 0.16055 1.3378 0.0815 4.4714-1.35 9.7852-2.7621 15.248-3.7654l-3.3567-3.8026c2.7126 2.1303 7.085 3.1585 9.5127 2.8736 7.4566-0.85513 14.703-0.63175 19.917 1.8703-8.175-11.433-30.953-22.419-69.091-12.3 0.96565-3.8522 2.1677-6.8868 3.877-9.488l-2.948-1.9694s1.6474 0.11635 3.5425 0.19778c0.69341 0.0232 0.94121-0.28505 1.0657-0.43396 2.6631-3.0718 6.3542-5.5491 11.717-8.2121l-1.7589-1.8951s3.5054 1.1146 5.0412 0.29784c2.8241-1.4864 5.5739-2.8737 10.132-3.9265-16.053-8.2122-34.521-5.6978-49.905 15.644-0.093 0.12333-0.23501 0.34671-0.43396 0.64455-12.151-24.414-40.379-26.42-57.212-25.665 8.7571 2.9108 17.155 7.1717 24.215 12.869 0.48281 0.39672 0.96565 0.80509 1.4615 1.1767 2.948 2.2296 7.3452 2.9603 7.3452 2.9603l-3.2453 1.0157c2.1305 2.2172 4.0999 4.5706 5.8092 7.1346 0.0466 0.0815 0.14893 0.24781 0.4712 0.33391 0.30947 0.0698 5.7224 1.5358 5.7224 1.5358l-4.5086 0.78066c1.4368 2.6508 3.0966 6.2923 4.0875 9.3889-21.949-21.49-56.89-31.783-98.038 4.2114 11.495-2.5764 24.785-3.6664 36.701-3.0099 2.465 0.16054 7.8654-1.0401 11.668-4.2981l-3.6663 5.0413c6.0197 0.80509 11.408 2.1305 15.669 4.0256 0.11635 0.0466 0.3595 0.12332 0.69341-0.0466 1.8456-0.99125 4.4343-2.5021 4.4343-2.5021l-2.5763 3.8398c1.6721 0.95401 3.1214 2.0189 4.2485 3.208-23.608-0.42116-54.872 14.777-61.783 40.937 9.2526-6.1437 16.548-10.157 22.828-12.832 2.1677-1.0657 4.8927-4.6201 5.7101-8.1997l1.3129 5.611c5.2395-1.6103 9.9463-2.3411 14.864-2.8118 0.14892-0.0117 0.42117 0 0.81789-0.64453 1.4492-2.341 3.6415-6.2674 3.6415-6.2674l-0.39672 6.5771c1.0657-0.0698 2.1429-0.14892 3.2576-0.22338-23.138 18.852-27.894 41.098-27.337 69.673 4.3228-12.287 12.944-24.104 23.101-34.434 3.4062-3.3567 5.8339-8.6704 5.1898-14.058l2.7746 6.5028c6.0942-5.4004 12.436-10.219 18.555-14.306 0.18616-0.12332 0.54448-0.27223 0.76787-1.2881 0.76787-3.6169 1.5607-7.0726 1.5607-7.0726l1.3377 5.995c5.4376-3.4186 10.578-6.1808 15.087-8.1751-18.58 37.023-29.467 81.539-32.675 126.12-1.7961 25.132-1.1644 50.276 1.9199 74.12 1.9074 14.715 4.744 28.934 8.5094 42.336 1.2882 4.5581 2.6754 9.0419 4.1865 13.402l1.5608 4.5086z" fill="#951a42"/>
  <path d="m462.68 447.62c17.254-7.7044 35.09-15.656 50.004-24.129 76.486-43.464 70.131-81.564 56.197-165.06-2.5268-15.198-5.4004-32.427-7.8777-50.821-4.843-35.97 3.7654-55.057 17.093-77.055l-60.037-57.039h-0.0128c-11.098 4.6944-29.455 11.123-46.919 11.123-3.7035 0-7.2708-0.28503-10.628-0.85511-20.512-3.4186-46.424-19.508-60.247-28.934h-0.0117c-13.823 9.426-39.748 25.516-60.235 28.934-3.3567 0.57008-6.924 0.85511-10.627 0.85511-17.465 0-35.821-6.4285-46.919-11.123h-0.0117l-60.037 57.039c13.34 21.998 21.936 41.085 17.093 77.055-2.4772 18.394-5.3508 35.623-7.8777 50.821-13.935 83.496-20.289 121.6 56.197 165.06 14.926 8.4722 32.749 16.424 50.004 24.129 23.212 10.355 45.371 20.239 62.44 31.845 0-0.0117-0.0117-0.0117 0-0.0232v0.0117c17.056-11.606 39.215-21.478 62.415-31.833m-127.64-7.5069c-15.495-6.924-31.164-14.083-44.393-21.589-10.516-5.9702-19.335-11.804-26.804-17.65-31.92-25.02-37.84-50.45-34.199-89.293 1.4245-15.124 4.2609-32.266 7.5929-52.233 2.5392-15.223 5.4252-32.477 7.9148-50.995 4.905-36.403-3.7902-56.903-15.52-76.832l54.066-51.354c12.312 4.9174 29.244 10.144 45.693 10.144 4.0131 0 7.9025-0.30949 11.569-0.92843 20.053-3.3443 44.616-17.935 59.293-27.683 14.665 9.748 39.228 24.327 59.306 27.683 3.654 0.61894 7.5557 0.92843 11.569 0.92843 16.449 0 33.381-5.2271 45.681-10.144l54.066 51.354c-11.717 19.93-20.413 40.429-15.508 76.832 2.4896 18.518 5.3633 35.772 7.9149 50.995 3.3196 19.967 6.1684 37.109 7.5928 52.233 2.6011 27.857 0.30959 48.815-12.968 67.667-9.5622 13.575-24.797 26.073-48.034 39.277-14.69 8.3484-32.39 16.238-49.533 23.893-22.147 9.8843-43.129 19.248-60.074 30.198-4.0875-2.5888-8.6581-5.2642-13.39-7.8529z" fill="#fced00"/>
  <path d="m456.05 304.87c-4.3724-0.12332-8.7448-0.24781-13.142-0.34671 4.3972 0.10472 8.7695 0.22339 13.142 0.34671" fill="#951a42"/>
  <path d="m504.36 176.64c17.7 0 32.043-14.343 32.043-32.043s-14.343-32.044-32.043-32.044-32.043 14.343-32.043 32.044c0 17.7 14.343 32.043 32.043 32.043" fill="#fced00"/>
 </g>
 <g fill="#72bf44" fill-rule="evenodd">
  <path d="m487.14 369.42-14.975 67.704c-3.9388 1.7836-7.8901 3.5425-11.817 5.289-9.6861 4.3353-19.137 8.5714-28.154 12.882l45.978-85.874v-3.3938c-4.3476-0.33507-8.7324-0.60731-13.142-0.81788v4.2114l-64.743 103.2c16.944-10.95 37.927-20.326 60.061-30.198 17.155-7.6548 34.855-15.557 49.533-23.906 23.249-13.191 38.484-25.689 48.047-39.265-21.986-5.8464-45.78-10.12-70.788-12.51z"/>
  <path d="m456.05 364.79c-4.3476-0.13612-8.7448-0.18614-13.142-0.21058v4.8431s-0.0128 0-0.0128 0.0117l-74.306 62.662c0.57008 1.2758 1.1644 2.5516 1.7589 3.815 1.957 4.1494 4.0504 8.2493 6.2675 12.275l79.434-78.765z"/>
  <path d="m433.94 364.63c-29.096 0.37115-57.151 3.3072-83.125 8.2989 0.43397 2.4153 0.90399 4.8182 1.3873 7.2212 1.8703 9.0792 4.1618 18.109 6.9487 26.977l74.789-37.704z"/>
  <path d="m263.86 400.89c7.4565 5.8464 16.288 11.668 26.804 17.638 13.216 7.5186 28.885 14.678 44.38 21.602-7.2707-3.2576-14.579-6.5524-21.651-9.9215l15.916-8.0016c-3.7654-13.402-6.6019-27.609-8.5094-42.336-20.685 5.6605-39.971 12.77-56.94 21.02"/>
 </g>
 <g fill="#0072bc" fill-rule="evenodd">
  <path d="m478.17 305.62c-4.3104-0.17334-8.7943-0.35949-13.142-0.50725v60.086c4.4095 0.22338 8.7943 0.49562 13.142 0.82953z"/>
  <path d="m456.05 304.87c-4.3724-0.12332-8.7448-0.24781-13.142-0.34671v60.061c4.3972 0.0232 8.7943 0.0698 13.142 0.21058z"/>
  <path d="m487.13 305.97v60.767c25.02 2.3906 48.815 6.6639 70.788 12.51 13.278-18.84 15.582-39.81 12.968-67.667-26.94-2.4525-55.008-4.3352-83.756-5.611"/>
 </g>
 <g fill="#00c0f3" fill-rule="evenodd">
  <path d="m504.36 112.55c17.7 0 32.043 14.343 32.043 32.044 0 17.7-14.343 32.043-32.043 32.043s-32.043-14.343-32.043-32.043 14.343-32.044 32.043-32.044m-70.416 191.83 0.0128-59.987c0-0.7062 0.56973-1.2758 1.2634-1.2758h2.019v-2.0189c0-0.69342 0.56973-1.2758 1.2758-1.2758h44.046c0.70597 0 1.2758 0.58172 1.2758 1.2758v2.0189h2.019c0.69364 0 1.2634 0.57009 1.2634 1.2758l0.0128 61.585c28.749 1.2758 56.816 3.1586 83.756 5.6111-1.4244-15.124-4.2733-32.254-7.5928-52.233-2.5392-15.223-5.4252-32.477-7.9149-50.995-4.905-36.403 3.7902-56.903 15.508-76.832l-54.054-51.354c-12.312 4.9174-29.244 10.144-45.693 10.144-4.0132 0-7.9025-0.30946-11.569-0.92958-20.078-3.3566-44.64-17.935-59.306-27.683-14.665 9.748-39.24 24.339-59.293 27.683-3.654 0.61895-7.5556 0.92958-11.569 0.92958-16.437 0-33.381-5.227-45.681-10.144l-54.066 51.354c11.717 19.93 20.413 40.429 15.508 76.832-2.4896 18.518-5.3633 35.772-7.9148 50.995-3.3196 19.979-6.1685 37.109-7.5929 52.233 28.687-2.6135 58.525-4.5582 89.231-5.834 3.1957-44.578 14.083-89.095 32.675-126.12-4.5211 1.9942-9.6614 4.7564-15.099 8.1751l-1.3377-5.995s-0.7923 3.4557-1.5608 7.0726c-0.22337 1.0157-0.57008 1.1644-0.75506 1.2882-6.1312 4.0875-12.473 8.9181-18.567 14.306l-2.7746-6.4904c0.64455 5.3756-1.7836 10.689-5.1899 14.046-10.144 10.33-18.778 22.147-23.1 34.434-0.55727-28.575 4.1989-50.821 27.337-69.673-1.1018 0.0698-2.1924 0.14892-3.2576 0.22338l0.39672-6.5771s-2.1924 3.9388-3.6292 6.2674c-0.40836 0.64454-0.6806 0.63175-0.82951 0.64454-4.9174 0.4712-9.6118 1.2015-14.851 2.8118l-1.3254-5.611c-0.8179 3.5796-3.5425 7.1468-5.7101 8.2121-6.2798 2.6754-13.563 6.6762-22.828 12.82 6.9239-26.16 38.175-41.345 61.796-40.937-1.139-1.1891-2.5888-2.2544-4.2611-3.208l2.5888-3.8398s-2.6011 1.5235-4.4466 2.5021c-0.33507 0.18614-0.58172 0.093-0.69341 0.0466-4.2609-1.8951-9.649-3.2205-15.656-4.0256l3.654-5.0413c-3.8026 3.2576-9.2031 4.4591-11.668 4.2981-11.903-0.65616-25.194 0.43397-36.688 3.0099 41.147-35.995 76.077-25.702 98.026-4.2114-0.99123-3.0966-2.6506-6.7382-4.0875-9.3889l4.5086-0.78066s-5.4004-1.4492-5.7224-1.5358c-0.30949-0.0815-0.40838-0.24782-0.4712-0.33507-1.7093-2.564-3.6788-4.9175-5.8092-7.1346l3.2576-1.0157s-4.4095-0.73063-7.3574-2.9603c-0.49563-0.37115-0.96565-0.78067-1.4616-1.1767-7.0602-5.6853-15.458-9.9586-24.215-12.869 16.846-0.75507 45.062 1.251 57.213 25.665 0.19778-0.28503 0.3467-0.52004 0.43396-0.64454 15.384-21.342 33.852-23.856 49.905-15.644-4.5582 1.0529-7.3079 2.4401-10.12 3.9265-1.5483 0.81788-5.0412-0.29784-5.0412-0.29784l1.7465 1.8951c-5.3633 2.663-9.0544 5.1527-11.717 8.2121-0.12333 0.16056-0.37113 0.4584-1.0657 0.43397-1.8951-0.0698-3.5301-0.19778-3.5301-0.19778l2.9356 1.9694c-1.7093 2.6012-2.9108 5.6358-3.8769 9.5003 38.137-10.132 60.916 0.85513 69.091 12.287-5.2146-2.502-12.448-2.725-19.917-1.8703-2.4277 0.28505-6.8001-0.74344-9.5003-2.8736l3.3443 3.8026c-5.4624 1.0029-10.776 2.4154-15.248 3.7779-0.23513 0.0581-0.81754 0.16055-1.3377-0.10471-2.7498-1.313-6.1312-3.1214-6.1312-3.1214l3.9512 4.3228c-5.1527 1.6845-8.5466 3.047-8.5466 3.047 48.914 14.802 46.61 49.446 44.442 68.608-5.066-11.457-7.9272-11.643-14.987-20.239-3.1338-3.8522-5.066-10.466-3.3319-14.331l-3.3195 6.8372c-5.1156-5.2518-10.466-9.6985-15.718-13.377-0.22291-0.16054-0.71842-0.68175-0.84232-1.5607-0.54507-3.753-0.9909-7.8405-0.9909-7.8405l-1.6474 7.0726c-4.3476-2.8118-8.1255-4.8802-11.978-6.6391-0.19778-0.0815-0.60731-0.27224-0.75505-0.97844-0.49563-2.2048-1.1274-5.289-1.1274-5.289l-0.84233 5.0659c-1.3997-0.58172-2.7622-1.1146-4.0504-1.573 17.923 24.401 15.867 66.589-0.0931 88.785 2.3286-12.015-0.13611-28.253-4.3972-43.761-0.80509-2.8488 0.18616-7.5061 2.7498-10.528l-4.7439 3.7654c-1.7093-5.4995-3.6169-10.776-5.5491-15.656-0.23501-0.60731-0.11634-1.0285-0.0466-1.2509 1.2757-3.9885 3.654-9.971 3.654-9.971l-5.5739 6.4285c-1.536-3.5673-3.047-6.8001-4.4963-9.6242-1.2263 2.7993-2.4153 5.611-3.5053 8.4476-4.7316 12.275-8.3484 24.958-11.21 37.791-3.1833 14.356-5.4004 28.922-6.7877 43.563-0.95401 9.9834-1.4988 20.004-1.6599 30.024 23.311-1.0401 72.435-0.86674 88.401-0.47002"/>
  <path d="m478.17 246.52h-13.142v58.6c4.3476 0.13612 8.8314 0.3339 13.142 0.49562z"/>
  <path d="m456.05 246.52h-13.142v57.993c4.3972 0.1047 8.7695 0.22221 13.142 0.3467z"/>
 </g>
 <g fill="#5ea14d" fill-rule="evenodd">
  <path d="m482.77 370.53c-2.3534 0-4.5953-1.1018-4.5953-1.1018l-45.978 85.862c9.0049-4.3104 18.456-8.5466 28.154-12.869 3.9265-1.7589 7.8777-3.5178 11.817-5.3014l14.975-67.704v0.0117s-2.0066 1.1018-4.3724 1.1018"/>
  <path d="m438.33 370.53c-2.3534 0-4.3848-1.1018-4.3848-1.1018l-74.789 37.692c2.6754 8.5093 5.7968 16.87 9.4383 24.971l74.306-62.662c-0.13636 0.0581-2.2791 1.1018-4.5706 1.1018"/>
  <path d="m465.03 369.42c-0.0244 0.0117-2.0314 1.1029-4.3848 1.1029-2.341 0-4.5953-1.1029-4.5953-1.1029l-79.421 78.752c2.2915 4.1495 4.7192 8.2246 7.308 12.201 0.95401 1.474 1.9322 2.9356 2.9603 4.3971 4.7316 2.5887 9.3021 5.2518 13.39 7.853z"/>
  <path d="m335.05 440.12-1.5606-4.5086c-1.4987-4.3723-2.886-8.8438-4.1742-13.414l-15.929 8.0016c7.0849 3.369 14.393 6.6638 21.664 9.9214"/>
 </g>
 <g fill-rule="evenodd">
  <path d="m433.95 304.37c-15.966-0.39673-65.103-0.57008-88.401 0.47119-0.093 5.5739-0.0581 11.16 0.0815 16.722 0.49563 17.217 2.1304 34.409 5.1898 51.354 25.962-4.9917 54.029-7.9148 83.125-8.2989z" fill="#0072bc"/>
  <path d="m263.86 400.89c16.969-8.2493 36.255-15.359 56.94-21.02-3.0841-23.831-3.7282-48.988-1.9198-74.12-30.706 1.2758-60.544 3.2328-89.219 5.8464-3.6415 38.831 2.2667 64.26 34.199 89.293" fill="#0072bc"/>
  <path d="m465.03 369.42v-122.9h13.142v122.9s2.2543 1.1146 4.5953 1.1146c2.3658 0 4.3724-1.1146 4.3724-1.1146v-2.6754l-0.0128-60.767v-61.585c0-0.70621-0.56973-1.2758-1.2758-1.2758h-2.019v-2.0189c0-0.70621-0.56973-1.2758-1.2758-1.2758h-44.033c-0.70608 0-1.2758 0.57007-1.2758 1.2758v2.0189h-2.019c-0.70608 0-1.2758 0.57008-1.2758 1.2758v59.975l-0.0128 60.26v4.7934s2.0314 1.1146 4.3848 1.1146c2.2915 0 4.4467-1.0401 4.5706-1.1146h0.0128v-122.9h13.142v122.9s2.2543 1.1146 4.5954 1.1146c2.341 0 4.3476-1.0901 4.3848-1.1146z" fill="#fced00"/>
 </g>
</svg>
