<?xml version="1.0" encoding="UTF-8"?><svg id="uuid-bf695172-4fa6-415f-9c36-8ca6b9f086a9" xmlns="http://www.w3.org/2000/svg" viewBox="0 0 150 150"><path d="M75,140.51c-37.36,0-67.76-30.39-67.76-67.75S37.64,5,75,5s67.76,30.4,67.76,67.76-30.4,67.75-67.76,67.75" fill="#fff"/><path d="M75,138.97c-36.51,0-66.21-29.7-66.21-66.21S38.49,6.54,75,6.54s66.21,29.7,66.21,66.21-29.7,66.21-66.21,66.21"/><path d="M128.11,72.76c0-29.34-23.78-53.11-53.11-53.11S21.89,43.42,21.89,72.76s23.77,53.1,53.11,53.1,53.11-23.78,53.11-53.1" fill="#0046af"/><path d="M123.31,104.15c-.11-.13-1.12-1.32-1.12-2.22,0-.03,0-.09,0-.17,.07-2.52-.23-3.5-.49-3.87l-.02-.03c-.09-.18-.92-1.78-.86-2.62,.04-.77-.22-6.11-1.52-8-.15-.15-.95-1.06-.95-2.76,0-.53-.38-3.23-.83-3.8-.41-.42-1.02-1.82-1.07-3.29-.02-.13-.03-.29-.05-.48-.17-1.65-.55-5.51-2.71-9.73-.09-.18-2.12-4.35-2.33-6.22-.01-.06-.03-.15-.05-.28-.53-3.45-1.75-6.35-3.62-8.61-.04-.04-3.6-4.09-7.33-8.78-1.47-1.85-3.76-3.02-6.8-3.46l-.21-.03-.02-.21c-.6-5.6-4.22-9.52-4.27-9.57-1.38-1.7-3.3-2.75-5.02-2.75-.62,0-1.17,.15-1.61,.43-.02,.01-.49,.29-1,.29-.25,0-.47-.06-.65-.19-1.31-.86-3.36-1.4-5.35-1.4-.59,0-1.17,.05-1.69,.13-.03,0-.11,.06-.17,.09-.24,.14-.61,.34-1,.34-.17,0-.32-.04-.46-.11-.06-.01-.14-.03-.24-.06-.65-.15-2.37-.56-4.17-.56-1.21,0-2.24,.18-3.06,.54-.14,.09-.85,.54-1.48,.54-.3,0-.56-.11-.73-.3-.42-.31-1.36-.81-3.05-.81-1.94,0-4.28,.65-6.95,1.95-5.32,2.57-5.3,3.12-5.23,6.7,0,.47,.02,.99,.02,1.56,0,1.76,.31,2.77,.85,2.77s1.22-.81,1.34-1.1c.42-.83,1.1-1.43,1.63-1.43,.2,0,.37,.08,.49,.24,.2,.26,.22,.7,.06,1.33-.49,1.94-.75,5.61-.75,7.52v.08l-.04,.06c-.85,1.41-1.74,3.07-1.74,3.42v.13l-.1,.08c-2.57,2.14-3.58,5.26-3.77,6.75-.26,2.78-2.12,4.25-2.9,4.74-3.08,2.17-3.12,6.28-3.12,6.32,0,.8-.64,1.81-.66,1.83-.35,.68-.88,3.79,.05,5.72,1.07,2.23,.46,4.68,.24,5.4-.58,1.49-.88,3.79-.78,6.01,.11,2.54,.71,4.57,1.69,5.7,1,1.07,1.61,6.25,1.61,6.95,0,1.39,.39,4.71,.4,4.74v.13s-.07,.09-.07,.09c-1.22,1.31-2.51,2.91-2.54,3.31v.16s-.16,.07-.16,.07c-1.32,.58-4.76,2.4-4.84,3.79v.11s-.09,.07-.09,.07c-.83,.73-2.83,2.85-2.53,4.16,.09,0,.21,.02,.35,.02,.34,0,.87-.05,1.44-.31l.52-.23-.14,.55c-.07,.27-.12,.56-.14,.75,.56-.1,1.51-.31,1.94-.59l.15-.1,.15,.1c.6,.39,1.4,.61,2.18,.61,.84,0,1.55-.25,1.89-.67l.36-.44,.11,.56s.09,.41,.54,.65l1.34-1.16,.17,.12c.45,.32,1.03,.48,1.72,.48,1.4,0,2.76-.68,3.07-1.15l.07-.11,1.95-.17c1.23-.7,1.51-3.48,1.51-3.51v-.09s.06-.07,.06-.07c.56-.65,.12-2.28-.1-2.85-.44-1.14,.39-2.56,.42-2.63,.5-.83-.09-2.44-.36-2.99v-.03c-.94-2.65,.15-10.05,.2-10.37v-.08s.06-.06,.06-.06c.48-.56,.9-2.59,1.03-3.33v-.04s.02-.03,.02-.03c.3-.64,2.42-1.58,4.75-1.58,1.58,0,3.87,.43,5.75,2.48l.02,.02c1.62,2.17,6.19,3.71,7.08,3.76,2.36,.14,5.41,.61,6.66,2.01,.02,0,.03,0,.06,0,.13,0,.32-.03,.52-.17,.77-.9,3.05-.98,3.31-.99h.37s-1.33,4.75-1.33,4.75l-.14,.04c-4.56,1.46-5.3,5.01-4.95,6.55,.3,.36,1.07,1.15,1.76,1.22,.18-.14,.39-.21,.63-.21,.69,0,1.42,.58,1.45,.6,.23,.17,1.06,.35,2.36,.35,2.13,0,4.62-.51,5.38-1.65l.45-.68,.05,.81s.06,1.13-.12,1.79l-.02,.07-.05,.05c-.74,.74-1.22,3.25-1.34,4.17-.29,1.67-2.09,2.96-2.32,3.12-.89,.88-1.73,3.2-1.08,5.02,.44,1.25,1.48,1.96,3.1,2.11h.02c.16-.04,.57-.52,.87-1.01l.09-.15,4.23,.63,.07,.11c.15,.25,.3,.28,.4,.28,.31,0,.69-.32,.8-.44l.14-.14,.18,.08c.07,.03,.31,.11,1.14,.11,1.62,0,4.15-.28,4.18-.29l.3-.03v.31h.01c.22,0,.66-.21,.88-.35l.07-.04h.08c.92,0,2.14-.66,2.46-.85,.48-1.53-.21-3.94-.78-4.65l-.05-.06v-.08s-.28-2.61-1.28-3.97c-.02-.03-.47-.76-.47-1.93,0-.54,.55-3.77,1.29-5.4,.08-.25,1.29-3.96,1.29-5.79,0-.16,.22-3.82,.48-5.18v-.02s.01-.02,.01-.02c0-.01,.4-1.04,.44-2.32,0-.16-.09-4,.44-5.77,.01-.03,1.02-2.7,.77-4.88-.02-.33,.05-.58,.21-.74,.12-.13,.29-.2,.49-.2,.13,0,.23,.03,.25,.04l.1,.03,.05,.09c.44,.79,1.36,2.11,1.93,2.28,.06,.02,1.53,.42,2.16,1.73,1.61,3.37,2.97,5.63,3.74,6.19l.1,.07v.12s.22,2.36,.51,3.18c.1,.19,.86,1.61,.97,2.55,0,.01,.16,1.1,.5,2.37,.42,1.46,.63,3.04-.67,4.66-2.27,2.9-2.02,6.73-1.95,7.48,.72,.39,1.46,.59,2.19,.59,1.06,0,1.76-.42,1.76-.43l.22-.14,.15,.21c.44,.6,1.22,.9,2.32,.9,.93,0,1.74-.23,1.75-.23l.18-.05,.11,.16c.34,.48,.78,.58,1.09,.58,.48,0,.92-.24,1.09-.47l.07-.1h.12c1.02-.11,1.72-.59,2.1-1.44,.78-1.77-.02-4.56-.7-5.47M89.23,39.59s.24-1.21,.39-1.4,.41-.19,.9,.22l.72,1.09-2.01,.09Z" fill="#fff"/><path d="M79.3,44.27c-2.43-1.91-6.1-1.02-8.99-1.61l-1.54,.34c-1.89,1.66-5.08,2.19-6.07,4.77-.5,1.36-.59,3.48-.29,4.95,.46,2.21,1.21,2.43,2.51,1.96-.05,.12-.1,.22-.16,.31v.56c2.33,.54,3.88,2.98,6.31,3.31,1.46,.19,3.6,.08,4.98-.36,1.74-.56,4.18-2.27,3.13-4.25,.76,.11,1.41-.14,1.84-1.14,1-2.35,.25-7.28-1.71-8.83" fill="#97999b"/><path d="M67.78,45.77c-.37,0-.66,.3-.66,.66s.29,.66,.66,.66,.66-.3,.66-.66-.3-.66-.66-.66m-2.2,1.39c-.29,0-.54,.23-.54,.53s.25,.54,.54,.54,.53-.25,.53-.54-.24-.53-.53-.53m1.76,1.15c-.3,0-.54,.24-.54,.53s.24,.54,.54,.54,.54-.24,.54-.54-.24-.53-.54-.53m2.13,.65c.3,0,.53-.24,.53-.54s-.23-.53-.53-.53-.54,.24-.54,.53,.24,.54,.54,.54m9.22-1.17c-.29,0-.54,.24-.54,.54s.24,.54,.54,.54,.54-.24,.54-.54-.24-.54-.54-.54m-2.3-.44c-.3,0-.54,.25-.54,.54s.24,.53,.54,.53,.54-.24,.54-.53-.25-.54-.54-.54m2.35-.92c0-.29-.24-.54-.54-.54s-.54,.24-.54,.54,.24,.54,.54,.54,.54-.24,.54-.54m1.01,.44c-.19,0-.34,.15-.34,.34s.15,.33,.34,.33,.33-.15,.33-.33-.15-.34-.33-.34m.44-4.94c2.19,1.69,2.9,7.18,3.01,10.58,.04,.99-.19,7.32,1.39,4.58,.76-1.34-.22-7.06-.55-8.64-.55-2.68-1.91-6.29-3.85-6.52m35.12,65.92l.51,.06c0-.45,.4-2.78,1.24-3.57,.46-1.23-2.01,.2-1.75,3.51m3.76,.58l.46-.06c-.14-.39,.13-3.18,.13-3.18-.39-.2-1.24,1.16-.59,3.23m-24.5,9.17c.33,.59,.91,.27,.91,.27,.26-1.96-1.04-2.67-1.1-2.28,.46,.64,.19,2.01,.19,2.01m28.95-13.61s-1.05-1.21-1.05-2.04c0-.32,.15-3.21-.53-4.2,0,0-.89-1.68-.83-2.48,.04-.78-.22-6.25-1.58-8.19,0,0-.89-.84-.89-2.58,0-.52-.38-3.35-.89-3.98-.32-.31-.95-1.62-1-3.14-.16-1.32-.37-5.57-2.79-10.3,0,0-2.1-4.3-2.31-6.15-.11-.47-.53-5.15-3.73-9.02,0,0-3.55-4.03-7.32-8.77-1.81-2.29-4.59-3.21-6.98-3.56-.61-5.76-4.33-9.71-4.33-9.71-2.16-2.66-5.3-3.47-6.98-2.39,0,0-.81,.49-1.36,.11-1.73-1.14-4.66-1.73-7.26-1.3-.22,.06-.92,.66-1.47,.33-.37-.06-4.76-1.35-7.7-.06,0,0-1.36,.92-1.9,.28-1.08-.82-4.13-1.9-10.3,1.09-6.18,2.98-5.37,3.46-5.37,8.51s2.44,2.44,2.71,1.79c.71-1.41,2.18-1.95,1.68-.05-.48,1.89-.76,5.53-.76,7.59,0,0-1.78,2.93-1.78,3.56-2.73,2.27-3.69,5.57-3.86,6.94-.23,2.38-1.71,3.86-2.78,4.55-3.23,2.28-3.23,6.54-3.23,6.54,0,.73-.62,1.71-.62,1.71-.41,.79-.91,3.97,.05,5.96,.96,1.99,.51,4.26,.23,5.18-1.14,2.95-1.31,9.37,.96,11.99,.91,.97,1.53,5.97,1.53,6.77,0,1.43,.4,4.77,.4,4.77,0,0-2.55,2.73-2.61,3.48,0,0-4.89,2.16-5,4.03,0,0-3.24,2.85-2.56,4.61,0,0,.98,.22,2.11-.28,0,0-.24,.9-.12,1.13,0,0,1.65-.23,2.33-.68,1.42,.91,3.63,.86,4.43-.12,0,0,.11,.63,.86,.92l1.31-1.14c1.7,1.2,4.6,.11,5.17-.74l1.88-.17c1.42-.74,1.7-3.75,1.7-3.75,.79-.92-.06-3.13-.06-3.13-.39-1.03,.4-2.39,.4-2.39,.68-1.14-.34-3.25-.34-3.25-.91-2.61,.23-10.24,.23-10.24,.63-.74,1.09-3.46,1.09-3.46,.4-.86,6.24-3.18,10.05,.97,1.65,2.21,6.25,3.81,7.28,3.86,1.03,.06,5.18,.34,6.54,1.99,0,0,.45,.12,.9-.22,.69-.85,3.13-.91,3.13-.91l-1.19,4.26c-4.77,1.53-5.52,5.35-5.12,6.93,0,0,1.08,1.37,2.1,1.37,.63-.63,1.82,.34,1.82,.34,.91,.68,6.77,.68,8.13-1.36,0,0,.06,1.08-.11,1.71-.96,.96-1.42,4.31-1.42,4.31-.29,1.66-2.23,2.96-2.23,2.96-1.64,1.59-2.78,7.16,2.16,7.61,.38,.09,1.15-1.14,1.15-1.14l3.93,.58c.59,1,1.64-.11,1.64-.11,.79,.37,5.46-.16,5.46-.16,0,.69,1.31-.11,1.31-.11,1.16,0,2.69-.94,2.69-.94,.58-1.63-.16-4.2-.79-5,0,0-.26-2.67-1.31-4.09,0,0-.43-.68-.43-1.79,0-.48,.53-3.68,1.27-5.3,0,0,1.31-3.93,1.31-5.88,0,0,.21-3.78,.48-5.14,0,0,.41-1.06,.46-2.43,0,0-.09-3.93,.43-5.67,0,0,1.05-2.73,.79-4.99-.05-.84,.59-.63,.59-.63,0,0,1.2,2.15,2.1,2.41,0,0,1.4,.37,1.99,1.58,.58,1.21,2.62,5.4,3.83,6.3,0,0,.21,2.42,.53,3.26,0,0,.84,1.52,.95,2.48,0,0,.16,1.1,.51,2.41,.38,1.31,.64,2.84-.62,4.42-2.63,3.35-1.99,7.82-1.99,7.82,2.47,1.41,4.35,.22,4.35,.22,1.21,1.67,4.36,.78,4.36,.78,.79,1.11,2.2,.68,2.62,.11,3.9-.37,2.68-5.88,1.58-7.35M50.1,34.29c-1.84,5.63-2.11,2.77-2,.06,.11-2.71,.38-3.58,2.16-4.45,1.79-.87,6.24-2.72,8.4-2.98,2.18-.28,2.93,.91,1.04,.91,0,0-7.75,.81-9.6,6.46m.84,16.13v-.28c.01-.06,.03-.08,.03-.12,.27-1.49,.7-4.25,.66-5.94-.46-12.61,15-18.18,19.99-16.63,0,0,1.16,.39,1.81,.19,.71-.25,5.04-.32,6.85,.85,0,0,1.04,1.16,2.06,.58,5.93-2.77,9.55,6.77,10.11,10.15,.38,1.75-.11,1.56-.76,.15-1.23-2.09-1.01-2.15-2.74-2.02-.97,0-1.23-.14,.51,7.05,1.24,6.54,0,8.47-.06,6.92,0-.52,.06-2.98-.84-2.91,.14,3.27-.1,5.3-.39,6.3v.02c-.23,.79-.49,.99-.59,.58h0c-.1-1.15-1.09-3.97-1.65-2.05-.24,.85,.37,2.48,.89,3.53v.04c.03,2.92-.53,5.88-2.13,7.1-.51,.25-1.33,.46-2.17,.84-.6-1.61-.6-3.54-.59-5.4,0-2.83,.01-5.75-2.08-7.63-.79-.72-1.8-.9-2.78-1.09-1.37-.24-2.66-.49-3.16-2.21-.42-1.42,.28-2.79,.91-3.3,.24-.19,.45-.26,.59-.18,.09,.05,.31,.26,.22,1.11v.12s.1,.03,.1,.03c.81,.22,1.19-.09,1.35-.4,.51-.95-.28-3.11-1.03-3.78-1.04-.94-2.4-1.05-4.13-.34-1.02-.36-1.86-.36-2.41,.03-.49,.34-.73,.94-.71,1.79,.02,1.03,.98,2.27,1.76,2.27,.26,0,.68-.16,.74-1.11,.16,.05,.3,.15,.41,.36,.21,.4,.29,1.03,.29,1.71,0,1.33-.32,2.85-.69,3.4-.74,1.04-1.93,1.33-3.09,1.62-1,.24-2.04,.51-2.78,1.25-1.11,1.11-1.48,2.76-1.81,4.37-.23,1.05-.44,2.05-.85,2.87-1.37,2.69-2.65,3.4-4.78,3.58-.2-.05-.41-.11-.64-.21-1.26-.59-2.39-1.71-3.6-2.49-.31-.2-.63-.34-.92-.51,.05-4.57,.47-9.39,2.87-13.24-2.19,2.26-2.45,5.07-3.4,7.94-.31,.96-.65,1.76-.88,2.45-.06-.29-.12-.57-.17-.8-.55-2.19-.36-4.33-.35-6.58m39.87-11.04c-.57,0-1.03,.03-1.35,.06-.03-.88,.5-1.68,.82-.97,.18,.32,.36,.62,.53,.91m-6.92,66.47s-3.07,.29-3.52-.06c-.46-.33-1.14-.85-1.14,.35l-.58,.06c-.17-.29,.35-3.19,1.83-3.93,0,0,2.5-1.31,1.36-1.76,0,0-3.3,.68-4.09,4.95l-1.48-.06c-.11-.57,.92-3.24,3.7-5l-.34-.23c-.51,0-3.07,1.25-4.25,4.77-1.94-1.76,.96-4.31,2.27-4.77,.67-.22,2.39-.96,2.79-2.49,.39-1.53,1.13-3.92,1.13-3.92,0,0,2.33-.12,2.78-.52,.46-.4,1.48-1.65,3.01-1.6-.39,0-1.14,12.29-1.14,12.29,0,0-.74,1.76-2.33,1.93m37.26,4.64c-.63,.94-1.36,.68-1.74-1.01-.26,.27-.15,.89-.15,.89,0,0-1.58,.53-1.84,.16-.21-.37-.43-.37-.53,.16-.41-.11-1.21-.26-1.16-1.73,0,0-.58-.16-1.36,.79-1.11,.26-1.06-1.42-.85-2.46,0,0-.95-.16-1.1,2.15-.42,.09-.74-.11-.74-.11,0,0-.21-3.78,1.89-5.87,2.48-2.05,1.43-8.14,.59-9.35-.85-1.21-2.01-5.31-2.01-5.31-.14,0-2.61-2.89-2.83-4.26-.11-.42-1.47-3.46-2.31-3.78-.84-.32-3.93-2.47-3.88-4.46,1.47-1.58,.21-5.15,.21-5.15,3.72-2.57,4.62-7.4,3.2-10.92-.37-.79-1.05-1.47-1.05-2.57-.05-2.63-.99-4.62-.99-4.62,0,0-.21,4.46,.11,4.98,3.31,4.26,.99,9.78-2.21,12.14,0,0-2.2-3.41-4.14-4.41-1.94-.99-2.2-2.73-2.53-4.47-.31-1.73-.78-3.67-2.3-4.39,0,0,1.41,2.18,1.29,3.64,0,.38-.54,3.58,1.2,5.26,7.42,6.62,6.29,9.38,5.31,10.84-.32,.54-.86,2.38-.43,3.58,.43,1.19,.6,2.81,.06,4.12,0,0-.7,1.68-.76,3.52,0,0,.27,3.47-.38,5.04,0,0-.6,1.85-.54,3.8,0,0-.11,5.31-1.68,8.78,0,0-1.63,5.74-.86,6.72,1.29,1.63,1.57,4.01,1.57,4.01,.76,.43,1.25,2.38,.81,3.09-.43,.71-1.58,.38-1.58,.38-.05,.43-.87,.98-.92,.43-.05-.54-.66-1.35-1.2-.38-.54,.98-2.83,1.25-3.8,.71,0,0-.53-.43-.91,.11-.38,.54-.65,.1-.65,.1,.11-1.78-.33-1.62-.33-1.62-.7,1.52-2.98,1.57-3.8,.75-.38-.38-1.29-.37-1.18,1.09-1.84-.65-1.04-3.58,.36-4.61,1.04-.71,.93-2.01,.93-2.01l-.49-.05c0,.71-.49,.92-.49,.92-1.13,.54-2.33,1.52-2.27,5.1-.87-.27-1.03-4.17,1.36-5.42,.6-.27,3.58-6.07,3.58-10.72,0,0,.05-8.08,1.03-10.62,0,0,1.2-3.37-.33-3.8l-2.21,.58s-2.01,.28-2.36,.92c0,0-.64,1.91-2.83,1.84-2.2-.06-4.45,1.04-4.45,1.04,0,0-1.27-1.39-4.1-1.51-2.36-.34-6.06-1.15-10.1-4.62-.87-.69-2.31-2.89-4.33-2.89-9.08-.52-13.81-1.78-14.73-7.5,0,8.08,3.06,9.41,3.06,9.41-.24,2.32,.22,9.83,1.49,11.04-2.41-14.73,4.8-9.88,2.43-6.25-.4,.69-.74,7.46-.06,10.81,.76,.46,.63,1.56,.63,1.56,0,0-1.44,1.96-.63,3.58,.8,1.61,.35,4.96-1.15,6.18-.06-2.14-1.04-1.33-1.04-1.33-1.8,3.3-4.85,3.24-5.66,2.14l-1.45,1.21c-.57-.28,.17-2.48,.17-2.48,0,0-.62,.06-.92,1.04-.29,.98-.81,1.16-.81,1.16-1.16,.75-2.95,.28-3.58-.52-1.23,1.04-1.63,.69-1.63,.69-.06-.58,.46-1.45,.46-1.45l-1.85,1.04-.64,.06c-.17-2.37,2.66-3.41,2.66-3.41,.58-2.37,5.03-3.23,5.03-3.23,.18-.53,3-4.22,3-4.22v-.69s.11-7.62-1.48-10.66c-2.33-3.18-2.14-10.94-.71-13.72,.26-.71,.51-1.55-.65-4.66-1.16-3.68,.19-10.48,3.36-13.06,.98-.66,2.79-2.66,2.79-5.12,0-2.04,2.76-5.41,3.7-6.5-.21,.69-.19,1.76-.26,2.36-.2,2.33,.59,4.25,.96,6.45,.19,1.14,.29,1.63,1.23,2.25,.85,.59,1.74,1.17,2.5,1.88,.69,.64,.99,1.19,1.92,1.43,.67,.17,1.1,.38,1.81,.42h.1c1.46,.51,2.96,.93,4.11,.31,.8-.45,1.37-1.35,1.71-2.76l.42-1.85c.74-3.42,1.28-5.89,4.96-7.08l1.4-.49c2.62-.96,5.09-1.86,7.58,.56,1.56,1.51,1.48,3.55,1.39,5.73l-.04,1.71c.04,2.66,.56,3.43,1.91,4.35-.66,.47-1.24,1.13-1.6,2.06-.97,2.61-5.48,3.05-5.85,.39h-.01c-.4-2.15-1.13-5.35-.44-7.33-1.11,1.53-.46,4.43-1.36,6.01-.52,.92-1.9,1.54-2.88,2.18-1.29-.51-1.33-1.68-1.33-1.68-1.65-.62-3.73,.78-5.48,.21-.55-.19-1.2-.99-1.81-.81-.85,.26,.06,1.2,.46,1.54,.86,.78,1.91,1.3,3.09,1.08,.59-.1,.96-.25,1.59-.28,.03,0,.05,0,.06,0,.66,1.47,3.36,1.89,5.34,1.78,2.93,2.33,6.29,.7,7.27-.39,.97-1.08,3.14-3.14,3.57-3.09,3.36,0,4.56-3.95,5.32-7.05,.75-3.09,1.2-4.06,2.87-7.96,1.41-3.27-.08-9.62-.58-11.59l1.83,.02c1.32,1.9,2.3,2.3,2.18,.13v-.08c4.25,.31,7.42,4.93,7.42,4.93,0,0,8.93,9.33,9.04,14,0,0,.45,3.77,1.79,5.91,0,0,3.37,6.4,3.37,10.92,0,0,0,2.51,.89,3.88,0,0,1.05,.94,1,2.83,0,0-.21,2.73,.63,3.89,0,0,2.05,2.62,2,5.66,0,0-.32,3.43,.36,4.27,0,0,1.26,1.74,1.26,4,0,0-.21,1.88,.68,2.73,1.75,1.73,2.47,6.98-.99,6.94M83.18,30.5c.81,.6,3.64,4.02,4.45,5.32,.8,1.3,.98,.76,1.03,.54,.05-.22-.22-1.09,.86-.54,1.09,.54,1.84,1.09,.98-.92-.86-2.01-2.65-4.83-5.15-5.54-2-.43-3.25,.33-2.16,1.14m5.14,84.62s-.51,.84-.14,1.56c0,0,.53,.65,.53,1.56,0,0,.39,.66,.59,.26,0,0,.26-.58,0-1.88,0,0-.45-1.43,.46-2.73,.32-.84-.66-.46-1.44,1.24M60.14,40.17c.27,.96,.69,1.33,1.3,1.41-.42-.33-.69-.88-.61-1.47,.08-.57,.44-1.04,.91-1.27-.16,.73-.23,2.07,.37,2.29,.84,.3,1.19-.99,1.49-1.88,.28,.33,.43,.78,.38,1.25-.04,.3-.16,.56-.32,.79,1.09-.37,1.42-1.08,2.56-.5,.46-.29,.76-.71,.86-1.19-.48-.34-1.02-.74-1.56-1.04-.14-.03-.28-.06-.43-.13-.19-.07-.37-.17-.55-.27h-.01c-.44-.26-.86-.53-1.43-.62-.99-.14-2.41-.08-3.4,.33-.57,.01-.38,.4-.74,.64-.06,.04-.9,.43-.96,.51-.53,.64-.29,1.38-.11,2.2,1.42,.71,1.13-1.18,2.25-1.05m-.13-5.12c.78-.62,2.11-1.32,3.13-1.66,2.19-.73,4.43-1.06,5.62-3.35l-.37,.18c-2.44,.16-5.69,1.95-7.88,3.08-1.9,.99-2.16,1.61-2.77,3.33,.94,.17,1.6-1.03,2.27-1.58m25.38,64.93s-.26,1.3-.9,1.3-2.21,.84-2.41,1.82c-.26,.65,.06,.98,.4,.46,0,0,.78-.72,1.29-.72s1.88-.13,2.08-2.73c-.06-.59-.46-.13-.46-.13m-27.02-39.76c1.58,.12,1.18-2,1.18-2.85,0-2.42,.19-4.67,.93-7.02,.54-1.73,1.43-3.65,2.66-5.14,.21-.1,.36-.35,.52-.58,.26-.28,.55-.53,.84-.75,.07-.05,.14-.09,.22-.13,.59-.29,1.22-.51,1.82-.77,1.25-.53,1.79-1.74,2.95-2.32,.38-.2,.75-.39,1.16-.55,.42-.15,.85-.12,1.25-.24,.11-.04,.18-.07,.22-.11,.49-.03,.96-.03,1.39-.06,.96-.04,1.82-.12,2.73,.1,1.35,.34,2.06,.99,3.22,1.63,.03-.34-.08-.61-.27-.85,.78-.19,1.16,.38,2.09,.68-.17-.23-.29-.49-.33-.79-.05-.47,.1-.91,.38-1.25,.31,.89,.66,2.18,1.5,1.88,.6-.22,.54-1.56,.38-2.29,.48,.23,.84,.69,.91,1.27,.08,.59-.19,1.14-.61,1.47,.61-.08,1.04-.45,1.31-1.41,1.13-.13,.83,1.76,2.24,1.05,.18-.82,.42-1.56-.1-2.2-.06-.07-.91-.47-.96-.51-.37-.24-.16-.63-.74-.64-.99-.41-2.41-.48-3.4-.33-.58,.09-1,.36-1.44,.61h0c-.19,.1-.36,.2-.56,.28-.15,.06-.29,.1-.42,.13-.53,.29-1.08,.68-1.54,1.02-.49-.36-.91-.78-.91-1.4,.01-1.11,.44-2.26,.83-3.36,.76-2.1,.78-4.12,.78-6.3-.49,2.04-1.65,3.99-2.18,6.05-.37,1.43-.49,3.02-.76,4.41-.99-.45-2.1-.45-3.26-.3-.55,.07-.85,.24-1.37,.03-1.15-.51-1.93-2.13-2.61-3.05,.03,.92,.61,2.15,.64,3.21-.35,.39-.55,1.13-.87,1.51-.8,.94-2.35,1.53-3.49,2.09-1.53,.73-3.22,1.6-3.94,3.08-2.19,2.46-3.66,5.75-3.94,8.94-.12,1.35-.56,5.58,1.56,5.75"/><path d="M92.25,51.3c.52-1.24,.52-2.69,.42-4.06-.07-1.04-.75-2.19-.21-3.06,.31-.48,1.6-1.48,2.2-1.71,1.38-.51,3.11,1.34,4.19,2.4-1.29,1.43-3.19,1.99-4.01,3.84-.48,1.06-.31,2.48-1.88,2.46l-.71,.13Zm16.92,12.49c-1.65,.59-.11,6.11,.03,7.11,.24,1.79,.62,3.5,1.46,5.03,1.16,2.14,2.19,5.67,3.93,7.33-1.55-3.31-1.62-6.48-1.97-9.99-.16-1.71-.58-3.34-1.46-4.78-.82-1.37-1.99-2.99-1.86-4.7h-.12Zm-61.41-3.82c-.17,1.8-1.23,3.11-2.36,4.37-.82,.91-.78,1.34-1.09,2.55-.63,2.51-3.15,5.35-.78,7.92,.44,.46,1.1,.61,1.6,.99,.87,.67,1.01,1.31,1.42,2.28,1.65,3.78,6.39,3.14,9.96,3.85-1.34-1.38-3.59-2.84-4.62-4.5,1.39-.23,2.84,.66,4.13,1.07,2.46,.76,4.81,1.1,7.36,1.31-2.96-.87-6.35-2.38-9.02-3.93-1.3-.77-4.44-1.96-4.06-3.91,.96-.03,1.88,.79,2.85,1.15,1.91,.71,3.9,.66,5.89,.71-4-1.66-7.65-5.54-8.9-9.68-.41-1.38-.41-3.81-2.13-4.17h-.26Zm47.21,8.79c.28,1.86,.84,3.68,1.08,5.63,.31,2.59,.46,5.25,.53,7.86,.09,3.61-.47,7.56-.1,11.09,1.16-2.48,.82-6.54,1.05-9.4,.22-2.72,.97-5.52,1.03-8.24,.07-2.66-2.2-4.95-3.47-6.78l-.12-.16Zm-5.96,17.25c.46-3.07,1.32-5.92,.86-9.22-.31-2.25-.66-4.7-1.79-6.69-.52-.92-1.16-1.45-1.85-2.21-.44,1.2-.73,2.8-1.29,3.94-.99,1.98-3.87,1.04-5.53,1.94,.78,.41,1.61,.44,2.47,.53,1.2,.11,1.66-.18,1.49,1-.13,.92-1.31,2.28-2,2.57-1.38,.57-3.23-.09-4.64,.37,1.49,.64,2.86,.94,4.51,1.01-1,1.38-2.78,2.36-4.34,2.97-1.33,.51-2.86,.14-4.03,.56,.13,.09,.23,.15,.23,.15,1.21,.65,2.61,1.21,4.02,1.66-.45,.41-.9,.82-1.39,1.16-1.52,1.08-2.89,2.16-4.8,2.26-1.53,.09-3.09-.25-4.57-.09,1.37,1.35,4.2,2.26,6.11,2.63,2.3,.45,5.22-.33,7.48-.87,1.68-.41,8.69-1.68,9.05-3.68" fill="#97999b"/><path d="M131.71,136.21c-18.07-7.48-37.15-11.28-56.71-11.28s-38.64,3.8-56.71,11.28l-1.94,.8-.19-2.09c-.31-3.41-.56-6.87-.74-10.3-2.18-2.62-4.44-5.23-6.72-7.76l-1.46-1.62,2.02-.84c20.95-8.68,43.07-13.08,65.74-13.08s44.79,4.4,65.74,13.08l2.02,.84-1.46,1.62c-2.29,2.54-4.55,5.15-6.72,7.76-.18,3.43-.43,6.89-.74,10.3l-.19,2.09-1.94-.8Z" fill="#fff"/><path d="M17.7,134.79c-.31-3.37-.55-6.82-.73-10.24l-.03-.51-.33-.39c-2.19-2.63-4.47-5.26-6.76-7.81,20.76-8.6,42.68-12.96,65.15-12.96s44.39,4.36,65.15,12.96c-2.29,2.55-4.57,5.17-6.76,7.81l-.33,.39-.03,.51c-.18,3.42-.43,6.87-.73,10.24-18.26-7.56-37.54-11.4-57.3-11.4s-39.04,3.84-57.3,11.4" fill="#0046af"/><path d="M90.83,98.64l-.83-1.85s-2.75,3.34-7.99,3.34c-2.31,0-4.47-.65-6.1-1.83l-.92-.67-.92,.67c-1.63,1.18-3.8,1.83-6.1,1.83-5.24,0-7.99-3.34-7.99-3.34l-.83,1.85c-3.14,6.99-3.72,15.63-1.62,23.7,1.15,4.42,3.07,8.51,5.7,12.15,2.88,3.99,6.56,7.36,10.95,10.02l.81,.49,.81-.49c4.38-2.66,8.07-6.03,10.95-10.02,2.62-3.64,4.54-7.73,5.7-12.15,2.11-8.07,1.52-16.71-1.62-23.7" fill="#fff"/><path d="M89.41,99.28c-1.85,1.48-4.47,2.41-7.39,2.41-2.73,0-5.2-.81-7.02-2.13-1.82,1.32-4.29,2.13-7.02,2.13-2.92,0-5.54-.93-7.39-2.41-5.66,12.61-3.23,33.19,14.41,43.89,17.64-10.7,20.07-31.28,14.41-43.89" fill="#0046af"/><path d="M18.88,62.49c.36,.52,.48,1.15,.37,1.87-.13,.89-.52,1.55-1.17,1.97-.65,.43-1.47,.56-2.47,.42-1.08-.16-1.87-.57-2.37-1.24-.44-.58-.6-1.26-.48-2.04,.15-1.04,.61-1.75,1.36-2.13,.42-.21,.83-.3,1.22-.26l-.19,1.29c-.31,.04-.55,.12-.72,.22-.3,.2-.49,.53-.56,.99-.07,.47,.07,.87,.41,1.2,.34,.33,.86,.54,1.55,.64,.7,.1,1.24,.03,1.62-.2,.39-.24,.61-.58,.68-1.02,.07-.45-.03-.82-.29-1.1-.14-.16-.36-.3-.67-.43l.19-1.28c.66,.21,1.17,.58,1.52,1.1m1.8-5.55l.36-1.37-6.62,.57-.37,1.43,5.5,3.74,.34-1.32-1.14-.74,.58-2.23,1.35-.07Zm-2.88,1.69l-2.18-1.4,2.58-.14-.4,1.54Zm-.59-10.62l-.43,1.14,4.08,1.55-4.97,.78-.49,1.28,5.85,2.23,.43-1.14-4.16-1.58,5.06-.81,.47-1.22-5.85-2.23Zm.48-1.08l.99,.5,.84-1.68,4.61,2.31,.59-1.18-4.61-2.31,.84-1.68-.99-.5-2.27,4.53Zm7.26-7.99l-1.62,2.58-1.13-.71,1.76-2.81-.94-.59-2.44,3.89,5.3,3.33,2.52-4.02-.95-.6-1.84,2.94-1.36-.85,1.62-2.58-.92-.58Zm3.67-2.65c.24-.3,.45-.47,.64-.5s.45,.08,.76,.32l.46,.35c.15,.11,.3,.21,.46,.29,.08,.04,.18,.09,.32,.14l.89-1.13-.12-.1c-.14,.05-.28,.04-.43-.03-.09-.04-.25-.16-.48-.33l-.33-.26c-.35-.27-.64-.42-.88-.46-.24-.04-.5,.02-.77,.18,.12-.34,.11-.67-.02-.96-.13-.29-.32-.53-.55-.72-.19-.15-.39-.26-.59-.31-.2-.06-.4-.08-.61-.07-.25,.01-.49,.08-.72,.2-.22,.13-.47,.36-.75,.7l-1.89,2.42,4.93,3.86,.79-1.01-1.93-1.51,.83-1.06m-.41-1.33c-.04,.16-.15,.35-.33,.58l-.91,1.17-1.32-1.04,.94-1.2c.17-.22,.33-.37,.48-.43,.26-.12,.54-.06,.83,.17,.28,.22,.38,.46,.31,.74m6.52-1.9c.22-.23,.41-.46,.56-.7,.15-.24,.24-.48,.27-.73,.03-.22,.01-.44-.04-.66-.08-.34-.25-.64-.52-.9-.26-.25-.53-.41-.83-.46-.29-.06-.59-.01-.9,.13,.07-.22,.09-.42,.08-.59-.03-.3-.19-.58-.46-.85-.27-.26-.56-.41-.89-.46-.53-.07-1.07,.16-1.62,.7l-2.12,2.18,4.49,4.36,1.98-2.03m-2.4-3.2c-.04,.2-.16,.39-.35,.59l-1.07,1.1-.99-.96,.96-.99c.21-.22,.41-.37,.59-.47,.22-.1,.44-.04,.65,.16,.19,.18,.26,.37,.21,.56m.4,1.3c.19-.19,.36-.32,.52-.38,.28-.11,.53-.05,.76,.18,.28,.27,.37,.55,.27,.84-.05,.16-.18,.34-.37,.54l-1.07,1.1-1.2-1.16,1.09-1.12m5.64-4.62c.27,.33,.44,.61,.48,.82,.1,.37-.05,.73-.46,1.06-.41,.34-.79,.42-1.13,.25-.21-.09-.45-.3-.72-.63l-2.45-2.96-1.02,.85,2.45,2.96c.42,.51,.83,.85,1.23,1,.73,.28,1.52,.07,2.35-.62,.84-.69,1.18-1.42,1.05-2.19-.08-.42-.33-.88-.75-1.4l-2.45-2.96-1.02,.85,2.45,2.96m4.3-3.15c.32-.21,.58-.3,.77-.27,.19,.03,.4,.22,.62,.55l.33,.48c.1,.15,.22,.29,.34,.42,.06,.06,.15,.14,.25,.23l1.2-.79-.09-.13c-.15,0-.28-.05-.39-.17-.08-.07-.19-.23-.35-.47l-.23-.35c-.24-.37-.47-.61-.69-.72s-.48-.14-.78-.07c.22-.29,.32-.6,.28-.92-.03-.32-.13-.61-.3-.86-.14-.21-.29-.37-.46-.48-.17-.12-.36-.2-.56-.26-.24-.07-.49-.08-.74-.03-.25,.05-.56,.19-.93,.42l-2.56,1.69,3.45,5.22,1.07-.7-1.35-2.05,1.13-.74m.04-1.39c-.09,.14-.25,.29-.5,.45l-1.24,.82-.93-1.4,1.27-.84c.24-.16,.43-.24,.59-.26,.28-.03,.53,.11,.74,.43,.19,.29,.21,.56,.06,.8m4.23-5.46l.17,2.99-2.42-1.81-1.36,.72,3.74,2.45,1.1,2.08,1.16-.61-1.1-2.08,.03-4.43-1.31,.69Zm3.25,3.32l2.23-.99-.47-1.05-2.23,.99,.47,1.05Zm6.4-.59c.3-.11,.57-.23,.81-.38,.24-.14,.43-.32,.57-.53,.12-.19,.21-.39,.26-.61,.08-.34,.06-.68-.07-1.03-.12-.34-.3-.6-.53-.78-.24-.18-.53-.28-.87-.28,.16-.17,.27-.34,.33-.49,.1-.28,.09-.6-.03-.97-.12-.35-.32-.62-.59-.81-.45-.3-1.03-.33-1.76-.09l-2.87,1.01,2.08,5.91,2.68-.94m-.73-3.93c-.13,.16-.32,.28-.58,.37l-1.45,.51-.46-1.3,1.3-.46c.29-.1,.53-.15,.74-.16,.24,.01,.42,.16,.51,.43,.09,.25,.07,.45-.06,.6m-.22,1.34c.26-.09,.47-.12,.63-.11,.29,.03,.5,.19,.6,.5,.13,.36,.08,.66-.13,.88-.12,.12-.31,.23-.57,.32l-1.45,.51-.55-1.57,1.47-.52m8,.64l1.38-.32-3.58-5.59-1.44,.34-.75,6.6,1.33-.31,.13-1.35,2.25-.52,.69,1.16Zm-2.83-1.77l.23-2.58,1.32,2.22-1.55,.36Zm9.13-5.46l-1.21,.15,.53,4.34-3-4.04-1.36,.17,.75,6.21,1.21-.15-.53-4.41,3.07,4.11,1.3-.16-.75-6.21Zm4.62,2.43l2.52-2.62-1.69,.03-2.37,2.62-.04-2.58-1.29,.02,.1,6.26,1.29-.02-.03-2.09,.61-.65,1.98,2.7,1.68-.03-2.76-3.64Zm5.68,3.01c-.51-.05-.86-.21-1.05-.48-.1-.15-.16-.37-.18-.66l-1.24-.11c-.06,.65,.13,1.18,.56,1.59,.43,.41,1.05,.66,1.87,.73,.79,.07,1.43-.06,1.9-.4,.47-.34,.73-.79,.78-1.36,.05-.56-.1-1-.44-1.32-.22-.21-.56-.39-1.02-.55l-1.05-.36c-.41-.14-.67-.25-.79-.33-.19-.13-.27-.3-.25-.53,.02-.24,.14-.42,.35-.54,.21-.12,.49-.16,.82-.13,.3,.03,.55,.1,.74,.22,.29,.19,.43,.47,.42,.84l1.25,.11c.04-.66-.16-1.19-.59-1.58-.43-.39-.98-.62-1.63-.67-.79-.07-1.4,.06-1.84,.39-.44,.33-.68,.78-.73,1.34-.06,.61,.11,1.08,.51,1.41,.23,.19,.67,.39,1.3,.6l.65,.21c.38,.12,.65,.24,.82,.37,.17,.13,.25,.3,.23,.5-.03,.35-.23,.58-.61,.67-.2,.05-.45,.06-.76,.03m3.93-4.98l-.2,1.09,1.85,.35-.95,5.06,1.29,.24,.95-5.06,1.84,.34,.2-1.09-4.98-.93Zm6.88,8.14c.86,.25,1.58,.21,2.17-.12,.77-.39,1.32-1.13,1.64-2.21,.33-1.1,.27-2.02-.18-2.74-.32-.6-.9-1.03-1.76-1.28-.86-.25-1.58-.21-2.17,.12-.77,.37-1.32,1.11-1.64,2.21-.32,1.08-.26,1.99,.18,2.75,.32,.6,.9,1.03,1.76,1.28m1.66-1.26c-.4,.28-.85,.35-1.35,.2-.5-.15-.84-.45-1.03-.9-.19-.45-.18-1.02,.02-1.69,.2-.68,.5-1.15,.91-1.43,.4-.28,.86-.35,1.35-.2,.5,.15,.84,.45,1.02,.9,.18,.45,.17,1.02-.02,1.69-.2,.68-.5,1.15-.9,1.43m7.91,1.92l-.56,.8,.23-.99,.77-3.58-1.26-.56-2.11,3.01-.56,.82,.24-.98,.7-3.61-1.27-.56-.91,6.44,1.11,.49,2.17-3.04,.69-1.02-.29,1.2-.79,3.65,1.14,.51,4.15-5.01-1.22-.54-2.23,2.97Zm8.98,.91l-1.04-.63-2.26,3.74,.12-5.03-1.18-.71-3.23,5.36,1.04,.63,2.3-3.81-.11,5.13,1.12,.68,3.23-5.36Zm1.76,9.17c.25,.2,.49,.37,.74,.5,.25,.13,.5,.2,.75,.21,.22,.01,.44-.02,.66-.09,.33-.11,.62-.3,.85-.59,.23-.28,.36-.56,.4-.86,.04-.3-.03-.59-.2-.89,.23,.05,.43,.06,.59,.03,.3-.06,.57-.23,.81-.53,.24-.29,.37-.59,.39-.92,.03-.54-.25-1.06-.83-1.55l-2.34-1.94-4,4.82,2.18,1.81m1.74-2.14c.21,.18,.35,.34,.42,.49,.13,.27,.09,.52-.12,.77-.25,.3-.52,.41-.82,.34-.16-.04-.35-.15-.56-.32l-1.18-.98,1.07-1.29,1.2,.99m1.26-.5c-.2-.03-.41-.13-.62-.31l-1.18-.98,.88-1.06,1.06,.88c.23,.19,.4,.38,.51,.55,.11,.22,.08,.44-.11,.66-.17,.2-.35,.29-.55,.26m3.79,5.76c-.31,.3-.57,.48-.78,.55-.36,.13-.73,0-1.1-.37-.37-.38-.49-.75-.34-1.11,.07-.21,.26-.47,.57-.77l2.76-2.68-.93-.95-2.76,2.68c-.48,.46-.78,.9-.9,1.31-.22,.75,.05,1.52,.81,2.29,.76,.78,1.51,1.07,2.27,.87,.41-.11,.85-.4,1.33-.86l2.76-2.68-.93-.95-2.76,2.68m-.1,3.48l2.74,3.45,.88-.7-1.93-2.43,4.02-3.19-.81-1.02-4.9,3.9Zm3.18,4.09l2.42,3.69,.94-.62-1.7-2.59,4.29-2.82-.72-1.09-5.24,3.43Zm4.05,6.74c.44,.84,1.11,1.28,2.01,1.32,.67,.03,1.37-.15,2.11-.53,.29-.15,.58-.35,.86-.58,.28-.24,.51-.52,.69-.86,.22-.42,.29-.86,.21-1.31-.04-.27-.15-.57-.33-.92l-1.25-2.39-5.55,2.89,1.25,2.39m4.59-1.29c-.21,.33-.6,.65-1.17,.94-.41,.21-.79,.34-1.15,.37-.65,.06-1.12-.18-1.41-.72l-.56-1.07,3.62-1.89,.56,1.07c.27,.53,.31,.96,.1,1.29m-2.22,7c.32,.83,.79,1.39,1.42,1.65,.78,.37,1.7,.36,2.75-.04,1.07-.41,1.76-1.01,2.07-1.81,.28-.62,.27-1.34-.05-2.18-.32-.84-.79-1.39-1.42-1.65-.76-.39-1.68-.37-2.75,.04-1.05,.4-1.74,1.01-2.07,1.81-.28,.62-.27,1.34,.06,2.18m2.01,.55c-.47-.15-.79-.46-.98-.95-.19-.48-.16-.94,.09-1.36,.25-.43,.7-.76,1.36-1.02,.66-.25,1.22-.3,1.69-.15,.47,.15,.79,.47,.98,.95,.19,.48,.15,.94-.09,1.36-.25,.42-.7,.76-1.36,1.01-.66,.25-1.22,.31-1.68,.16m.56,6.67c.17,.16,.43,.33,.78,.5l-.73,.32,.21,.84,3.25-.83-.64-2.53-1.01,.26,.36,1.4c-.41,.04-.78-.05-1.09-.26-.31-.21-.53-.53-.64-.95-.11-.43-.05-.86,.17-1.28,.22-.42,.71-.72,1.45-.91,.74-.19,1.34-.17,1.78,.05,.45,.22,.74,.57,.86,1.06,.06,.25,.08,.5,.04,.73-.07,.42-.3,.72-.69,.92l.32,1.25c.57-.22,.99-.61,1.26-1.18,.27-.57,.31-1.24,.11-2.01-.23-.89-.7-1.53-1.44-1.92-.73-.39-1.59-.46-2.57-.21-.97,.25-1.67,.71-2.09,1.39-.43,.65-.54,1.38-.33,2.19,.12,.49,.33,.87,.62,1.16m1.66,4.86c-.07-.51,0-.89,.23-1.13,.12-.14,.32-.24,.6-.32l-.18-1.24c-.64,.09-1.12,.39-1.42,.91-.3,.51-.4,1.18-.28,1.98,.11,.79,.39,1.37,.82,1.76,.44,.38,.94,.53,1.5,.45,.55-.08,.95-.32,1.19-.73,.15-.26,.25-.64,.3-1.12l.11-1.1c.04-.43,.09-.71,.14-.84,.08-.21,.23-.33,.45-.36,.24-.03,.44,.04,.61,.22,.16,.18,.27,.44,.32,.77,.04,.3,.03,.56-.05,.77-.11,.33-.36,.53-.73,.6l.18,1.24c.65-.12,1.12-.43,1.4-.94,.28-.51,.37-1.09,.28-1.74-.11-.78-.38-1.35-.8-1.7-.42-.35-.91-.49-1.47-.41-.61,.09-1.03,.36-1.25,.82-.14,.27-.23,.74-.28,1.4l-.05,.68c-.03,.4-.09,.69-.17,.89-.09,.2-.23,.31-.44,.34-.35,.05-.62-.1-.8-.44-.09-.18-.16-.42-.21-.73M26.53,116.22s.17-.06,.46-.15c.07-.02,.15-.04,.22-.06,.14-.04,.29-.08,.43-.12,.06,.12,.09,.21,.11,.27,0,.02,.02,.08,.05,.19,.01,.06,.07,.27,.18,.65,.09,.3,.17,.61,.26,.91,.06,.19,.12,.38,.18,.57,.39,1.36,.78,2.71,1.18,4.07,.03,.11,.07,.23,.1,.34,.04,.12,.09,.2,.17,.23,.08,.03,.25,.03,.53-.01,.11-.02,.32-.05,.65-.09,.02,.04,.04,.07,.05,.11,.01,.04,.04,.14,.07,.29-.09,.03-.19,.06-.28,.08-.19,.06-.47,.13-.83,.22-.22,.05-.37,.09-.46,.12-.1,.03-.48,.16-1.13,.38-.07,.03-.13,.05-.18,.06-.04,.01-.08,.03-.12,.04-.06,.02-.13,.03-.19,.05-.06,.02-.11,.04-.17,.07-.11,.03-.22,.06-.32,.09-.04,.01-.13,.05-.26,.1-.04-.08-.06-.15-.08-.2-.01-.04-.03-.11-.05-.2,.16-.1,.34-.21,.56-.32,.3-.16,.47-.28,.52-.36,.05-.08,.06-.17,.03-.26-.04-.14-.09-.27-.13-.41-.04-.15-.07-.3-.11-.45-.1-.3-.19-.6-.29-.91-.03-.08-.05-.15-.08-.23,0-.03-.04-.15-.1-.36-.02-.11-.05-.21-.08-.29-.02-.05-.07-.21-.17-.48-.03-.12-.05-.23-.08-.35-.1-.25-.16-.4-.17-.45-.02-.06-.03-.12-.05-.18-.01-.05-.02-.1-.03-.15-.05-.13-.1-.27-.15-.4-.01-.06-.03-.13-.04-.19-.02-.08-.05-.2-.1-.34-.04-.14-.09-.3-.16-.5-.25,.31-.55,.64-.88,.98-.04,.04-.21,.18-.52,.44-.2-.14-.34-.26-.41-.34,.4-.37,.67-.64,.81-.79,.22-.27,.46-.58,.71-.95,.1-.16,.22-.39,.37-.7m6.23,6.96c.11-.02,.19-.04,.25-.06,.31-.09,.69-.28,1.13-.57,.45-.29,.84-.67,1.2-1.13,.36-.46,.61-.94,.77-1.43,.16-.49,.25-.82,.26-.99,.08-.68,.05-1.29-.09-1.84-.28-1.11-.77-1.89-1.49-2.33-.72-.44-1.52-.55-2.39-.32-.49,.13-.92,.36-1.28,.68-.37,.32-.61,.73-.74,1.2-.12,.48-.12,.95,.02,1.43,.09,.3,.21,.59,.38,.86,.13,.21,.29,.38,.47,.51,.18,.14,.43,.25,.73,.35,.12,.04,.41,.07,.86,.09,.06,0,.19-.03,.4-.08,.33-.09,.63-.22,.88-.39,.12-.08,.16-.2,.12-.35-.02-.09-.06-.15-.12-.19-.06-.03-.11-.04-.17-.03-.03,.02-.06,.03-.09,.05-.11,.06-.22,.11-.33,.14-.17,.05-.36,.06-.55,.03-.08-.02-.18-.08-.29-.17-.18-.15-.31-.33-.41-.54-.15-.32-.27-.67-.38-1.05-.17-.62-.16-1.14,.02-1.55,.14-.3,.35-.49,.64-.57,.31-.08,.62-.01,.91,.22,.38,.31,.71,.98,.97,2.01,.08,.29,.13,.54,.15,.76,.04,.29,.06,.47,.08,.54,.05,.22,.07,.53,.08,.94,0,.4-.06,.8-.2,1.18-.14,.38-.34,.73-.6,1.05-.26,.32-.6,.62-1.01,.9-.21,.14-.32,.23-.33,.27-.03,.05-.04,.11-.02,.18,.02,.07,.08,.14,.17,.19m6.34-5.74c.27-.26,.51-.41,.75-.47,.32-.07,.64,0,.97,.22,.33,.22,.54,.58,.65,1.06,.1,.45,.11,.87,.03,1.24-.07,.37-.22,.66-.44,.86-.22,.2-.44,.33-.67,.38-.09,.02-.25,.02-.47-.02-.12-.01-.26-.08-.42-.2-.31-.23-.54-.37-.7-.42-.16-.05-.32-.05-.49-.01-.2,.05-.35,.14-.45,.29-.1,.14-.13,.29-.09,.45,.06,.22,.23,.38,.53,.48,.47,.16,1.09,.14,1.87-.03,.8-.18,1.45-.49,1.94-.92,.49-.43,.79-.9,.9-1.4,.11-.5,.13-.96,.04-1.39-.1-.5-.39-.92-.85-1.27-.47-.34-1.01-.45-1.61-.32-.05,0-.09,.02-.14,.03,.49-.47,.81-.87,.97-1.21,.16-.34,.21-.67,.14-.99-.08-.4-.32-.71-.7-.9-.38-.2-.88-.23-1.48-.1-.45,.1-.8,.24-1.07,.42-.36,.24-.62,.49-.78,.76-.16,.26-.3,.63-.42,1.11,.16,.03,.32,.07,.48,.11,.31-.71,.74-1.13,1.3-1.26,.27-.06,.53-.02,.78,.13,.25,.14,.4,.35,.46,.61,.06,.25,.02,.51-.12,.76-.2,.4-.65,.96-1.34,1.69,.11,.07,.24,.17,.41,.29m8.45-6.19c-.04,.12-.09,.2-.15,.24-.07,.04-.23,.09-.48,.13-.53,.09-1.06,.17-1.59,.27-.66,.12-1.03,.2-1.1,.24-.14,.07-.2,.15-.18,.25,.02,.08,.03,.15,.05,.23,0,.03,0,.06,.02,.12,0,.08,.02,.16,.03,.24,.02,.12,.04,.26,.06,.44,.01,.12,.04,.32,.09,.6,.05,.28,.07,.45,.08,.52,0,.07,.01,.14,.03,.23,.1,.66,.2,1.31,.3,1.97,.01,.05,.03,.08,.07,.11,.05,.02,.11,.03,.18,.02,.05,0,.1-.03,.15-.06,.08-.08,.17-.15,.26-.23,.21-.19,.35-.3,.43-.34,.16-.08,.35-.14,.59-.18,.45-.08,.86,0,1.23,.26,.37,.25,.6,.6,.67,1.03,.04,.25,.01,.53-.09,.85-.1,.32-.26,.57-.48,.75-.22,.18-.45,.3-.7,.34-.19,.03-.37,.03-.53-.02-.11-.03-.27-.14-.51-.33-.39-.31-.75-.44-1.06-.38-.2,.04-.36,.14-.48,.29s-.15,.32-.12,.5c.05,.24,.21,.42,.48,.53,.45,.19,.97,.22,1.56,.11,.5-.09,.92-.21,1.26-.35,.34-.14,.63-.33,.9-.57,.18-.16,.36-.42,.56-.78,.19-.36,.31-.68,.34-.95,.03-.27,.02-.57-.03-.89,0-.02-.06-.21-.18-.56-.03-.1-.12-.23-.28-.41-.22-.25-.43-.44-.64-.57-.28-.18-.59-.3-.94-.36-.34-.06-.69-.06-1.03,0-.23,.04-.45,.1-.66,.19-.21,.08-.4,.19-.58,.31-.03-.2-.05-.39-.08-.59-.04-.27-.08-.54-.12-.81,0-.05-.02-.13-.02-.25,.1-.02,.17-.04,.22-.05,.17-.03,.45-.08,.84-.13,.15-.02,.26-.03,.33-.04,.15-.03,.29-.06,.44-.09,.06-.01,.12-.02,.18-.03,.03,0,.32-.07,.87-.18,.05-.02,.1-.07,.14-.16,.07-.15,.12-.65,.18-1.51-.13,.02-.22,.03-.25,.04-.09,.02-.17,.03-.26,.05m56.52,8.68c.24-.65,.4-1.09,.47-1.31,.07-.22,.13-.38,.17-.47,.04-.09,.07-.18,.08-.24,0-.03,0-.06-.02-.1-.03-.01-.06-.03-.08-.04-.15-.02-.3-.04-.45-.06-.08,.12-.14,.21-.18,.27-.15,.26-.3,.41-.43,.46-.14,.05-.39,.04-.76-.02-.23-.05-.47-.09-.7-.14-.41-.06-.81-.12-1.21-.18-.25-.05-.49-.09-.74-.13,.95-.57,1.76-1.06,2.41-1.48,.9-.58,1.47-.95,1.68-1.14s.41-.42,.59-.69c.13-.2,.21-.43,.26-.67,.12-.62-.02-1.18-.4-1.68-.39-.5-.99-.82-1.81-.96-.98-.17-1.79,0-2.41,.48-.41,.31-.64,.67-.7,1.08-.02,.12-.03,.27-.05,.45,.17,.03,.33,.05,.5,.08,.08-.31,.24-.6,.45-.87,.14-.18,.34-.33,.61-.42,.26-.09,.54-.11,.84-.06,.3,.05,.56,.17,.78,.35,.23,.18,.37,.41,.42,.67,.06,.26,.05,.54,0,.85-.05,.27-.18,.58-.41,.92-.22,.34-.58,.71-1.08,1.11-.71,.58-1.25,1-1.61,1.24-.37,.24-.93,.69-1.67,1.34-.02,.14-.04,.28-.06,.42,.14,.02,.28,.04,.42,.07,.36,.05,.72,.1,1.07,.16,.22,.04,.44,.08,.67,.12,.03,0,.14,.02,.31,.05,.35,.05,.6,.08,.75,.11,.15,.03,.28,.06,.39,.09,.04,.01,.08,.02,.12,.03,.15,.02,.3,.04,.45,.06,.03,0,.12,.02,.26,.05,.09,.02,.22,.05,.38,.08,.23,.04,.46,.08,.69,.13m1.74-3.8c-.12,.61-.17,1.16-.15,1.64,.01,.35,.08,.72,.19,1.12,.11,.39,.26,.73,.44,1.01,.18,.28,.39,.49,.62,.63,.23,.14,.58,.26,1.06,.36,.16,.04,.39,.02,.67-.04,.29-.06,.56-.17,.83-.32,.15-.09,.36-.27,.63-.53,.27-.26,.5-.57,.69-.9,.31-.56,.54-1.18,.7-1.87,.22-.92,.24-1.73,.07-2.41-.17-.68-.43-1.2-.78-1.56-.34-.36-.73-.58-1.16-.67-.35-.08-.64-.09-.87-.06-.39,.06-.75,.2-1.07,.4-.33,.21-.64,.51-.92,.9-.18,.25-.4,.67-.66,1.25-.11,.24-.21,.59-.3,1.04m1.58,1.16c.04-.18,.09-.48,.17-.9,.03-.15,.05-.29,.08-.44,.2-.96,.38-1.63,.55-2.01,.17-.38,.37-.62,.6-.73,.23-.11,.43-.14,.6-.11,.14,.03,.28,.09,.41,.18,.14,.09,.24,.23,.32,.4,.07,.18,.1,.45,.09,.81-.01,.37-.07,.75-.16,1.16-.06,.29-.13,.58-.19,.87-.05,.27-.11,.54-.16,.81-.07,.32-.22,.84-.45,1.57-.14,.45-.28,.76-.43,.95-.14,.19-.3,.32-.46,.38-.16,.07-.34,.08-.54,.04-.19-.04-.36-.16-.5-.35-.14-.19-.21-.46-.2-.79,0-.33,.1-.95,.29-1.85m9.25,5.56c.3-.63,.49-1.05,.58-1.27,.09-.21,.16-.37,.21-.46,.05-.09,.08-.17,.1-.23,0-.03,0-.06,0-.1-.03-.02-.05-.03-.08-.05-.15-.03-.3-.07-.45-.1-.09,.11-.16,.2-.2,.26-.18,.24-.33,.38-.47,.42-.14,.04-.39,.01-.76-.09-.23-.07-.46-.13-.69-.2-.4-.1-.8-.19-1.2-.28-.24-.07-.48-.13-.73-.2,1-.49,1.84-.91,2.53-1.27,.95-.5,1.55-.83,1.78-.99,.23-.17,.45-.38,.65-.64,.14-.19,.25-.41,.32-.65,.17-.61,.08-1.18-.27-1.71-.35-.53-.93-.9-1.73-1.11-.97-.25-1.79-.15-2.45,.28-.43,.28-.69,.62-.79,1.01-.03,.12-.06,.27-.09,.45,.17,.04,.33,.08,.5,.12,.11-.31,.29-.58,.53-.83,.16-.17,.37-.29,.64-.37,.27-.07,.55-.07,.85,0,.29,.07,.54,.21,.76,.42,.21,.2,.33,.44,.37,.7,.03,.26,.01,.55-.07,.85-.07,.27-.23,.56-.48,.89-.25,.32-.64,.66-1.17,1.02-.76,.52-1.33,.89-1.72,1.1s-.98,.61-1.78,1.19c-.03,.14-.07,.28-.1,.42,.14,.03,.28,.07,.42,.1,.35,.08,.71,.16,1.06,.25,.22,.06,.44,.12,.66,.18,.03,0,.14,.03,.3,.07,.35,.08,.6,.13,.74,.17,.15,.04,.28,.08,.38,.12,.04,.01,.08,.03,.11,.04,.15,.03,.3,.07,.45,.1,.03,0,.12,.03,.26,.08,.09,.03,.22,.06,.38,.11,.22,.06,.45,.12,.67,.19m7.85-6.26c-.09,.09-.17,.13-.25,.14-.08,0-.24-.03-.49-.1-.52-.17-1.04-.33-1.55-.5-.65-.19-1.01-.29-1.1-.29-.16,0-.25,.04-.28,.14-.02,.08-.04,.15-.06,.22,0,.02-.02,.06-.04,.11-.03,.07-.06,.15-.08,.23-.04,.11-.09,.25-.15,.42-.04,.11-.11,.31-.19,.58-.09,.27-.14,.44-.17,.5s-.06,.14-.08,.22c-.21,.63-.42,1.26-.64,1.89-.01,.05,0,.09,.01,.13,.03,.05,.08,.08,.15,.1,.05,.01,.1,.02,.16,.01,.11-.03,.22-.06,.33-.08,.27-.07,.45-.11,.54-.11,.18,0,.39,.04,.61,.1,.44,.13,.77,.4,.99,.8,.22,.4,.26,.81,.13,1.23-.08,.24-.23,.48-.47,.72-.24,.24-.49,.39-.77,.45-.28,.07-.54,.06-.79-.01-.18-.06-.34-.14-.46-.26-.08-.08-.18-.25-.3-.53-.21-.46-.47-.73-.78-.82-.2-.06-.39-.04-.56,.04-.17,.09-.28,.22-.33,.39-.07,.24,0,.47,.18,.69,.32,.37,.77,.65,1.35,.82,.49,.15,.92,.24,1.29,.27,.36,.03,.72,0,1.07-.09,.23-.06,.52-.21,.86-.44,.34-.23,.59-.47,.74-.7,.15-.23,.28-.5,.38-.81,0-.02,.04-.21,.1-.58,.02-.1,0-.26-.06-.49-.08-.32-.18-.59-.31-.81-.17-.29-.4-.54-.68-.75-.28-.21-.59-.37-.92-.47-.23-.07-.45-.11-.68-.14-.22-.02-.44-.02-.66,0,.06-.19,.13-.37,.19-.56,.09-.26,.18-.52,.27-.77,.01-.05,.04-.13,.1-.23,.1,.03,.17,.05,.22,.06,.17,.05,.44,.14,.81,.27,.14,.05,.25,.09,.32,.11,.14,.04,.29,.08,.43,.12,.06,.02,.12,.04,.18,.06,.03,0,.32,.09,.86,.24,.06,0,.12-.02,.2-.08,.13-.1,.41-.52,.86-1.26-.13-.05-.21-.07-.24-.08-.08-.02-.17-.05-.25-.07m-39.78-11.79c-.12,.04-.37,.2-.55,.36-.16,.14-.49,.34-.73,.42-.23,.09-.63,.14-.88,.13-.26-.04-.63-.06-.82-.08-.19-.03-.58-.13-.86-.24-.29-.11-.75-.31-1.05-.43-.3-.14-.78-.31-1.06-.4-.28-.08-.8-.24-1.17-.35-.36-.1-.98-.24-1.37-.29l-.12-.02c-.39-.06-1.04-.13-1.44-.14h-.04c-.39-.02-1.01-.02-1.38,0-.37,.01-.94,.09-1.28,.15-.34,.06-.91,.18-1.24,.26-.34,.09-.91,.3-1.27,.47l-.17,.08c-.36,.17-.91,.49-1.24,.74l-.22,.16c-.32,.22-.81,.65-1.09,.92-.29,.28-.7,.77-.93,1.09-.24,.32-.59,.86-.78,1.2-.19,.34-.44,.94-.54,1.32-.11,.39-.28,1.02-.38,1.4l-.02,.07c-.1,.38-.23,1.01-.29,1.42v.12c-.08,.39-.2,1.04-.29,1.42l-.06,.23c-.09,.38-.26,.93-.36,1.25-.11,.29-.3,.74-.43,1.01-.13,.26-.39,.63-.58,.81-.19,.19-.54,.48-.78,.62-.23,.15-.24,.43-.04,.63,.22,.19,.5,.48,.62,.66,.14,.18,.38,.52,.55,.78,.16,.25,.42,.68,.54,.96,.13,.28,.32,.81,.43,1.19v.02c.11,.38,.23,.99,.27,1.36,.04,.36,.11,.94,.16,1.28,.04,.34,.14,.94,.21,1.34l.04,.28c.06,.39,.24,1.01,.39,1.38l.16,.44c.16,.38,.43,.96,.62,1.31l.24,.44c.19,.34,.57,.87,.83,1.16l.11,.11c.27,.3,.75,.73,1.06,.97l.26,.21c.32,.24,.86,.6,1.21,.8l.53,.29c.34,.2,.93,.49,1.29,.65l.46,.2c.36,.16,.98,.37,1.36,.49,.39,.1,1.03,.21,1.42,.22h.03c.39,.03,1.05,.03,1.45,0h.03c.39-.02,1-.09,1.34-.16,.34-.07,.93-.21,1.31-.32l.16-.06c.39-.11,.99-.29,1.36-.39,.36-.11,.86-.31,1.13-.48,.26-.14,.68-.28,.93-.31,.25-.02,.65-.04,.89-.04s.64,.07,.89,.16c.26,.09,.43-.16,.38-.56l-.22-2.13c-.04-.4-.35-.55-.67-.33l-.67,.45c-.33,.22-.89,.53-1.26,.69l-.78,.34c-.37,.16-.98,.38-1.36,.49l-.93,.25c-.38,.09-1.02,.19-1.42,.2l-1.04,.03c-.4,.02-1.04,0-1.45-.03l-.5-.04c-.39-.04-1.02-.19-1.39-.34l-.76-.31c-.36-.14-.94-.45-1.26-.68l-.59-.42c-.33-.23-.81-.66-1.08-.96l-.21-.23c-.26-.31-.63-.83-.81-1.18l-.24-.44c-.19-.34-.46-.94-.57-1.31l-.26-.8c-.12-.38-.26-1.01-.31-1.4l-.13-.98c-.04-.4-.09-1.04-.09-1.44l-.06-4.29c0-.41,0-1.06,.03-1.46l.15-2.97c.03-.4,.09-1.04,.16-1.44l.14-.83c.06-.4,.26-1.01,.42-1.38l.18-.38c.16-.38,.49-.94,.73-1.25l.22-.31c.24-.33,.69-.78,1-1.03l.57-.43c.31-.25,.87-.57,1.23-.74l.61-.28c.37-.15,.99-.32,1.38-.37l.43-.06c.39-.04,1.04-.06,1.44-.04l.97,.06c.39,.03,1.04,.09,1.43,.14l.36,.05c.39,.05,1.01,.21,1.39,.35l.44,.17c.37,.14,.96,.43,1.3,.63l.76,.45c.35,.19,.88,.56,1.18,.82l.29,.24c.3,.25,.81,.65,1.13,.89l.26,.21c.31,.24,.57,.11,.57-.28v-1.51c0-.39,.04-1.04,.09-1.43l.13-1.05c.05-.41-.02-.68-.14-.64m-1.05,16.38c.12,.31,.27,.79,.34,1.06,.08,.29,.12,.78,.09,1.11-.02,.33-.09,.83-.17,1.11-.07,.29-.28,.8-.45,1.15-.17,.35-.45,.83-.61,1.06-.17,.23-.46,.58-.64,.78-.19,.21-.56,.51-.86,.69-.28,.18-.76,.46-1.07,.64-.33,.17-.88,.41-1.24,.53-.36,.11-.89,.24-1.17,.29-.28,.02-.84,.06-1.24,.07h-.12c-.39,.02-.98,.02-1.32,0-.32-.01-.84-.05-1.15-.1-.3-.06-.81-.14-1.13-.2-.31-.05-.86-.19-1.19-.29-.34-.11-.84-.28-1.11-.39-.27-.1-.45-.51-.4-.91l.07-.56c.05-.39,.12-1.04,.16-1.43l.12-1.25c.03-.39,.09-1.03,.11-1.44l.04-.64c.02-.4,.04-1.04,.04-1.45v-.56c0-.4,0-1.04-.03-1.44l-.02-.9c-.02-.39-.04-1.04-.06-1.44l-.02-.59c-.02-.41-.05-1.06-.08-1.45l-.04-.6c-.03-.4-.09-1.04-.15-1.43l-.06-.49c-.05-.39-.15-1.04-.21-1.43l-.06-.4c-.07-.4,.21-.74,.6-.75h.09c.4-.03,.85-.08,1-.1,.16-.02,.49-.07,.77-.12,.26-.05,.81-.13,1.2-.19h.01c.41-.06,.99-.15,1.32-.19,.32-.05,.86-.1,1.19-.11,.33-.02,.83-.02,1.11-.02s.75,.07,1.04,.16c.29,.09,.83,.29,1.19,.43,.36,.14,.9,.45,1.21,.68,.31,.23,.69,.57,.84,.74,.17,.18,.45,.53,.6,.78,.17,.26,.38,.73,.49,1.04,.11,.31,.19,.9,.19,1.29v.04c0,.4-.11,1.03-.24,1.4l-.03,.12c-.14,.38-.41,.93-.63,1.24-.21,.3-.54,.66-.72,.81-.19,.14-.33,.34-.29,.46,.01,.12,.17,.27,.34,.34,.17,.06,.45,.25,.63,.4,.19,.15,.48,.42,.64,.6,.16,.18,.43,.53,.58,.79,.15,.25,.37,.71,.48,1.01m-11.09-9.59c-.07,.1-.12,.33-.11,.49,0,.16,.04,.53,.08,.78,.04,.28,.09,.7,.11,.92,.03,.22,.04,.64,.04,.91s.03,.71,.05,.98c.03,.27,.06,.58,.08,.68,.03,.12,.11,.26,.19,.34,.08,.08,.21,.18,.28,.19,.06,.03,.22,.06,.36,.09,.12,.02,.37,.05,.55,.06,.17,.01,.54,.03,.81,.03s.72-.01,1.02-.03c.29-.01,.75-.06,1.01-.12,.27-.06,.68-.18,.91-.25,.24-.09,.61-.26,.84-.39,.22-.13,.54-.35,.72-.49,.17-.14,.43-.4,.58-.57,.13-.18,.29-.48,.36-.67,.06-.18,.08-.56,.06-.83-.03-.29-.13-.7-.22-.92-.09-.23-.29-.54-.46-.71-.16-.16-.48-.39-.71-.51-.21-.11-.59-.28-.83-.38-.24-.09-.71-.22-1.09-.28-.36-.05-.86-.1-1.12-.1s-.77,.02-1.15,.04c-.38,.03-.87,.08-1.13,.13-.24,.04-.6,.16-.79,.26-.19,.09-.39,.26-.46,.36m8.99,11.82c.01-.33-.04-.84-.12-1.15-.09-.31-.26-.76-.39-1-.13-.24-.39-.58-.59-.74-.2-.17-.51-.45-.68-.6-.18-.15-.57-.36-.88-.47-.29-.11-.84-.26-1.19-.33-.35-.09-.93-.16-1.3-.16s-.91,0-1.21-.01c-.3-.01-.76-.03-1.03-.03s-.61,.01-.75,.03c-.14,.01-.31,.14-.39,.27-.07,.15-.14,.51-.15,.81,0,.31-.03,.88-.04,1.28v.05c-.01,.39-.04,1.04-.06,1.45v.07c-.03,.4-.08,1.05-.11,1.45h0c-.03,.4-.09,1.04-.13,1.45v.17c-.04,.39-.06,.8-.06,.87,0,.09,.04,.19,.1,.23,.06,.05,.19,.13,.29,.2,.09,.05,.3,.14,.46,.19,.17,.04,.45,.11,.64,.14,.19,.04,.59,.09,.9,.13,.29,.04,.79,.08,1.09,.08,.28,.02,.8-.02,1.13-.08,.34-.06,.86-.19,1.16-.3,.28-.11,.8-.36,1.14-.56l.12-.07c.34-.21,.79-.59,1.01-.84,.21-.26,.51-.77,.66-1.13l.06-.17c.16-.36,.3-.91,.31-1.23" fill="#fff"/><rect x="7.24" y="5" width="135.52" height="140" fill="none"/><rect x="7.24" y="5" width="135.52" height="140" fill="none"/></svg>