<svg xmlns="http://www.w3.org/2000/svg" width="100" height="100" fill-rule="evenodd" stroke-linejoin="round" stroke-miterlimit="2" clip-rule="evenodd" viewBox="0 0 100 100" xml:space="preserve"><path fill="#0c2340" fill-rule="nonzero" d="M49.35 7.446 36.647 36.239 3.736 39.585l24.659 22.053-6.987 32.335 28.591-16.638 28.594 16.638-6.989-32.335 24.66-22.051-32.912-3.347L50 5.973l-.65 1.473Z"/><path fill="#ffd100" fill-rule="nonzero" d="m37.202 37.611.411-.042L50 9.491l12.386 28.078 30.532 3.105L70.042 61.13l6.482 29.996-26.525-15.434-26.523 15.434 6.482-29.996L7.082 40.673l30.12-3.062Z"/><path fill="#fff" fill-rule="nonzero" d="M82.002 68.772v-2.037h-5.818v4.433h1.06l-1.282 2.058-1.087-2.058h.876v-4.433h-6.365v4.433h1.117l3.181 4.561v2.487h-1.427v4.615h6.893v-4.615h-1.309v-2.492l2.893-4.556h.964c.075 1.784 1.103 3.088 3.059 3.876l1.953.792c.897.36 1.332.854 1.332 1.514 0 .409-.122.877-1.076.877-.801 0-1.173-.425-1.173-1.337v-.443h-3.768v6.384h3.768v-.81a4.263 4.263 0 0 0 2.951 1.064c2.578 0 3.885-1.498 3.885-4.45 0-1.592-.286-2.683-.875-3.335-.561-.642-1.829-1.323-3.874-2.077-1.165-.423-1.756-.9-1.756-1.419 0-.279.101-.601.881-.601.329 0 .719.1.805.878l.085.602h3.954v-5.948h-3.768v.757a3.58 3.58 0 0 0-2.6-1.021c-1.797 0-2.962.772-3.479 2.301ZM16.744 79.27c.17 1.125.474 1.947.916 2.485.744.883 2.186 1.33 4.287 1.33 2.063 0 3.498-.467 4.265-1.385.771-.922 1.144-2.566 1.144-5.028v-3.467c0-2.66-.347-4.4-1.059-5.319-.718-.931-2.135-1.403-4.214-1.403-2.237 0-3.684.443-4.424 1.353-.728.889-1.082 2.637-1.082 5.346v2.014h-4.023v1.453c0 1.415-.581 1.578-1.018 1.578-.74 0-1.115-1.014-1.115-3.013 0-1.93.062-3.109.185-3.507.07-.209.244-.492.93-.492.479 0 1.115.177 1.115 1.715v.5h3.767v-6.695h-3.767v.568a3.485 3.485 0 0 0-2.424-.82c-1.696 0-2.845.593-3.415 1.762-.554 1.126-.823 3.312-.823 6.683 0 3.488.318 5.663.974 6.649.688 1.015 2.189 1.508 4.592 1.508 3.021 0 4.761-1.283 5.189-3.815Zm42.559-11.434c-.729.888-1.083 2.636-1.083 5.346v3.49c0 2.532.354 4.194 1.084 5.083.743.883 2.185 1.33 4.287 1.33 2.062 0 3.497-.467 4.265-1.385.771-.923 1.144-2.566 1.144-5.028v-3.467c-.001-2.661-.347-4.401-1.06-5.319-.718-.931-2.135-1.403-4.213-1.403-2.238 0-3.685.443-4.424 1.353Zm-8.48-1.101H45.57v4.433h1.309v7.048H45.57v4.615h5.643c2.468 0 4.069-.303 4.895-.927.847-.626 1.278-1.885 1.278-3.739-.001-1.434-.219-2.355-.667-2.813-.323-.336-.946-.614-1.886-.842a3.235 3.235 0 0 0 1.614-.756c.473-.489.703-1.367.703-2.685 0-1.759-.432-2.938-1.286-3.506-.823-.556-2.473-.828-5.041-.828Zm-5.502 0h-5.154v4.433h.852l-.953 4.77-.969-4.77h.871v-4.433H34.15v4.433h.889l-1.04 4.963-.979-4.963h.814v-4.433h-6.092v4.433h1.333l2.676 11.663h3.722l1.206-5.666 1.104 5.666h3.667l2.578-11.663h1.293v-4.433Zm-24.392 9.42V73.24c0-2.025.781-2.025 1.038-2.025.633 0 .935.243.979.79l.058 1.144v2.984c-.002 2.094-.752 2.094-.998 2.094-.266 0-1.077 0-1.077-2.072Zm41.643 0V73.24c0-2.025.781-2.025 1.038-2.025.634 0 .936.243.98.79l.058 1.144-.001 2.984c-.001 2.094-.751 2.094-.997 2.094-.267 0-1.078 0-1.078-2.072Zm-11.163-.544c1.507 0 1.682.665 1.682 1.164 0 .983-.529 1.441-1.662 1.441h-.393v-2.605h.373Zm.02-4.443c1.28 0 1.427.645 1.427 1.13 0 .795-.423 1.165-1.33 1.165h-.49v-2.295h.393Z"/><path fill="#0c2340" fill-rule="nonzero" d="M88.469 77.35c0-.842-.539-1.484-1.599-1.909l-1.953-.791c-1.882-.761-2.798-1.969-2.798-3.695 0-2.73 1.1-4.057 3.362-4.057a3.114 3.114 0 0 1 2.644 1.281l.383.505v-1.522h2.914v5.096h-3.157l-.033-.231c-.114-1.032-.73-1.251-1.227-1.251-1.136 0-1.307.645-1.307 1.028 0 .727.667 1.322 2.036 1.819 1.947.719 3.193 1.379 3.701 1.961.511.565.769 1.59.769 3.051 0 2.708-1.132 4.024-3.46 4.024a3.762 3.762 0 0 1-3.004-1.293l-.374-.429v1.469h-2.914v-5.533h2.914v.017c0 1.457.871 1.763 1.6 1.763 1.241 0 1.503-.708 1.503-1.303ZM7.316 81.34c-.597-.9-.9-3.057-.9-6.412 0-3.259.261-5.444.778-6.496.5-1.024 1.492-1.522 3.033-1.522 1.124-.001 1.931.346 2.467 1.062l.383.512v-1.322h2.915v5.841h-2.915v-.073c0-1.771-.839-2.142-1.541-2.142-.886 0-1.216.429-1.335.788-.139.449-.207 1.638-.207 3.638 0 2.314.504 3.439 1.542 3.439.659 0 1.444-.347 1.444-2.004v-1.026h3.27c.112.766.169 1.539.171 2.313 0 3.177-1.592 4.722-4.866 4.723-2.219 0-3.646-.444-4.239-1.319Zm10.672.143c-.654-.797-.986-2.416-.986-4.811v-3.49c0-2.57.332-4.278.988-5.076.644-.795 2.022-1.197 4.093-1.197 1.94 0 3.244.416 3.876 1.237.644.83.971 2.532.971 5.059v3.467c0 2.325-.351 3.924-1.044 4.754-.684.818-2.009 1.233-3.939 1.233-1.97 0-3.302-.396-3.959-1.176Zm41.643 0c-.653-.797-.985-2.415-.985-4.811v-3.49c0-2.571.332-4.278.988-5.076.644-.795 2.021-1.196 4.093-1.196 1.939 0 3.243.415 3.875 1.236.645.83.971 2.532.973 5.059v3.467c0 2.324-.352 3.924-1.046 4.754-.683.818-2.008 1.233-3.938 1.233-1.971 0-3.303-.396-3.96-1.176Zm21.945-14.321v3.58H80.5L77.415 75.6v3.042h1.309v3.764h-6.041v-3.764h1.427v-3.047l-3.384-4.853h-.914v-3.58h5.513v3.58h-1.157l1.765 3.338 2.078-3.338H76.61v-3.58h4.966Zm-36.681 0v3.58h-1.209l-2.578 11.664h-2.975l-1.237-6.348-.417-.004-1.35 6.352h-3.038l-2.678-11.664h-1.245v-3.58h5.239v3.58h-.906l1.282 6.499.418.003 1.362-6.502h-.987v-3.58h4.965v3.58h-.965l1.282 6.317h.418l1.263-6.317h-.946v-3.58h4.302Zm5.928 0c2.446 0 4.062.254 4.804.755.729.484 1.098 1.545 1.098 3.152 0 1.185-.197 1.989-.585 2.389-.38.399-1.225.674-2.508.822l-.01.421c1.846.304 2.536.683 2.791.948.362.371.545 1.217.546 2.516 0 1.711-.372 2.855-1.106 3.398-.74.559-2.301.843-4.64.843h-5.218v-3.764h1.309v-7.9h-1.309v-3.58h4.828Zm-30.32 6.078v2.915c0 1.658.506 2.498 1.503 2.498.943 0 1.423-.848 1.424-2.52v-2.996l-.039-.69-.02-.468c-.043-.548-.322-1.191-1.404-1.191-.971 0-1.464.825-1.464 2.452Zm41.644 0v2.915c0 1.658.505 2.498 1.503 2.498.943 0 1.423-.848 1.423-2.52v-2.996l-.039-.69-.019-.467c-.043-.549-.323-1.192-1.405-1.192-.972 0-1.463.825-1.463 2.452Zm-10.738 1.944h-.799v3.458h.819c1.726 0 2.087-1.016 2.087-1.867 0-.725-.365-1.591-2.107-1.591Zm.02-4.442h-.819v3.147h.916c1.452 0 1.756-.865 1.757-1.591 0-.71-.322-1.556-1.854-1.556Z"/><path fill="#fff" d="m31.955 39.689-.299.457c-.032.045-.058.086-.085.127H19.242c-.656-.006-3.522-1.504-4.319-4.085-1.479-4.788.215-8.263 1.227-10.34l-.64-.466c-3.448 3.311-8.374 8.042-8.374 14.712a14.72 14.72 0 0 0 .594 4.075c1.206 4.196 6.71 7.413 15.918 9.303l.095.019a.458.458 0 0 0-.015.104c0 .295.323.696 2.109 1.948a67.063 67.063 0 0 0 2.952 1.945 30.14 30.14 0 0 0 8.07 3.463l.747.19-.27-.721a3.654 3.654 0 0 0-.236-.457 32.564 32.564 0 0 0 6.616 2.573l.817.202-.357-.767a21.301 21.301 0 0 1-.229-.54c1.443.87 6.002 3.599 6.002 3.599s4.56-2.729 6.003-3.599c-.107.257-.202.477-.23.54l-.357.767.818-.202a32.564 32.564 0 0 0 6.616-2.573 3.8 3.8 0 0 0-.237.457l-.27.721.747-.19a30.147 30.147 0 0 0 8.071-3.463 66.443 66.443 0 0 0 2.951-1.945c1.786-1.252 2.11-1.653 2.11-1.948a.523.523 0 0 0-.016-.104l.096-.019c9.207-1.89 14.712-5.107 15.917-9.303a14.72 14.72 0 0 0 .594-4.075c0-6.67-4.925-11.401-8.373-14.712l-.641.466c1.013 2.077 2.707 5.552 1.227 10.34-.797 2.581-3.663 4.079-4.319 4.085H68.328l-.085-.127-.3-.457H31.955Z"/><path fill="#0c2340" d="M67.537 40.473c.041.064.239.604.239.604H80.66c.914 0 4.148-1.619 5.084-4.651.401-1.274.607-2.602.61-3.938a13.602 13.602 0 0 0-1.003-5.034c1.856 1.862 3.637 3.875 4.886 6.168a13.298 13.298 0 0 1 1.727 6.449 14.04 14.04 0 0 1-.57 3.875c-1.102 3.835-6.537 6.937-15.306 8.737a4.472 4.472 0 0 0-.56.134l.003-.004-.017.01a.335.335 0 0 0-.167.115.283.283 0 0 0-.06.13l-.002.008.002-.003a.432.432 0 0 0-.011.087c.007.122.027.242.061.36-.42.505-2.994 2.265-4.649 3.282a29.702 29.702 0 0 1-6.935 3.114c.173-.299.35-.614.469-.87l.576-1.249-1.16.742c-2.429 1.553-5.443 2.566-6.853 2.989.174-.445.333-.896.346-.964l.167-.885-7.349 4.413-7.349-4.413.168.885c.013.068.171.519.345.964-1.41-.423-4.423-1.436-6.853-2.99l-1.16-.742.577 1.25c.118.256.295.571.468.87a29.702 29.702 0 0 1-6.935-3.114c-1.655-1.017-4.229-2.777-4.649-3.282.034-.117.054-.238.061-.36a.516.516 0 0 0-.01-.087l.002.003-.003-.008a.302.302 0 0 0-.059-.13.351.351 0 0 0-.168-.115l-.016-.01.002.004a4.43 4.43 0 0 0-.56-.134c-8.768-1.8-14.204-4.902-15.306-8.737a14.001 14.001 0 0 1-.569-3.875 13.305 13.305 0 0 1 1.726-6.449c1.249-2.293 3.03-4.306 4.886-6.168a13.643 13.643 0 0 0-1.003 5.034c.003 1.336.209 2.664.61 3.938.937 3.032 4.171 4.651 5.084 4.651h12.884s.199-.54.24-.604h35.175Z"/><path fill="#fff" fill-rule="nonzero" d="M33.073 45.465c-1.558 2.494-2.983 5.425-5.517 7.984H25.54a39.54 39.54 0 0 0 7.507-11.921h33.805a39.518 39.518 0 0 0 7.506 11.921h-2.017c-2.533-2.559-3.957-5.49-5.515-7.984H33.073ZM87.016 30.61c2.065 2.425 3.453 5.281 3.453 7.713 0 2.667-1.386 5.165-4.739 6.771a7.637 7.637 0 0 1-1.88.653H69.915a24.097 24.097 0 0 1-1.854-3.8h13.294c1.024 0 3.004-1.411 3.996-2.875 1.121-1.652 1.566-3.673 1.702-5.52a22.05 22.05 0 0 0-.037-2.942Zm-74.134 0c-2.065 2.425-3.453 5.281-3.453 7.713 0 2.667 1.386 5.165 4.739 6.771a7.63 7.63 0 0 0 1.881.653h13.935a24.267 24.267 0 0 0 1.853-3.8H18.544c-1.025 0-3.005-1.411-3.996-2.875-1.122-1.652-1.566-3.673-1.702-5.52a21.883 21.883 0 0 1 .036-2.942Z"/><path fill="#ffd100" fill-rule="nonzero" d="M49.949 61.917c-.634.006-11.305-7.485-12.236-8.141.146.655.761 2.747 1.186 3.881v.093a45.324 45.324 0 0 1-8.368-5.483l.909 3.441s-3.919-2.259-3.884-2.259H25.54c2.476 1.823 5.695 3.935 8.416 5.006-.028-.125-.675-2.398-.739-2.568a59.956 59.956 0 0 0 8.1 4.556c-.151-.529-.973-2.568-1.153-3.198 1.015.705 9.462 6.285 9.785 6.276.322.009 8.771-5.571 9.785-6.276-.18.63-1.002 2.669-1.153 3.198a59.956 59.956 0 0 0 8.1-4.556c-.064.17-.711 2.443-.739 2.568 2.721-1.071 5.94-3.183 8.417-5.006h-2.017c.035 0-3.883 2.259-3.883 2.259l.908-3.442a45.245 45.245 0 0 1-8.368 5.484v-.093c.425-1.134 1.04-3.226 1.187-3.881-.931.656-11.603 8.147-12.237 8.141Z"/><path fill="#0c2340" fill-rule="nonzero" d="M90.438 37.081v.625c.018.207.031.414.031.617 0 2.667-1.386 5.166-4.739 6.771a7.637 7.637 0 0 1-1.88.653H69.937a31.3 31.3 0 0 0 3.546 4.993c.305.366 1.051 1.261 1.286 1.261.237 0 6.839-2.032 10.662-3.821 4.195-1.963 5.818-4.738 5.818-7.701a8.42 8.42 0 0 0-.811-3.398Z"/></svg>