<svg viewBox="0 0 100 100" xmlns="http://www.w3.org/2000/svg" xmlns:xlink="http://www.w3.org/1999/xlink" xml:space="preserve" fill-rule="evenodd" clip-rule="evenodd" stroke-linejoin="round" stroke-miterlimit="2"><g transform="translate(-.006 13.394) scale(.02352)"><path d="M2441.55-.22c-59.09 0-119.67 12.26-185.22 37.47-60.55 23.29-117 54.41-164.24 81.77a57.695 57.695 0 0 1-28.93 7.78c-.84 0-1.68-.02-2.51-.05-40.05-1.75-80.7-12.17-123.73-23.19-19.45-4.98-39.56-10.14-60.21-14.63-82.35-19.19-167.36-34.04-252.67-44.12-89.11-10.53-178.66-15.88-266.16-15.88-95.39 0-189.05 6.35-278.36 18.88-94.85 13.31-185.94 33.76-270.75 60.79-187.55 59.77-346.39 151.76-472.13 273.42-47.02 45.49-85.9 97.75-115.57 155.34-30.07 58.37-49.82 120.59-58.71 184.94-7.86 56.91-7.15 113.72 2.12 168.91-12.81 20.48-34.44 43.35-57.32 67.53-34.5 36.47-70.18 74.18-90.55 118.38-12.86 27.91-18.18 55.86-15.79 83.08 2.68 30.54 14.96 60.02 36.5 87.62 0 0 29.69 41.2 62.53 69.02 46.78 39.64 106.87 60.58 173.86 60.58 81.67 0 170.33-31.58 237.17-84.48 51.17-40.49 105.35-67.68 165.64-83.11 54.07-13.84 105.93-16.77 156.09-19.61 42.59-2.41 82.93-4.69 121.47-13.48-5.49 36.3-7.96 69.57-9.06 89.84-2.49 46.24-1.91 93.73 1.7 137.33 4.03 48.81 11.65 92.3 22.65 129.27 20.07 67.48 51.52 112.36 93.45 133.37a77.724 77.724 0 0 0 34.65 8.2c12.94 0 25.75-3.29 37.04-9.52l.22-.12c4.1-2.29 8.09-4.92 11.83-7.81 12.49-9.62 22.7-22.56 29.53-37.42 21.39-46.49 41.47-84.92 61.38-117.46 20.2-33.01 40.29-60.1 61.43-82.82 20.73-22.28 42.51-40.39 66.58-55.35 23.96-14.89 50.41-26.81 80.86-36.44 45.78-13.97 82.57-46.84 103.6-92.59 7.6-16.53 12.88-34.28 15.75-52.37.71.04 1.43.09 2.14.13 9.34.57 18.37 1.13 26.99 1.98 65.21 65.97 134.88 128.13 202.4 188.38 25.9 23.11 52.69 47.01 78.66 70.63l2.02 1.83 2.19 1.62c11.53 8.54 47.22 43.67 81.74 77.64 60.23 59.28 142.72 140.47 221.41 206.5 104.78 87.92 175.93 127.13 230.68 127.13 34.22 0 62.91-15.13 80.79-42.62 16.05-24.67 20.28-55.4 11.6-84.32-8.6-28.62-25.62-51.3-39.3-69.53l-1.68-2.24-.53-.66c-37.24-46.55-78.52-118.56-113.24-197.56-8.63-19.63-16.17-38.11-22.65-55.13 41.64 20.7 83.87 43.45 126.36 68.07 70.98 41.13 142.85 87.57 213.63 138.03 63.3 45.13 124.76 92.76 182.67 141.56 51.09 43.05 98.85 86.67 138.16 126.16 5.77 6.11 64.78 68.57 69.6 73.68 96.6 106.34 167.6 200.06 194.82 257.15 5.76 12.08 3.73 16.46 2.75 18.57-1.6 3.46-6.41 10.74-20.56 20.67-13.07 9.17-31.08 18.42-53.53 27.49-45.8 18.51-103.68 33.7-154.74 47.1-20.35 5.34-39.57 10.39-57.76 15.53-38.88 10.99-80.8 28.1-121.25 49.48-46.61 24.64-89.04 53.62-126.1 86.13-43.72 38.36-78.58 80.58-103.61 125.48-29.41 52.76-45.05 108.87-46.49 166.78l-.04 1.62.06 1.62c.66 18.79 5.74 35 15.09 48.2 13.46 18.98 34.73 29.87 58.35 29.87 1.25 0 2.53-.03 3.79-.09 14.66-.72 28.99-5.62 41.47-14.18 53.59-36.68 104.09-62.02 154.36-77.43 41.14-12.61 81.4-18.49 126.69-18.49 39.07 0 77.63 4.5 114.92 8.85 38.17 4.45 77.64 9.06 118.37 9.06 59.31 0 112.74-10.06 164.66-31.3 39.64 62.49 94.32 109.73 165.93 143.58 74.91 35.41 158.73 51.88 239.78 67.81 128.31 25.21 249.5 49.02 325.79 142.72 9.7 11.91 22.16 21.17 36.04 26.78 9.92 4.02 20.09 6.05 30.22 6.05 21.93 0 42.31-9.48 57.39-26.69 9.12-10.42 16.16-23.45 20.9-38.73 5.26-16.89 6.82-34.96 4.63-53.68-5.75-49.16-21.59-99.63-47.09-150.01-22.19-43.83-51.65-88.17-90.07-135.53-69.19-85.31-157.63-167.72-243.16-247.41-73.93-68.89-150.37-140.12-211.55-210.89-32.06-37.09-57.58-71.18-78.01-104.22-22.1-35.74-37.67-69.26-47.59-102.46-58.27-194.98-103.13-334.12-145.45-451.16-45.48-125.77-88.4-226.54-135.1-317.13-45.45-88.17-95.9-169.35-158.78-255.47-53.33-73.05-115.13-149.64-213.31-264.38-28.88-33.75-55.27-64.19-78.56-91.05-99.45-114.69-154.23-177.87-191.36-253.74-13.36-27.3-10.29-41.97-6.82-50.64 5.24-13.06 17.87-26.54 37.53-40.05 22.11-15.19 53-30.14 91.82-44.43 21.52-7.92 38.69-25.06 47.11-47.05 7.28-19.02 7.65-40.16 1.03-59.52-11.85-34.64-43.87-66.74-97.87-98.17-35.47-20.65-75.54-37.79-99.98-45.81-46.21-16.7-94.16-25.18-142.5-25.18z" fill="rgb(252,20,29)" fill-rule="nonzero"/><path d="M3481.82 2059.11c-216.01-722.75-308.14-878.35-641.87-1268.39-153.32-179.18-227.89-255.01-277.43-356.2-49.14-100.38 24.89-162.93 152.53-209.91 14.69-5.41 20.59-23.29 15.53-38.08-16.83-49.17-125.28-97.62-164.16-110.21-162.6-59.19-309.09 9.73-447.11 89.68a111.923 111.923 0 0 1-61.01 14.99c-65.37-2.86-127.71-24.82-193.5-39.1C1379.53 28.69 749.75 57.81 374.38 421.01c-85.42 82.63-141.99 190.98-158.26 308.7-7.07 51.19-6.67 103.46 2.39 155.44.42 2.4.7 4.82.7 7.25.01 2.64-.23 5.24-.67 7.81-1.11 6.42-3.6 12.52-7 18.08-55.39 90.65-219.75 182.95-131.44 296.12 30.52-42.84 101.15-47.02 155.49-56.17 262.91-44.97 167.8-379.83 433.97-381.77-32.8 7.1-83.99 20.41-120.84 69.55-48.72 64.96-102.86 315.12-298.8 340.86-62.04 10.04-94.17 13.32-116.69 26.63-16.84 9.95-26.2 22.25-30.31 28.2.15.25.3.48.42.7 7.62 13.25 19.28 23.18 31 32.49 98.06 83.77 252.21 47.2 342.86-24.54 235.46-186.32 446.34-54.26 563.67-180.73-58.81 100.85-69.75 490.24 46.26 548.38 6.67 3.35 14.63 3.29 21.16-.32 1.78-.99 3.48-2.12 5.1-3.37 5.82-4.47 10.31-10.44 13.38-17.13 86.2-187.37 165.66-277.77 303.51-321.24 67.57-20.47 93.16-97.25 80.58-154.14 36.03 8.2 73.54 5.6 109.65 11.83 92.26 95 193.94 181.11 291.87 270.17 64.48 47.78 463.96 494.65 536.83 382.67 7.51-11.55 9.07-25.92 5.11-39.12-6.01-19.99-19.33-37.36-31.91-54.13-90.17-112.7-172.13-317.98-177.47-385.01 324.36 137.27 628.93 378.77 783.74 534.45.02.02 70.4 74.53 70.46 74.6 63.96 70.39 164.78 188.44 203.98 270.65 58.67 123.04-176.79 165.01-318.06 204.94-131.43 37.14-352.77 168.35-357.95 377 .56 16.09 7.09 26.31 20.38 25.67 4.81-.24 9.43-2.01 13.4-4.73 329.24-225.38 482.32 2.94 732.64-135.74 142.79 308.48 556.94 153.12 750.64 391.02 3.82 4.69 8.69 8.47 14.29 10.73 19.18 7.8 30.82-7.34 36.35-25.14 3.14-10.09 3.79-20.78 2.56-31.28-39.9-341.38-615.66-607.02-715.55-941.28zM1661.64 140.66c229.31 43 311.28 118.95 447.11 84.99 65.52-16.38 142.83-83.82 203.72-109.54 118.75-50.16 254.33-28.18 379.42 75.01-11.43 1.9-22.46 4.43-33.26 7.75-18.84 5.79-44.17 9.37-68.74.16-52.21-19.58-100.17-26.86-149.27-17.28-31.64 6.17-61.91 17.98-89.77 34.19-234.23 136.27-264.22 108.2-599.61 14.04-345.47-96.99-824.32-48.28-824.32-48.28 247.53-60.1 558.09-74.16 734.72-41.04zM613.35 678.11c-103.19 190.27-237.96 74.73-363.91 202.83 71.69-133.53 180.24-68.74 277.93-146.52 54.69-53.4 111.64-180.28 180.16-208.85 33.74-15.23 97.33-26.41 116.13 14.57 2.53 5.51 3.86 11.51 4.23 17.56 1.52 25.16-5.99 43.91-26.17 56.93-36.7 23.37-79.64 31.41-101.01 1.37-3.05-4.29-4.73-9.47-4.38-14.72.57-8.34 5.52-13.96 12.96-16.89 4.79-1.9 20.76-5.54 20.76-5.59-6.24-5.14-16.38-9.21-31.67-3.8-34.92 12.37-64.67 74.4-85.03 103.11zm611.08 466.47c-53.82 65.42-37.39 150.31-32.98 229.28.7 12.49-3.08 24.8-10.54 34.84-37.46 50.34-63.8 108.53-88.06 166.03-72.72-160.92-56.01-408.36-.79-503.18 7.82-13.42 22.33-21.5 37.86-21.38 52.53.41 115.96 15.86 141.7 22.07 29.69 7.17 62.45 18.43 82.92 24.57-47.11 10.24-105.33 17.05-130.11 47.77zm-179.1-131.25c-44.34 25.76-88.22 61.84-138.17 72.22-87.42 18.16-170.08 6.61-255.41 25.9-11.98 2.71-23.6 6.81-34.66 12.15-171.31 82.86-274.08 219.07-456.22 143.14 251.71-9.98 250.64-92.93 347.04-206.78 106.58-128.92 270.96-52.12 417.68-101.36 84.28-33.9 123.46-121.08 223.17-132.06 120.8-13.31 279.48 74.73 383.62 78.28 6.7 65.13 27.23 126.78 59.55 183.34-159.26-5.65-424.57-138.78-546.6-74.83zm1336.21 712.89c1.62 1.29.17 3.87-1.77 3.13-42.82-16.37-108.78-68.29-157.13-108.38-125.92-104.42-201.24-183.74-306.23-286.62-102.89-100.81-273.2-248.79-308.01-349.11-45.54-131.26 10.33-226.34 72.91-272.28 4.07-2.99 9.05 2.28 5.89 6.22-65.6 81.57-64.05 179.21-16.34 275.27 51.34 103.37 212.33 258.46 365.47 412.56 160 161.01 193.38 198.37 345.21 319.21zm-144-464.72c-15.22-156.67-151.06-204.61-291.31-300.84 149.91 45.08 395.16 174.03 395.16 174.03 478.08 240.57 829.12 736.32 969.99 980.03 1.55 2.63 11.37 18.62 13.2 22.32-262.7-394.12-649.68-700.93-1087.04-875.54zm1181.59 1354.51c-5.64-11.56-19.39-14.12-30.5-9.52-217.89 149.43-400.39-78.05-720.26 133.03 87.26-340.87 469.38-260.21 656.55-433.64v.01c-84.48 147.43-257.56 137.07-381.44 226.21 202.54-2.51 247.35 115.64 465.63-20.15 26.23-7.12 36.88 19.5 47.36 38.14 41.4 71.71 91.26 141.31 159 190.16 83.3 50.8 174.28 85.8 270.62 101.35 70.29 15.46 148.67 30.75 217.19 68.94 28.62 15.95 47.94 44.42 53.31 76.74.35 2.12.74 4.25 1.17 6.39-207.16-209.36-604.85-78.5-738.63-377.66z" fill="white" fill-rule="nonzero"/></g></svg>