<svg xmlns="http://www.w3.org/2000/svg" xml:space="preserve" width="100" height="100" fill-rule="evenodd" stroke-linejoin="round" stroke-miterlimit="2" clip-rule="evenodd" viewBox="0 0 100 100"><path fill="#6c1d45" fill-rule="nonzero" d="M77.353 28.82C81.107 17.16 66.533 7.673 58.927 5.5c0 0 1.086 2.113 1.493 3.173 0 0-14.587-7.773-28.093.487 0 0 2.713.567 3.826.98 0 0-11.46 1.433-17.273 13.727 0 0 3.507-1.254 5.247-1.614-5.714 5.514-13.42 21.86-1.934 37.627 0 0 .154-2.093.56-3.86 0 0 .394 9.14 12.827 14.647 0 0-.787-3.367-.84-6.42 0 0 4.14 11.733 20.607 9.126 0 0-3.7-2.766-4.9-4.693 5.193 3.413 12.513 4.327 19.853-1.453-11.14-1.834-12.36-6.367-12.353-7.767 5.24 1.007 8.586-.267 9.753-.827 17.913 1.414 20.667-18.026 9.647-29.813h.006ZM22.427 86.247l.506-1.66H19.12c-.94 0-1.493-.154-1.74-.48-.187-.254-.207-.64-.067-1.187h6.127l.507-1.66h-6.094c.474-1.067 1.38-1.567 2.834-1.567h3.733l.5-1.66h-3.86c-3.44 0-5.453 1.334-6.32 4.207-.453 1.493-.213 2.6.713 3.28.9.667 1.96.72 3.147.72h3.833l-.006.007ZM29.8 78.04l-7.093 8.207h2.713l1.507-1.887h4.38l.393 1.887h2.753l-2.14-8.207H29.8Zm-1.5 4.627 2.093-2.594.567 2.594H28.3Zm18.093 1.906H42.58c-.94 0-1.487-.153-1.733-.48-.187-.253-.214-.64-.067-1.18h6.113l.5-1.66h-6.08c.474-1.066 1.374-1.56 2.834-1.56h3.726l.5-1.66H44.52c-3.44 0-5.44 1.334-6.313 4.207-.454 1.493-.214 2.593.713 3.273.9.667 1.953.72 3.14.72h3.827l.5-1.66h.006Zm38.42-1.66.5-1.66h-6.08c.474-1.066 1.38-1.56 2.834-1.56h3.726l.5-1.66H82.44c-3.44 0-5.44 1.334-6.313 4.207-.454 1.493-.214 2.593.713 3.273.9.667 1.953.72 3.14.72h3.827l.5-1.66H80.5c-.94 0-1.493-.153-1.733-.48-.187-.253-.214-.64-.067-1.18h6.113Zm-70.986-.8c-.387-.526-1.22-.753-2.707-.753H8.193c-.506 0-.84-.093-.966-.26-.074-.1-.08-.24-.027-.42.2-.66.76-.94 1.88-.94h5.56l.513-1.693H9.187c-2.62 0-4.027.78-4.554 2.526-.213.7-.173 1.234.127 1.634.413.56 1.313.82 2.813.82h2.6c.647 0 1.014.08 1.14.253.074.1.08.26.014.48-.174.58-.674.793-1.847.793H3.847l-.514 1.694H9.4c2.607 0 4.007-.76 4.527-2.474.22-.733.193-1.28-.1-1.666v.006Zm45.126 3.4c.9.667 1.94.72 3.2.72H67l1.513-4.98h-5.506l-.507 1.68h2.947l-.48 1.58h-2.38c-.82 0-1.34-.166-1.594-.506-.26-.354-.266-.934-.006-1.774.546-1.793 1.486-2.56 3.153-2.56h4.847l.5-1.646h-4.934c-3.44 0-5.446 1.333-6.313 4.206-.453 1.494-.213 2.594.707 3.274l.006.006Zm10.114-.146c.76.806 1.853.873 3.313.873h2.893l.48-1.593h-2.786c-.854 0-1.447-.08-1.767-.467-.207-.247-.1-.66.093-1.307l1.467-4.84h-2.5l-1.46 4.814c-.333 1.106-.393 1.833.26 2.52h.007Zm21.54-5.64h5.553l.513-1.694H90.72c-2.613 0-4.02.78-4.547 2.527-.213.7-.166 1.233.127 1.633.42.56 1.307.82 2.807.82h2.6c.646 0 1.006.08 1.14.254.073.1.08.26.013.48-.173.58-.673.793-1.847.793h-5.62l-.513 1.693h6.06c2.607 0 4-.76 4.52-2.473.22-.733.193-1.28-.093-1.667-.387-.52-1.22-.753-2.7-.753h-2.92c-.5 0-.834-.093-.96-.26-.074-.1-.087-.24-.027-.42.193-.647.773-.94 1.873-.94l-.026.007ZM53.26 78.033l-7.08 8.2h2.707l1.506-1.886h4.374l.393 1.886h2.747l-2.14-8.2H53.26Zm-1.5 4.627 2.087-2.593.566 2.593h-2.66.007Zm-30.44 7.787-2.02 3.226-.12-3.226h-1.3l-1.24 4.206h.9l.887-3.306.14 3.306h.94l2.04-3.273-1.034 3.273h.867l1.24-4.206h-1.3Zm3.66 0-3.013 4.206h.933l.667-1h1.826l.094 1h.986l-.553-4.206h-.94Zm-.907 2.453 1.094-1.62.16 1.62h-1.254Zm6.174.567-.834-3.02h-1.12l-1.24 4.206h.907l.893-3.18.874 3.18h1.026l1.24-4.206h-.9l-.846 3.02Zm7.333-1.42-.567-1.607h-.993l.907 2.347-.547 1.86h.887l.546-1.86 2.314-2.347H39.1l-1.527 1.607h.007Zm10.76-1.607-1.86 3.233V90.44h-1.033l-1.774 3.233-.02-3.233h-.94l.16 4.207h1.08l1.707-3.14-.027 3.14h1.087l2.54-4.207h-.92Zm2.82 0-3.013 4.207h.933l.667-1h1.826l.094 1h.986L52.1 90.44h-.94Zm-.907 2.453 1.094-1.62.16 1.62h-1.254Zm13.6-2.453-1.24 4.207h.927l1.24-4.207h-.927Zm-29.926 0h-.887s-.6 2.033-.793 2.713c-.194.68-.134 1.487 1.153 1.487h1.293l.207-.693h-1.14c-.493 0-.78-.16-.62-.767.16-.607.787-2.74.787-2.74Zm23.62.227a.867.867 0 0 0-.6-.234h-2.474l-1.24 4.207h.887l.487-1.653h1.04l.44 1.653h.993l-.54-1.773c.613-.114 1.113-.654 1.22-1.287l.02-.12a.874.874 0 0 0-.24-.793h.007Zm-.72 1.053a.665.665 0 0 1-.307.433c-.1.06-.207.1-.32.1h-1.373l.313-1.066h1.247a.61.61 0 0 1 .3.066c.153.094.173.267.14.467Zm5.42-1.053a.867.867 0 0 0-.6-.234h-2.474l-1.24 4.207h.887l.487-1.653h1.04l.44 1.653h.993l-.54-1.773c.613-.114 1.113-.654 1.22-1.287l.02-.12a.874.874 0 0 0-.24-.793h.007Zm-.72 1.053a.665.665 0 0 1-.307.433c-.1.06-.207.1-.32.1h-1.373l.313-1.066h1.247a.61.61 0 0 1 .3.066c.153.094.173.267.14.467Zm6.373 1.74-.833-3.02h-1.12l-1.24 4.207h.906l.894-3.18.873 3.18h1.027l1.24-4.207h-.9l-.847 3.02Zm3.927-1.313-.22.746h1.186l-.293.994h-1c-.42 0-.653-.12-.7-.38-.047-.26-.02-.567.087-.92v-.014c.1-.346.26-.666.466-.96.207-.293.52-.44.94-.44H74.2l.213-.726h-1.906c-.634 0-1.16.16-1.574.473-.413.313-.733.8-.973 1.467-.02.06-.04.12-.06.173-.02.06-.033.12-.053.18-.08.287-.107.573-.094.847.014.273.107.506.287.7a.95.95 0 0 0 .547.3c.213.04.44.06.686.06h1.907l.733-2.494H71.82l.007-.006Zm4.82-1.714-3.014 4.207h.934l.666-1h1.827l.093 1h.987l-.553-4.207h-.94Zm-.907 2.454 1.093-1.62.16 1.62H75.74Zm6.227-.747h-1.62l.5-1.707h-.887l-1.24 4.207h.887l.52-1.76h1.62l-.52 1.76h.886l1.24-4.207h-.886l-.5 1.707Z"/><path fill="#fff" fill-rule="nonzero" d="M53.127 40.473c.966 2.414.28 4.4.28 4.4-2.607-7.76-7.374-7.866-7.374-7.866 1.214 2.54 4.534 8.8 9.347 12.533 1.267-6.767-2.253-9.067-2.253-9.067Zm4.706-10.966c-1.226.006-2.206-1.107-2.033-2.327.313.653 1.253.913 1.86.487-.56-.98-1.067-2.054-1.587-3.187-3.9 2.4-.346 8.273 3.6 5.887-.34-.334-.653-.694-.946-1.074a2.018 2.018 0 0 1-.894.207v.007Zm15.034-.36c-3.174 0-4.514 3.973-10.547 2.926 4.187 3.567 3.62 5.854 3.62 5.854-14.273-12.027-32.473-2.14-32.473-2.14 13.093 1.62 10.42 21.46 30.753 21.253-3.88-6.36-2.853-12.507-6.147-14.72-.946 7.373 2.787 12.4 2.787 12.4-11.007-1.927-17.587-17.913-17.587-17.913-2.613-.92-5.3-1.327-5.3-1.327 18.454-3.187 17.967 2.573 24.44 5.507C70.34 44.067 72.78 52.98 67.82 55.28c20.427 3.213 13.3-24.12 5.047-26.14v.007Zm-.227 4.806c-1.293.04-2.727.687-2.74 2.367 0 .153-.187.227-.293.12-2.107-2.027.826-4.367 3.14-2.82.146.1.073.327-.1.333h-.007Zm-9.467-24.18c1.994 1.94 2.667 4.72 2.667 4.72C60.58 10.467 48.993 5.64 38.147 9.2c3.86.447 5.98 1.82 5.98 1.82-13.247-.073-19.507 8.36-19.507 8.36 3.987-1.227 7.12-.64 7.12-.64-1.627 1.133-19.087 14.013-10.48 34.707.407-6.46 4.427-9.827 4.427-9.827S20.78 58.147 32.18 65.793c-1.12-6.993 2.273-12.52 2.273-12.52s-.986 16.147 14.92 17.907c-1.713-1.127-5.16-6.66-3.253-11.713 6.513 12.973 17.467 8.7 17.467 8.7s-9.5-2.474-8.52-9.567c-6.08-2.527-9-5.687-11.067-8.813-2.173 1.92-4.04 5.393-4.04 5.393-1.633-5.32 0-11.9 0-11.9-5.753.107-9.247 3.773-9.247 3.773s.174-4.82 2.9-8.513c-1.986-.76-4.486-1.307-7.713-1.587 6.707-4.66 13.993-7.2 21.247-7.52C45.52 27.1 45.66 25.54 45.66 25.54c3.327 3.907 6.673 4.707 6.673 4.707-3.513-3.574-1.233-8.034-1.233-8.034-7.193-5.42-16.267 1.727-16.267 1.727C42.587 11.987 53.6 19.48 53.6 19.48c-2.1-3.513-5.767-5.913-5.767-5.913 12.147 3.56 8.707 16.013 17.02 16.013 3.88 0 2.727-5.22 1.434-7.587 3.08 2.307 3.206 4.774 3.206 4.774 1.274-4.12-3.16-9.354-3.16-9.354 7.154 4.794 6.414 10.48 6.414 10.48 1.273.12 1.886.887 1.886.887C78.927 19.973 64.78 10.5 63.18 9.773h-.007Z"/></svg>