<svg viewBox="0 0 100 100" xmlns="http://www.w3.org/2000/svg" xmlns:xlink="http://www.w3.org/1999/xlink" xml:space="preserve" fill-rule="evenodd" clip-rule="evenodd" stroke-linejoin="round" stroke-miterlimit="2"><path d="m85.491 24.719.062-.253 8.625-5.988-7.197-.134 1.178-.844-11.125-6.138-6.096-5.393L57.3 0 50 1.975 42.688 0 29.056 5.969l-6.093 5.394L11.828 17.5l1.181.844-7.196.134 8.625 5.988.062.25-12.066 2.053 9.035 4.365-7.213 4.772 9.469 2.01.031.418-6.828 7.419 7.897.1.188 1.266 2.374.662-.875 2.082 15.138 8.406 8.488 12.806 9.856-1.919 9.856 1.919 8.484-12.806 15.141-8.407-.875-2.081 2.375-.662.187-1.266 7.894-.1-6.828-7.419.031-.418 9.469-2.01-7.212-4.772 9.037-4.365-12.062-2.05Zm5.515 10.325-6.431 1.387-.45 2.928 5.172 4.75-5.666-.125-.256 1.719-3.216.9 1.041 2.469-14.116 7.937-8.04 12.175-9.047-1.756-9.047 1.756-8.041-12.175-14.118-7.937 1.04-2.469-3.212-.9-.257-1.719-5.665.125 5.172-4.75-.453-2.928-6.429-1.387 7.085-4.344-8.041-3.15 8.703-1.291-.293-1.178 1.731-.694-7.444-4.55 8.25.563-3.791-2.703L24 12.837l6.106-5.403 12.738-5.315 7.153 1.734 7.153-1.734 12.737 5.315 6.107 5.403 8.809 4.86-3.791 2.706 8.25-.566-7.446 4.55 1.734.694-.294 1.178 8.703 1.291-8.037 3.15 7.084 4.344Zm-6.14-6.703-5.488-.253.803-1.61-2.734-2.025 5.14-2.406-6.437 1.412-.656-1.862-1.769-4.316-3.938-2.825-.331-2.053-12.137-3.166-.047-.006a.19.19 0 0 0-.188.172L56 19.219a.187.187 0 0 0 .097.187l5.012 2.688 3.807-1.063 3.19-4.34 4.532 11.75a.966.966 0 0 1 .056.375l-.11 3.571-9.268 9.932-4.71 17.793-.572 2.854a.432.432 0 0 1-.584.318L50 60.422l-7.459 2.872a.44.44 0 0 1-.585-.322l-.572-2.853-4.706-17.794-9.272-9.931-.109-3.569a.906.906 0 0 1 .062-.375l4.529-11.75 3.187 4.341 3.809 1.059 5.013-2.688a.188.188 0 0 0 .097-.187l-1.081-9.819a.19.19 0 0 0-.187-.172.199.199 0 0 0-.048.007l-12.14 3.165-.332 2.053-3.937 2.825-1.769 4.313-.656 1.865-6.438-1.415 5.138 2.406-2.735 2.031.807 1.607-5.491.25 5.088 1-2.588 3.353-3.716 1.537 4.05.403.841 5.172-3.206 2.228 3.515-.668.35 2.062 4.257 1.188-1.163 3.053 12.344 7.837 7.975 10.116h14.25L65.1 55.506l12.338-7.837-1.16-3.053 4.253-1.188.35-2.062 3.519.668-3.206-2.228.84-5.172 4.047-.406-3.712-1.534-2.588-3.357 5.085-.993v-.003Zm-30.516 30.2-1.15-2.063-1.069 1.319-1.128-1.344-1.006 1.341-1.006-1.338-1.128 1.341-1.069-1.319-1.15 2.063c-1.263-2.535-1.338-4.5-1.856-7.116-1.25 2.269-1.219 4.669-.947 8.625a.62.62 0 0 0 .75.562l3.031-.918c.966-.225 2.412-.766 3.375-.991.962.225 2.406.766 3.372.991l3.031.922a.628.628 0 0 0 .75-.563c.272-3.959.303-6.359-.944-8.628-.522 2.612-.593 4.581-1.856 7.116Zm24.503-19.16-6.462 8-4.61 4.781-2.381-1.009-4.859 5.888a.14.14 0 0 1-.075.043.124.124 0 0 1-.138-.084.134.134 0 0 1 .003-.084l5.053-12.125c.125-.292.349-.531.632-.675l6.515-3.279 4.297-6.193-4.031-13.916-.003-.037c0-.112.091-.204.203-.204.072 0 .138.039.175.1l6.25 12.61-.569 6.184Zm-39.406 17.66-4.859-5.888-2.382 1.01-4.609-4.782-6.463-8-.571-6.187 6.25-12.607a.201.201 0 0 1 .181-.109c.109 0 .203.091.203.203l-.006.047-4.032 13.916 4.294 6.193 6.519 3.282c.281.14.506.381.628.675l5.056 12.119a.125.125 0 0 1-.05.156.126.126 0 0 1-.156-.028h-.003Zm2.828-20.032-3.587 1.088a.626.626 0 0 0-.441.672c.525 4.375 1.194 8.54 2.956 11.959-.019-4.662-.062-8.578 1.344-13.447a.225.225 0 0 0-.056-.218.22.22 0 0 0-.216-.054Zm19.031 1.085-3.587-1.085a.216.216 0 0 0-.272.157.224.224 0 0 0 0 .115c1.406 4.869 1.362 8.782 1.344 13.447 1.762-3.419 2.428-7.584 2.956-11.959a.627.627 0 0 0-.441-.675Zm-14.868.187.703 1.65.956-1.653.831 1.706 1.069-1.65 1.069 1.654.828-1.71.959 1.653.7-1.653a8.534 8.534 0 0 1 2.088 3.016c.187-.372.425-4.688.425-4.688l-2.775-.747a.648.648 0 0 0-.244-.015l-2.9.325a1.28 1.28 0 0 1-.303 0l-2.9-.325a.698.698 0 0 0-.241.015l-2.775.75s.238 4.313.425 4.685a8.487 8.487 0 0 1 2.085-3.016v.003Zm-1.919-7.572-6.331-3.093-1.275.79 7.3 3.55a.064.064 0 0 1 .031.069.07.07 0 0 1-.028.031c-.013.007-.027.009-.041.007l-9.281-1.788-2.069 1.184 11.016 1.682c.012 0 .025.009.034.018a.057.057 0 0 1-.003.079.058.058 0 0 1-.038.015l-10.703.469 3.941 3.109.459.2 10.544-3.29c.5-.157.844-.622.844-1.144v-.756l-5.994-7.279-2.969 1.891 4.632 4.156a.079.079 0 0 1 .018.038c0 .012 0 .028-.009.04a.062.062 0 0 1-.078.022Zm6.556 1.888c0 .525.344.99.844 1.147l10.544 3.287.456-.197 3.944-3.112-10.707-.469a.056.056 0 0 1-.056-.056c0-.031.025-.053.053-.056l11.013-1.682-2.063-1.187-9.287 1.79c-.013 0-.028 0-.038-.006-.019-.009-.028-.028-.028-.05 0-.022.013-.04.031-.05l7.3-3.55-1.278-.79-6.328 3.093a.062.062 0 0 1-.078-.022c-.019-.025-.013-.059.009-.081l4.632-4.153-2.969-1.891-5.994 7.282v.753Zm-1.078-1.431c.103.002.2-.054.25-.144l1.219-2.153a.43.43 0 0 1 .234-.194l1.147-.416a.423.423 0 0 0 .194-.134l.6-.759a.251.251 0 0 0-.193-.41h-6.905a.25.25 0 0 0-.193.41l.6.759c.05.062.119.109.194.137l1.15.416a.44.44 0 0 1 .231.194l1.222 2.153c.05.091.146.146.25.144v-.003Zm14.556-11.329-3.2 1.341-4.203-2.075 1.219-8.05c.003-.034.028-.059.062-.059.016 0 .028.006.041.015a.066.066 0 0 1 .025.038l1.087 4.687 9.944-2.24-4.978 6.343h.003Zm-24.147-4.103 1.088-4.687c.003-.035.028-.06.062-.06.035 0 .063.029.063.063l1.219 8.053-4.204 2.075-3.196-1.344-4.979-6.34 9.947 2.24Zm-2.053 3.378a2.234 2.234 0 0 0 1.644-1.29l-1.013-.456a1.083 1.083 0 0 1-1.025.737 1.086 1.086 0 0 1-1.081-1.062c0-.194.053-.385.153-.554l-1.059-.478a2.083 2.083 0 0 0-.228 1.353 2.255 2.255 0 0 0 2.609 1.75Zm23.288 0a2.262 2.262 0 0 0 2.606-1.75c.081-.462 0-.937-.225-1.353l-1.063.478c.089.16.135.34.135.522 0 .59-.483 1.075-1.072 1.078a1.08 1.08 0 0 1-1.016-.721l-1.009.456c.3.675.917 1.159 1.644 1.29Z" fill="#fff" fill-rule="nonzero"/><path d="m42.275 94.672-.619 2.787h-.262c-1.281 0-2.175-.234-2.688-.7-.515-.465-.665-1.181-.45-2.15a3.286 3.286 0 0 1 2.513-2.668 10.236 10.236 0 0 1 2.74-.319c.891.003 1.782.078 2.657.225l.375-1.7-1.182-1.016a19.386 19.386 0 0 0-1.653-.068c-2.743 0-4.922.468-6.537 1.406a6.097 6.097 0 0 0-3.016 4.09c-.406 1.822-.031 3.188 1.128 4.088 1.16.9 3.116 1.353 5.875 1.353a30.359 30.359 0 0 0 3.653-.25l1.129-5.075h-3.663v-.003Zm33.85-2.909a6.46 6.46 0 0 1 1.972-.213c.55 0 1.094.031 1.641.088.474.043.943.125 1.406.237l.556-2.503c-1.09-.221-2.2-.326-3.313-.313-2.028 0-3.624.3-4.787.897-1.162.597-1.866 1.447-2.109 2.544a2.115 2.115 0 0 0 .468 2.041c.5.522 1.335.9 2.503 1.134l1.147.244c.297.056.588.137.875.24a.779.779 0 0 1 .375.257c.06.102.075.223.044.337a.826.826 0 0 1-.562.56c-.5.156-1.025.221-1.55.196a16.652 16.652 0 0 1-3.907-.49l-.556 2.506c.6.159 1.216.275 1.834.347.697.084 1.4.128 2.104.125a11.123 11.123 0 0 0 3.209-.419 5.867 5.867 0 0 0 2.281-1.203 3.413 3.413 0 0 0 1.113-1.837 2.076 2.076 0 0 0-.5-2.05c-.519-.519-1.425-.907-2.719-1.166l-1.156-.247a4.282 4.282 0 0 1-.71-.209.646.646 0 0 1-.309-.228.412.412 0 0 1-.031-.304c.053-.237.281-.431.681-.571Zm-6.141.887a3.662 3.662 0 0 1-1.018 1.847 5.507 5.507 0 0 1-2.01 1.219l2.591 4.137h-4.278l-2.178-3.584-.869-.022-.8 3.606h-3.891l2.203-9.897-.881-.753h7.681c.882 0 1.747.25 2.488.728.912.594 1.231 1.5.959 2.719h.003Zm-35.847-3.447-2.371 10.65h-3.96l2.156-9.675-1.14-.975h5.315Zm-5.428 1.256-1.462-1.256H16.859l-.572 2.569h4.085l-1.8 8.081h3.969l1.793-8.081h4.085l.29-1.313Zm22.228 5.191h5.325l.55-2.462h-5.325l.338-1.519h6.2l.334-1.503-1.118-.963H47.062l1.188 1.016-2.144 9.634h10.178l.547-2.469H50.55l.387-1.734Zm13.579-4.344c-.407 0-.813.028-1.213.085l-.562 2.537c.406.038.806.056 1.196.056a3.433 3.433 0 0 0 1.61-.309 1.45 1.45 0 0 0 .744-1.025c.2-.897-.391-1.344-1.775-1.344Zm-8.057-43.134a1.35 1.35 0 0 0-.753-.609c-1.531-.654-3.872-.772-4.484.062a2.053 2.053 0 0 0-.291.619 20.69 20.69 0 0 0-.937 4.544 20.485 20.485 0 0 0-.932-4.544 2.11 2.11 0 0 0-.293-.622c-.61-.831-2.95-.713-4.482-.059a1.351 1.351 0 0 0-.756.609c-.507.9-.902 1.858-1.178 2.853a10.004 10.004 0 0 0-.312 2.222 9.935 9.935 0 0 1 2.109-4.344s.434 2.05.672 3.131c.319 1.463.487 3.004 1.025 3.979l.794-1.35 1.212 1.475 1.125-1.413 1.019 1.453 1.019-1.453 1.125 1.413 1.212-1.475.791 1.35c.537-.975.709-2.516 1.031-3.979.234-1.081.666-3.134.666-3.134a9.934 9.934 0 0 1 2.112 4.347 10.314 10.314 0 0 0-.312-2.225 12.53 12.53 0 0 0-1.182-2.85ZM30.206 14.456l.331-2.053 12.138-3.165a.155.155 0 0 1 .048-.007c.096 0 .178.076.186.172l1.082 9.819a.188.188 0 0 1-.097.187l-5.013 2.688-3.809-1.059-3.188-4.344-4.531 11.75a.904.904 0 0 0-.059.375l.109 3.572 4.734-10.625.719 3.587 5.466-.369 1.634 1.469 2.969-1.89-1.641-1.991a.188.188 0 0 1 .007-.25.19.19 0 0 1 .246-.028l5.054 3.394h6.812l5.053-3.394a.195.195 0 0 1 .116-.041.188.188 0 0 1 .134.319l-1.64 1.991 2.968 1.89 1.638-1.469 5.462.369.719-3.584 4.734 10.625.11-3.572a.888.888 0 0 0-.06-.375l-4.528-11.75-3.187 4.341-3.813 1.059-5.009-2.688a.186.186 0 0 1-.1-.187l1.084-9.819a.189.189 0 0 1 .157-.169.228.228 0 0 1 .078.004l12.137 3.165.332 2.053 3.937 2.825 1.766 4.313 4.984-3.056-6.381-4.05-6.728-5.272L56.25 4.8 50 6.338 43.75 4.8 32.628 9.216l-6.725 5.272-6.381 4.05 4.981 3.059 1.769-4.316 3.934-2.825Zm24.772 6.828L50 23.797l-4.984-2.513a.125.125 0 0 1-.057-.103c0-.068.057-.125.125-.125h.019c1.594.438 3.241.675 4.897.71 1.655-.034 3.3-.273 4.897-.71h.015c.069 0 .125.057.125.125a.121.121 0 0 1-.056.103h-.003Zm.328-2.637-2.825-.897 3.103-7.678c.013-.031.047-.05.078-.041a.064.064 0 0 1 .054.069l-.407 8.547h-.003Zm-10.622-.003-.406-8.544a.058.058 0 0 1 .016-.05.07.07 0 0 1 .047-.022c.015 0 .031.003.043.013.01.009.019.018.022.031l3.106 7.678-2.828.894ZM35.6 9.9l7.194-3.719 7.203 2.71L57.2 6.178 64.394 9.9c.04.02.065.061.065.106a.12.12 0 0 1-.156.113l-7.678-2.338-6.628 3.26-6.628-3.26-7.678 2.338a.127.127 0 0 1-.047.009.119.119 0 0 1-.047-.228h.003Z" fill="#f77111" fill-rule="nonzero"/><path d="M78.384 78.206a6.493 6.493 0 0 1 1.975-.212c.547 0 1.094.031 1.638.084.475.047.944.125 1.406.238l.556-2.5a15.473 15.473 0 0 0-3.312-.313c-2.025 0-3.625.3-4.784.897-1.163.594-1.866 1.444-2.113 2.544a2.11 2.11 0 0 0 .469 2.04c.5.519 1.334.897 2.506 1.132l1.144.246c.297.057.59.135.875.241a.766.766 0 0 1 .375.256.444.444 0 0 1 .044.338.833.833 0 0 1-.563.556c-.5.159-1.025.225-1.547.2a16.437 16.437 0 0 1-3.906-.491l-.563 2.504c.607.162 1.219.278 1.838.35.697.084 1.4.125 2.103.125a11.299 11.299 0 0 0 3.209-.419 5.904 5.904 0 0 0 2.285-1.203 3.442 3.442 0 0 0 1.109-1.838 2.078 2.078 0 0 0-.5-2.053c-.519-.516-1.425-.906-2.719-1.166l-1.153-.243a4.021 4.021 0 0 1-.712-.213.66.66 0 0 1-.306-.225.405.405 0 0 1-.032-.303c.05-.241.278-.431.678-.572ZM52.563 76.4c-1.166.594-1.869 1.444-2.113 2.544a2.113 2.113 0 0 0 .469 2.04c.5.519 1.331.897 2.503 1.132l1.147.246c.297.057.587.135.872.241a.788.788 0 0 1 .378.256.444.444 0 0 1 .044.338.833.833 0 0 1-.563.556 4.42 4.42 0 0 1-1.55.2 16.437 16.437 0 0 1-3.906-.491l-.56 2.504c.604.162 1.219.278 1.835.35.7.084 1.4.125 2.103.125a11.293 11.293 0 0 0 3.212-.419 5.892 5.892 0 0 0 2.282-1.203 3.416 3.416 0 0 0 1.109-1.838 2.072 2.072 0 0 0-.497-2.053c-.519-.516-1.425-.906-2.719-1.166l-1.156-.243a4.19 4.19 0 0 1-.709-.213.67.67 0 0 1-.31-.225.41.41 0 0 1-.031-.303c.053-.241.281-.431.681-.572a6.432 6.432 0 0 1 1.972-.212c.547 0 1.094.031 1.641.084.472.047.944.125 1.406.238l.556-2.5a15.74 15.74 0 0 0-3.312-.313c-2.028 0-3.625.3-4.788.897h.004Zm21.278-.753H61.719l-.572 2.578h4.078l-1.797 8.072h3.96l1.8-8.072h4.078l.575-2.578Zm-31.325 6.447h5.325l.547-2.46h-5.325l.337-1.518h6.2l.55-2.469H38.641l1.187 1.019-2.147 9.631h10.178l.55-2.469h-6.281l.388-1.734Zm-5.25-6.447h-1.882l-4.103 7.822-.631-7.822h-4.297l-4.178 7.665-.537-7.665h-5.607l1.772 1.54.875 9.11h5.041l3.947-7.125.64 7.125h5.044l5.175-9.566-1.259-1.084Zm45.99-49.388.294-1.178-1.734-.694 7.447-4.55-8.25.563 3.79-2.703-8.812-4.86-6.103-5.403L57.15 2.119l-7.156 1.734-7.15-1.734-12.738 5.315L24 12.837l-8.812 4.86 3.79 2.706-8.25-.566 7.444 4.55-1.731.694.293 1.178-8.703 1.291 8.038 3.15-7.085 4.344 6.429 1.387.453 2.928-5.172 4.75 5.665-.125.257 1.719 3.212.9-1.04 2.469 14.118 7.937 8.041 12.175L50 67.425l9.044 1.759 8.044-12.175 14.115-7.937-1.04-2.469 3.215-.9.256-1.719 5.666.125-5.172-4.75.45-2.928 6.431-1.387-7.084-4.344 8.038-3.15-8.707-1.291Zm-.887 6.432 3.712 1.537-4.047.403-.843 5.172 3.209 2.228-3.519-.669-.35 2.063-4.253 1.187 1.16 3.054L65.1 55.503l-7.978 10.116h-14.25l-7.978-10.116-12.341-7.837 1.163-3.054-4.257-1.187-.35-2.063-3.515.669 3.206-2.228-.844-5.172-4.047-.406 3.719-1.534 2.585-3.357-5.088-.993 5.491-.254-.807-1.609 2.735-2.025-5.138-2.406 6.438 1.412.656-1.862-4.981-3.063 6.381-4.047 6.725-5.268L43.75 4.8 50 6.334 56.25 4.8l11.119 4.416 6.728 5.271 6.381 4.047-4.984 3.063.656 1.862 6.438-1.415-5.135 2.406 2.731 2.031-.803 1.606 5.488.25-5.085.997 2.585 3.357Zm-15.235-7.338-5.462-.369-6.266 5.625a.062.062 0 0 0-.018.044c0 .027.017.051.043.059.016.004.032.004.044-.003l6.328-3.093 1.278.79-7.3 3.55c-.025.013-.04.041-.031.069a.07.07 0 0 0 .028.031.05.05 0 0 0 .038.006l9.284-1.787 2.066 1.181-11.013 1.685c-.015 0-.028.009-.037.018a.061.061 0 0 0-.013.041c0 .016.006.028.019.037.01.01.023.016.037.016l10.704.469-3.944 3.109-.456.2-10.544-3.29a1.2 1.2 0 0 1-.844-1.144v-.756l7.631-9.269a.194.194 0 0 0-.006-.25.19.19 0 0 0-.244-.031L53.4 25.687h-6.806l-5.053-3.393a.187.187 0 0 0-.297.152v.001c0 .047.015.09.044.125l7.634 9.269v.756c0 .525-.344.99-.844 1.147l-10.547 3.287-.456-.197-3.944-3.112 10.703-.469a.055.055 0 0 0 .038-.016.056.056 0 0 0 .003-.078.075.075 0 0 0-.034-.018l-11.016-1.685 2.066-1.181 9.284 1.787a.056.056 0 0 0 .066-.037.049.049 0 0 0 0-.041.057.057 0 0 0-.032-.031l-7.293-3.547 1.275-.79 6.331 3.093.028.007a.064.064 0 0 0 .063-.063.07.07 0 0 0-.022-.047l-6.266-5.622-5.462.369-.719-3.584-4.738 10.625 9.272 9.928 4.706 17.794.572 2.853a.439.439 0 0 0 .585.322L50 60.416l7.456 2.875a.47.47 0 0 0 .16.031.44.44 0 0 0 .425-.353l.572-2.853 4.709-17.794 9.269-9.931-4.732-10.625-.718 3.587h-.007ZM57.153 60.05a.627.627 0 0 1-.753.562l-3.031-.918c-.963-.225-2.41-.766-3.375-.991-.96.225-2.406.766-3.369.991l-3.031.922a.63.63 0 0 1-.753-.563c-.272-3.959-.3-6.359.947-8.628.518 2.612.593 4.581 1.856 7.116l1.15-2.063 1.065 1.319 1.132-1.344 1.006 1.341 1.006-1.338 1.128 1.341 1.069-1.319 1.15 2.063c1.259-2.535 1.334-4.5 1.856-7.116 1.247 2.269 1.219 4.669.947 8.625Zm15.644-39.322 4.031 13.916-4.294 6.193-6.515 3.282a1.31 1.31 0 0 0-.631.675l-5.054 12.118a.127.127 0 0 0-.003.088.124.124 0 0 0 .138.084.14.14 0 0 0 .075-.043l4.859-5.888 2.381 1.009 4.61-4.781 6.462-8 .569-6.187-6.25-12.607a.207.207 0 0 0-.181-.112.2.2 0 0 0-.181.109.206.206 0 0 0-.016.144ZM34.603 44.794a1.323 1.323 0 0 0-.628-.678l-6.519-3.279-4.293-6.193 4.031-13.916.003-.037a.205.205 0 0 0-.203-.204.204.204 0 0 0-.175.1l-6.25 12.61.569 6.184 6.462 8 4.609 4.781 2.382-1.009 4.859 5.888a.124.124 0 0 0 .094.043.125.125 0 0 0 .119-.084.127.127 0 0 0-.004-.084l-5.056-12.125v.003ZM55.841 48.9s-.432 2.053-.669 3.134c-.319 1.463-.491 3.003-1.028 3.978l-.791-1.35-1.215 1.475-1.125-1.412-1.016 1.453-1.019-1.453-1.125 1.412-1.212-1.475-.794 1.35c-.538-.975-.706-2.515-1.025-3.978-.238-1.081-.672-3.134-.672-3.134a9.962 9.962 0 0 0-2.112 4.344c.025-.75.128-1.494.315-2.219.275-.997.672-1.953 1.178-2.85.168-.29.438-.509.757-.613 1.531-.653 3.871-.771 4.481.063.134.187.231.397.294.619.481 1.475.793 3 .934 4.543a20.51 20.51 0 0 1 .931-4.543c.063-.222.162-.432.294-.622.612-.831 2.953-.713 4.484-.063.318.106.587.325.753.616.51.897.907 1.856 1.182 2.85.187.725.29 1.469.312 2.219a9.973 9.973 0 0 0-2.112-4.344Zm5.906-10.131c-.528 4.375-1.194 8.54-2.959 11.959.021-4.662.062-8.578-1.341-13.447a.213.213 0 0 1 .056-.219.223.223 0 0 1 .216-.053l3.587 1.085c.29.088.475.375.438.675h.003ZM41.203 50.728c-1.762-3.419-2.431-7.584-2.956-11.959a.626.626 0 0 1 .437-.675l3.591-1.085a.196.196 0 0 1 .059-.009.22.22 0 0 1 .21.281c-1.406 4.869-1.36 8.781-1.341 13.447Zm5.5-14.866a.631.631 0 0 1 .241-.018l2.9.325c.101.012.204.012.306 0l2.897-.325a.648.648 0 0 1 .244.015l2.775.75s-.238 4.313-.425 4.685a8.5 8.5 0 0 0-2.088-3.016l-.7 1.653-.959-1.653-.828 1.706-1.069-1.65-1.069 1.653-.831-1.709-.956 1.653-.703-1.653a8.475 8.475 0 0 0-2.085 3.016c-.187-.372-.425-4.688-.425-4.688l2.775-.747v.003Zm1.822-6.993a.44.44 0 0 0-.231-.194l-1.15-.416a.418.418 0 0 1-.194-.134l-.6-.759a.259.259 0 0 1-.031-.266.245.245 0 0 1 .231-.144h6.894a.254.254 0 0 1 .197.41l-.6.759a.445.445 0 0 1-.194.137l-1.147.416a.433.433 0 0 0-.231.194l-1.225 2.153a.29.29 0 0 1-.25.147.285.285 0 0 1-.247-.147l-1.222-2.156Zm6.369-7.813a20.122 20.122 0 0 1-4.897.71 20.122 20.122 0 0 1-4.897-.71h-.019a.126.126 0 0 0-.125.125.125.125 0 0 0 .057.103L50 23.797l4.981-2.513a.123.123 0 0 0 .063-.062.126.126 0 0 0-.144-.169l-.006.003Zm-16.256.122 4.206-2.075-1.219-8.053a.063.063 0 0 0-.062-.063c-.035 0-.06.025-.063.06l-1.094 4.687-9.943-2.24 4.978 6.343 3.197 1.341Zm19.859-10.131c-.003-.035-.028-.06-.063-.06a.063.063 0 0 0-.062.063l-1.222 8.053 4.203 2.075 3.197-1.344 4.978-6.34-9.944 2.24-1.087-4.687Zm-22.525 4.962 1.062.478a1.088 1.088 0 0 0-.136.526 1.09 1.09 0 0 0 1.499 1.003c.279-.124.492-.36.587-.65l1.013.456a2.254 2.254 0 0 1-2.05 1.321 2.255 2.255 0 0 1-2.2-1.781 2.08 2.08 0 0 1 .225-1.353Zm25.034 1.357a1.08 1.08 0 0 0 1.013.708c.585 0 1.069-.477 1.078-1.062 0-.183-.047-.364-.138-.525l1.063-.478c.226.413.305.89.225 1.353a2.26 2.26 0 0 1-2.202 1.775 2.256 2.256 0 0 1-2.048-1.315l1.009-.456Zm-5.343-7.335a.073.073 0 0 0-.044.003.068.068 0 0 0-.031.038l-3.107 7.678 2.825.897.407-8.547a.064.064 0 0 0-.054-.069h.004Zm-11.257.041a.063.063 0 0 0-.065-.041.063.063 0 0 0-.063.063l.406 8.553 2.829-.897-3.107-7.678Zm-8.718.047 7.681-2.338 6.625 3.26 6.631-3.26 7.678 2.338a.232.232 0 0 0 .038.006.12.12 0 0 0 .118-.119.097.097 0 0 0-.009-.044.113.113 0 0 0-.056-.062L57.2 6.181l-7.203 2.71-7.203-2.713L35.6 9.9a.11.11 0 0 0-.056.062.133.133 0 0 0 0 .088.116.116 0 0 0 .144.069Z" fill-rule="nonzero"/></svg>