<svg width="100" height="100" viewBox="0 0 100 100" fill="none" xmlns="http://www.w3.org/2000/svg"><path d="m70.766 28.57.24-4.782c-.41-.034-1.606-.136-1.947-.205-4.167-.82-11.715-3.961-12.193-4.235 6.797 4.406 12.876 5.704 12.876 5.704l1.024 3.518zM51.368 13.509l3.039-9.222h-8.265l3.04 9.222h2.186zM45.63 9.615c-7.445 2.22-10.793 8.163-11.988 11.373 3.62-1.093 10.11-3.313 13.866-5.601L45.63 9.615zm33.342 60.43h2.114c5.706-6.248 7.055-13.074 7.087-13.202L75.4 51.603l10.245 5.582c-1.442 5.567-4.298 9.953-6.673 12.86zM25.13 63.268h11.11c-4.844-4.92-7.42-8.964-8.896-12.393l-14.546 5.968c.032.128 1.382 6.954 7.089 13.202h5.243v-6.777zm30.063-21.106-1.4-.648.41 17.69 1.365-.478-.375-16.564zM46.38 59.204l.41-17.69-1.4.648-.376 16.564 1.366.478zM31.012 43.836l-1.058-19.74 1.639-.205s14.14-4.03 18.647-7.787v21.652l-17.28-8.81 3.039 8.81 7.787 3.723-.376 16.291-12.397-13.934z" fill="#00A3E0"/><path d="M35.275 66.21c.812-.037 1.44.665 1.44 1.478 0 .812-.59 1.477-1.404 1.477-.85 0-1.44-.665-1.44-1.477 0-.813.59-1.478 1.404-1.478zm10.8 1.44c0 .841-.585 1.39-1.39 1.39h-.803v-2.814h.803c.805 0 1.39.584 1.39 1.425zm15.682.382.616-1.523.616 1.523h-1.232zm-9.338 15.256h-2.788l.88-2.898.514-1.762h.037l.513 1.761.844 2.899zm4.738-17.078c.85-.037 1.44.665 1.44 1.478 0 .812-.59 1.477-1.403 1.477-.85 0-1.44-.665-1.44-1.477 0-.813.59-1.478 1.403-1.478zm34.564 24.453c0 2.568-1.468 3.742-3.155 3.302-2.128-.55-5.394-1.21-7.669-1.688-2.018-.44-3.155-.88-3.155-2.935V86.92h4.55v.697c0 .55.367.66.807.807.44.148 2.788.698 3.156.808.366.11.806-.037.806-.808V85.16c0-.844-.513-.99-1.174-1.1-.697-.11-2.128-.44-4.476-.918-2.385-.477-3.156-1.688-3.156-3.302V75.4c0-1.614.808-2.935 3.156-2.935h7.558a2.302 2.302 0 0 1 2.312 2.311v3.486h-4.44v-.917a.814.814 0 0 0-.807-.807h-4.366s.697.257 1.247.66v2.019c0 .88.294 1.027 1.174 1.173.881.147 2.349.44 4.44.771 2.055.257 3.192 1.284 3.192 2.898v6.605zm-19.635.477-6.641-10.604h-.037v10.016l-4.476-.256V73.308c-.624-.477-1.431-.807-1.431-.807h5.687l5.65 9.026h.037v-8.219c-.624-.477-1.431-.807-1.431-.807h5.87v-.037 19.08l-3.228-.404zm-17.428-1.064-.918-2.789h-7.154s.844.33 1.467.844l-.66 1.982-4.477.146 5.798-16.95c-.624-.515-1.468-.845-1.468-.845h6.09l6.165 17.758-4.843-.146zm-18.64.587V76.537h-3.925v-4.073h12.511v4.073h-5.687s1.174.44 1.724 1.1v12.695l-4.622.331zm-10.31 1.174V72.464h4.623v18.75l-4.622.623zm-5.723-14.2v15.19l-4.623 1.064V76.537h-3.743l-1.394-4.073h13.723v4.073H18.26s1.174.44 1.725 1.1zm12.06-8.281a3.047 3.047 0 0 1-2.016.733c-1.503 0-2.493-1.027-2.493-2.42 0-1.356 1.026-2.456 2.456-2.456.843 0 1.356.22 1.833.66l-.66.77c-.366-.294-.696-.477-1.21-.477-.733 0-1.356.66-1.356 1.466 0 .843.587 1.503 1.43 1.503.366 0 .696-.11.99-.293v-.66h-1.027v-.88h2.053v2.054zM12.8 56.844l14.546-5.968c1.475 3.429 4.052 7.473 8.895 12.392h-11.11v6.777h-5.243c-5.706-6.248-7.056-13.074-7.088-13.201zM31.595 23.89s14.14-4.03 18.647-7.786v21.652l-17.281-8.811L36 37.757l7.786 3.723-.375 16.29-12.398-13.934-1.059-19.74 1.64-.205zM45.632 9.616l1.878 5.771c-3.757 2.289-10.246 4.509-13.866 5.601 1.195-3.21 4.542-9.152 11.988-11.372zm8.777-5.328-3.04 9.221h-2.186l-3.04-9.221h8.266zm7.582 31.181v-1.673l2.527-1.298-1.4 3.996-7.446 3.585-.853-1.16 7.172-3.45zm7.07-11.885c.34.069 1.536.17 1.946.205l-.239 4.781-1.025-3.517s-6.079-1.298-12.875-5.704c.478.273 8.026 3.415 12.192 4.235zm19.114 33.26c-.032.127-1.381 6.953-7.087 13.201h-2.115c2.376-2.906 5.231-7.292 6.674-12.86l-10.246-5.58 12.774 5.239zm-34.381-15.33 1.4.649.376 16.564-1.366.478-.41-17.691zm-7.001 0-.41 17.69-1.366-.477.375-16.564 1.4-.649zm-1.059-2.63-.854 1.161-7.445-3.586-1.366-3.995 2.527 1.297v1.674l7.138 3.45zM37.786 67.65c0 1.33-1.071 2.439-2.511 2.439-1.478 0-2.512-1.108-2.512-2.439 0-1.329 1.034-2.437 2.512-2.437 1.477 0 2.511 1.108 2.511 2.438zm4.275 1.418v.922h-3.388v-4.677h1.031v3.755h2.357zm2.588.921h-1.827v-4.676h1.827c1.462 0 2.485.986 2.485 2.338 0 1.315-1.023 2.338-2.485 2.338zm7.616-.854c.55 0 .88-.22 1.246-.55l.66.66c-.476.514-1.026.844-1.906.844-1.393 0-2.42-1.064-2.42-2.42 0-1.356.99-2.456 2.457-2.456.88 0 1.43.293 1.833.733l-.66.77c-.367-.33-.734-.513-1.21-.513-.807 0-1.357.66-1.357 1.466 0 .806.55 1.466 1.357 1.466zm7.44-1.485c0 1.33-1.033 2.439-2.511 2.439-1.477 0-2.512-1.108-2.512-2.439 0-1.329 1.035-2.437 2.512-2.437 1.44 0 2.512 1.108 2.512 2.438zm5.133 2.34h-1.05l-.436-1.052h-1.958l-.435 1.052h-1.052l1.994-4.677h.943l1.994 4.677zm3.744-.3c-.312.261-.752.399-1.274.399a3.25 3.25 0 0 1-2.094-.745l.627-.738c.492.409.947.599 1.43.599.43 0 .688-.173.688-.462 0-.268-.143-.42-.987-.612-.922-.249-1.574-.498-1.574-1.46 0-.414.17-.787.477-1.051.305-.262.734-.407 1.207-.407.675 0 1.278.2 1.794.595l-.553.774c-.451-.327-.858-.486-1.24-.486-.297 0-.613.112-.613.425 0 .307.188.422 1.062.65.949.255 1.536.582 1.536 1.421 0 .454-.168.834-.486 1.099zm.878-3.457v-.92h3.903v.92h-1.437v3.757h-1.03v-3.757H69.46zM93.693 80.68v-5.905a4.736 4.736 0 0 0-4.73-4.73h-6.95c2.931-1.835 8.248-6.271 9.235-14.802L72.43 47.525l1.264-26.775-3.996-.547c-.785-1.81-2.322-4.781-5.02-7.411-1.23-7.172-6.216-10.587-6.216-10.587h-15.95s-4.986 3.415-6.215 10.587c-2.698 2.63-4.235 5.6-5.02 7.41l-3.997.548 1.264 26.775-18.818 7.718c.987 8.53 6.304 12.967 9.235 14.802H6.84l3.05 8.91h3.052v17.897c16.327-4.586 47.048-7.041 75.006-.546a5.09 5.09 0 0 0 1.282.166 4.6 4.6 0 0 0 2.828-.95c1.338-1.035 2.075-2.76 2.075-4.86v-6.604c0-1.148-.367-2.382-1.25-3.378h.81z" fill="#0C2340"/><path d="M96.079 81.489v-6.715a7.124 7.124 0 0 0-7.117-7.117h-.816c2.404-2.755 4.659-6.712 5.289-12.162l.192-1.658-18.924-7.762 1.285-27.237-4.797-.656c-1.19-2.43-2.717-4.637-4.476-6.465C65.153 4.193 59.934.542 59.705.386L59.144 0H41.829l-.563.386c-.228.156-5.447 3.807-7.01 11.331-1.758 1.828-3.285 4.035-4.475 6.465l-4.797.656 1.285 27.237-18.924 7.762.191 1.658c.631 5.45 2.886 9.407 5.289 12.163H3.5L8.184 81.34h2.371V100l3.032-.852c9.987-2.804 23.739-4.414 37.73-4.414 12.633 0 25.102 1.345 36.063 3.888.61.156 1.231.235 1.85.235a6.94 6.94 0 0 0 4.286-1.45c1.937-1.495 3.003-3.89 3.003-6.746v-6.604a7.64 7.64 0 0 0-.44-2.568zm-1.947 9.172c0 2.1-.737 3.824-2.074 4.858a4.598 4.598 0 0 1-2.829.952c-.423 0-.853-.055-1.281-.166-27.958-6.496-58.679-4.04-75.006.546V78.954H9.89l-3.05-8.91h12.12c-2.93-1.836-8.249-6.272-9.235-14.802l18.818-7.719-1.264-26.775 3.996-.547c.786-1.81 2.322-4.78 5.02-7.41 1.23-7.173 6.216-10.588 6.216-10.588h15.95s4.986 3.415 6.215 10.587c2.698 2.63 4.235 5.601 5.02 7.412l3.996.546-1.263 26.775 18.818 7.719c-.987 8.53-6.304 12.966-9.235 14.802h6.95a4.736 4.736 0 0 1 4.73 4.73v5.904h-.81c.884.997 1.25 2.231 1.25 3.379v6.604zm-5.604-9.502c-2.091-.33-3.559-.624-4.44-.771-.88-.147-1.174-.294-1.174-1.174v-2.018c-.55-.403-1.247-.66-1.247-.66h4.366c.44 0 .807.366.807.806v.918h4.44v-3.486a2.302 2.302 0 0 0-2.312-2.311H81.41c-2.348 0-3.156 1.32-3.156 2.935v4.44c0 1.614.77 2.825 3.156 3.302 2.348.477 3.779.807 4.476.917.66.11 1.174.257 1.174 1.1v3.266c0 .77-.44.917-.806.808-.368-.11-2.716-.66-3.156-.808-.44-.147-.808-.257-.808-.807v-.697h-4.55v2.421c0 2.055 1.138 2.496 3.156 2.936 2.275.477 5.54 1.137 7.669 1.688 1.687.44 3.155-.734 3.155-3.303v-6.604c0-1.614-1.137-2.641-3.192-2.898zm-64.582-8.696H10.224l1.394 4.073h3.743V93.89l4.622-1.064v-15.19c-.55-.66-1.724-1.1-1.724-1.1h5.687v-4.073zm6.384 0h-4.623v19.373l4.623-.624v-18.75zm44.983.037h-5.87s.807.33 1.43.807v8.218h-.036l-5.65-9.025h-5.688s.808.33 1.432.807v16.988l4.475.256V80.535h.038l6.64 10.603 3.23.404V72.5zM40.64 77.636c-.55-.66-1.724-1.1-1.724-1.1h5.687v-4.073H32.091v4.073h3.926v14.126l4.623-.33V77.635zm12.695-5.173h-6.09s.844.33 1.467.844l-5.797 16.95 4.477-.146.66-1.981c-.624-.514-1.468-.844-1.468-.844h7.155l.917 2.788 4.843.147-6.164-17.758zM49.63 83.287l.88-2.899.514-1.761h.037l.513 1.761.844 2.899H49.63z" fill="white"/><path d="M67.53 67.166c-.873-.227-1.061-.342-1.061-.65 0-.312.316-.424.612-.424.383 0 .79.159 1.24.486l.554-.775a2.887 2.887 0 0 0-1.794-.594c-.473 0-.902.145-1.208.407a1.364 1.364 0 0 0-.477 1.051c0 .962.653 1.211 1.575 1.46.844.191.987.344.987.612 0 .289-.258.462-.688.462-.483 0-.938-.19-1.43-.599l-.627.738a3.256 3.256 0 0 0 2.094.745c.522 0 .962-.138 1.274-.398.318-.265.486-.645.486-1.099 0-.84-.588-1.166-1.536-1.422zm4.395 2.82v-3.757h1.437v-.92h-3.904v.92h1.436v3.756h1.031zm-14.769-3.78c-.812 0-1.404.665-1.404 1.477 0 .813.592 1.478 1.44 1.478.814 0 1.404-.665 1.404-1.478 0-.812-.59-1.514-1.44-1.477zm.037-.997c1.44 0 2.512 1.108 2.512 2.437 0 1.33-1.035 2.439-2.512 2.439s-2.512-1.109-2.512-2.439 1.035-2.437 2.512-2.437zm-4.93.99c.477 0 .844.183 1.21.512l.66-.769c-.403-.44-.953-.733-1.833-.733-1.466 0-2.456 1.1-2.456 2.456 0 1.356 1.027 2.42 2.42 2.42.88 0 1.43-.33 1.906-.844l-.66-.66c-.366.33-.696.55-1.246.55-.807 0-1.357-.66-1.357-1.466 0-.807.55-1.467 1.357-1.467zm-16.99.007c-.813 0-1.403.665-1.403 1.477 0 .813.59 1.478 1.44 1.478.813 0 1.404-.665 1.404-1.478 0-.812-.628-1.514-1.44-1.477zm0-.997c1.477 0 2.512 1.108 2.512 2.437 0 1.33-1.071 2.439-2.512 2.439-1.477 0-2.512-1.109-2.512-2.439s1.035-2.437 2.512-2.437zm-5.282 2.969h1.026v.66a1.846 1.846 0 0 1-.99.293c-.842 0-1.43-.66-1.43-1.503 0-.806.624-1.466 1.357-1.466.514 0 .843.183 1.21.476l.66-.77c-.477-.44-.99-.66-1.833-.66-1.43 0-2.456 1.1-2.456 2.457 0 1.393.99 2.42 2.493 2.42.88 0 1.54-.33 2.016-.734v-2.053H29.99v.88zm32.38-1.673-.616 1.523h1.233l-.617-1.523zm-.47-1.197h.942l1.994 4.677h-1.051l-.435-1.05h-1.959l-.434 1.05h-1.052l1.994-4.677zm-15.828 2.339c0-.84-.585-1.425-1.389-1.425h-.803v2.813h.803c.804 0 1.389-.548 1.389-1.388zm1.06 0c0 1.315-1.024 2.338-2.485 2.338h-1.827v-4.677h1.827c1.461 0 2.484.987 2.484 2.339zm-7.43-2.339h-1.03v4.677h3.387v-.92h-2.357v-3.757zM36.067 32.46l1.367 3.996 7.445 3.586.854-1.161-7.138-3.45v-1.673l-2.528-1.298zm19.604 7.616-.853-1.16 7.172-3.45V33.79l2.527-1.297-1.4 3.995-7.446 3.586z" fill="#FFC72C"/></svg>