<svg width="500" height="500" viewBox="0 0 500 500" fill="none" xmlns="http://www.w3.org/2000/svg">
<path d="M249.999 393.169C216.303 393.169 160.115 384.318 112.662 359.358C66.2169 334.936 32.4537 306.606 17.5833 279.572C12.5529 270.424 9.93211 260.2 9.99931 249.995C9.93211 239.79 12.5529 229.566 17.5833 220.427C32.4537 193.393 66.2169 165.054 112.662 140.641C160.124 115.681 216.303 106.83 249.999 106.83C283.695 106.83 339.875 115.681 387.337 140.641C433.782 165.064 467.545 193.393 482.415 220.427C487.446 229.566 490.067 239.79 489.999 249.995C490.067 260.2 487.446 270.424 482.415 279.563C467.545 306.596 433.782 334.936 387.337 359.348C339.884 384.299 283.695 393.16 249.999 393.16" fill="white"/>
<path d="M476.502 249.995C476.57 241.787 474.448 233.685 470.483 226.485C457.101 202.149 424.816 175.125 380.858 152.017C335.603 128.219 282.237 119.8 250 119.8C217.763 119.8 164.397 128.219 119.142 152.017C75.184 175.125 42.9088 202.149 29.5168 226.485C25.5616 233.675 23.4304 241.777 23.4976 249.995C23.4304 258.203 25.5616 266.305 29.5168 273.505C42.8992 297.841 75.184 324.865 119.142 347.973C164.397 371.771 217.763 380.19 250 380.19C282.237 380.19 335.603 371.771 380.858 347.973C424.816 324.865 457.091 297.841 470.483 273.505C474.438 266.315 476.57 258.213 476.502 249.995Z" fill="#115740"/>
<path d="M357.366 226.331L342.563 251.972C340.998 254.689 342.207 258.164 345.126 259.316L372.102 269.963H314.214L305.324 285.361H392.195C394.028 285.361 395.727 284.382 396.639 282.798L411.443 257.156C413.007 254.44 411.798 250.964 408.879 249.812L375.395 236.603H423.308L430.719 223.768H361.82C359.987 223.768 358.287 224.747 357.375 226.331H357.366Z" fill="white"/>
<path d="M341.172 236.603L348.583 223.768H266.446L259.035 236.603H279.569L251.412 285.371H292.481L320.638 236.603H341.172Z" fill="white"/>
<path d="M248.761 236.603L256.173 223.768H189.443L153.875 285.371H238.576L247.465 269.963H203.833L209.766 259.7H232.854L240.265 246.865H217.168L223.101 236.603H248.761Z" fill="white"/>
<path d="M421.629 208.158C421.629 208.158 415.542 206.929 397.658 205.691L334.97 199.527C300.515 196.484 270.275 188.564 242.234 168.884H241.293L264.957 207.083H145.168L110.349 267.399C109.427 268.983 107.738 269.963 105.904 269.963H67.8017L58.9121 285.361H135.117C138.784 285.361 142.173 283.403 144.007 280.225L182.541 213.495H436.643C433.485 211.652 428.416 209.319 421.629 208.148V208.158Z" fill="white"/>
</svg>
