<svg width="500" height="500" viewBox="0 0 500 500" fill="none" xmlns="http://www.w3.org/2000/svg">
<path d="M347.508 126.738C435.24 193.502 368.476 203.498 299.956 213.248C299.956 213.248 271.043 205.278 220.949 180.382C107.322 123.95 143.09 97.3573 232.397 81.2689C89.4706 19.0063 -29.6508 127.419 101.762 232.83L65.6988 258.61C95.3254 276.765 156.694 314.862 147.773 373.189L117.318 394.96L210.347 437.116L283.753 403.857C284.286 371.549 342.022 354.772 366.868 289.057C503.62 257.684 468.794 137.39 347.516 126.746L347.508 126.738Z" fill="white"/>
<path d="M285.002 219.408C113.335 153.103 101.961 98.7119 209.119 79.9175C75.1062 43.5013 -3.05624 140.622 129.538 233.241L93.958 258.669C131.735 283.909 171.776 321.293 158.189 380.12L140.263 392.92L209.111 424.129C273.185 353.953 306.707 285.762 284.993 219.408H285.002ZM241.73 326.172L215.359 296.176L185.076 300.686L199.074 277.628L172.703 247.608L207.725 263.368L221.689 240.31L229.332 273.093L264.354 288.829L234.063 293.364L241.73 326.164V326.172Z" fill="#021018"/>
<path d="M372.14 137.186C431.057 183.311 390.147 212.782 318.323 220.785C336.495 297.381 280.776 367.54 221.793 421.865L275.88 397.364C279.882 366.228 334.756 350.042 360.758 280.957C482.897 253.708 462.963 166.05 372.14 137.178V137.186Z" fill="#EB0028"/>
</svg>
