<?xml version="1.0" encoding="iso-8859-1"?>
<!-- Uploaded to: SVG Repo, www.svgrepo.com, Generator: SVG Repo Mixer Tools -->
<svg fill="#000000" height="800px" width="800px" version="1.1" id="Layer_1" xmlns="http://www.w3.org/2000/svg" xmlns:xlink="http://www.w3.org/1999/xlink" 
	 viewBox="0 0 299.776 299.776" xml:space="preserve">
<g>
	<g>
		<path d="M280.987,19.537c-11.57-11.505-27.755-18.005-47.125-19.24l-0.065-0.065l-0.065,0.065
			c-9.23-0.585-19.175,0.065-29.64,2.015c-28.47,5.2-57.265,19.5-75.14,37.31c-17.81,17.745-29.445,43.225-31.98,69.745
			c-0.065,0.975-0.195,1.95-0.26,2.86l-1.495,18.07c-2.405,26.585-8.84,52.39-18.98,76.57v0.065l-5.33,13.26l-4.485-4.42
			c-0.91-0.91-2.145-1.43-3.445-1.43c-1.3,0-2.535,0.52-3.445,1.43l-58.11,58.695c-1.885,1.885-1.885,4.875-0.065,6.825l16.12,16.9
			c0.91,0.975,2.145,1.495,3.445,1.495h0.065c1.3,0,2.535-0.52,3.445-1.43l58.89-58.695c0.91-0.91,1.43-2.145,1.43-3.445
			s-0.52-2.535-1.43-3.445l-4.42-4.355l18.005-6.89c0,0,0.065,0,0.065-0.065c21.71-8.84,44.98-15.08,67.275-18.2l5.46-0.52
			c3.25,0.325,6.5,0.455,9.88,0.455c0.195,0,0.39,0,0.65,0c29.575-0.195,60.06-12.675,79.69-32.695
			c23.27-22.685,39.65-62.79,39.845-97.5C299.967,50.412,293.402,31.952,280.987,19.537z M21.117,287.921l-9.425-9.88l51.285-51.87
			l10.01,10.01L21.117,287.921z M289.502,62.046l-24.505,24.44l-22.555-22.49l34.515-34.385
			C284.952,39.296,288.332,51.256,289.502,62.046z M132.332,115.086l20.15-20.085l22.555,22.49l-20.15,20.085L132.332,115.086z
			 M147.997,144.466l-25.155,25.09c-7.41-8.84-12.155-19.305-14.495-30.485l17.095-17.095L147.997,144.466z M201.882,90.711
			l-19.955,19.89l-22.555-22.49l20.02-19.955L201.882,90.711z M186.282,61.266l19.825-19.76l22.555,22.49l-19.89,19.825
			L186.282,61.266z M181.927,124.381l22.555,22.49l-20.15,20.085l-22.555-22.49L181.927,124.381z M188.817,117.491l19.89-19.825
			l22.49,22.555l-19.825,19.76L188.817,117.491z M215.662,90.776l19.955-19.89l22.555,22.49l-20.02,19.955L215.662,90.776z
			 M237.242,10.501c12.48,1.365,23.855,5.33,32.695,12.35l-34.385,34.32l-22.555-22.49L237.242,10.501z M223.982,9.981
			l-17.875,17.81l-13.065-13.065C203.377,11.866,213.907,10.176,223.982,9.981z M182.577,17.976l16.64,16.575l-19.825,19.825
			l-23.465-23.595C164.182,25.711,173.217,21.356,182.577,17.976z M135.777,46.576c3.64-3.575,7.605-7.02,11.96-10.14l24.83,24.895
			l-20.02,19.955l-25.09-25.025C129.992,52.751,132.787,49.501,135.777,46.576z M121.867,64.516l23.725,23.66l-20.15,20.02
			l-15.47-15.405C112.637,82.781,116.667,73.161,121.867,64.516z M107.632,104.231l10.92,10.855l-11.96,11.96
			C106.072,119.506,106.397,111.836,107.632,104.231z M93.397,212.326l-10.53,4.03l2.275-5.655
			c7.8-18.525,13.39-37.895,16.835-57.85c3.835,10.335,9.555,19.5,17.095,27.235c0,0,0,0,0.065,0.065
			c7.15,7.15,15.86,12.74,25.545,16.64C127.457,200.301,109.972,205.566,93.397,212.326z M159.957,191.201
			c-11.635-2.6-21.97-7.605-30.29-14.755l25.22-25.155l22.555,22.49L159.957,191.201z M180.237,193.346
			c-2.795,0-5.59-0.065-8.32-0.325l12.415-12.35l11.44,11.375C190.637,192.891,185.437,193.346,180.237,193.346z M207.147,189.641
			l-15.86-15.795l20.085-20.085l23.92,23.855C226.712,182.881,217.092,186.976,207.147,189.641z M253.167,163.511l-0.065,0.065
			c-2.925,2.99-6.175,5.785-9.62,8.45l-25.22-25.155l19.825-19.76l24.96,25.025C259.927,156.296,256.612,160.066,253.167,163.511z
			 M268.637,143.946l-23.66-23.725l20.02-19.955l16.705,16.64C278.257,126.461,273.772,135.691,268.637,143.946z M271.887,93.376
			l18.07-18.07c-0.325,10.205-2.015,20.8-4.94,31.135L271.887,93.376z"/>
	</g>
</g>
</svg>