<svg height="2480" viewBox="90.6 102.1 660.7 667.7" width="2500" xmlns="http://www.w3.org/2000/svg" xmlns:xlink="http://www.w3.org/1999/xlink"><linearGradient id="a" gradientTransform="matrix(1 0 0 -1 0 901.3)" gradientUnits="userSpaceOnUse" x1="255" x2="364.7" y1="749.1" y2="749.1"><stop offset="0" stop-color="#008e00"/><stop offset=".8" stop-color="#0db400"/></linearGradient><linearGradient id="b" gradientTransform="matrix(1 0 0 -1 0 901.3)" gradientUnits="userSpaceOnUse" x1="477.2" x2="586.9" y1="749.1" y2="749.1"><stop offset=".3" stop-color="#ec0000"/><stop offset="1" stop-color="#a70000"/></linearGradient><linearGradient id="c" gradientTransform="matrix(1 0 0 -1 0 901.3)" gradientUnits="userSpaceOnUse" x1="255.1" x2="586.8" y1="540.8" y2="540.8"><stop offset="0" stop-color="#ddca00"/><stop offset=".5" stop-color="#ff0"/><stop offset="1" stop-color="#ddca00"/></linearGradient><linearGradient id="d"><stop offset="0" stop-color="#fff" stop-opacity="0"/><stop offset="1" stop-color="#fff"/></linearGradient><linearGradient id="e" gradientTransform="matrix(1 0 0 -1 0 901.3)" gradientUnits="userSpaceOnUse" x1="450.8" x2="538.3" xlink:href="#d" y1="550.4" y2="550.4"/><linearGradient id="f" gradientTransform="matrix(1 0 0 -1 0 901.3)" gradientUnits="userSpaceOnUse" x1="477.2" x2="538.3" xlink:href="#d" y1="757.2" y2="757.2"/><path d="m595.8 142.9s-72.5-36.5-174.9-36.5-174.9 36.5-174.9 36.5v152.6c0 184.4 174.9 279 174.9 279s174.9-94.6 174.9-279z" fill="#fff"/><path d="m421 579.4-2.1-1.1c-1.8-1-44.8-24.5-88.5-71.2-25.7-27.4-46.2-57.2-60.9-88.4-18.4-39.1-27.7-80.5-27.7-123.2v-155.3l2.4-1.2c.7-.4 74.7-36.9 176.8-36.9s176.1 36.6 176.8 36.9l2.4 1.2v155.3c0 42.7-9.3 84.2-27.7 123.2-14.7 31.2-35.2 60.9-60.9 88.4-43.7 46.7-86.7 70.2-88.5 71.2zm-170.6-433.8v149.9c0 41.4 9 81.6 26.9 119.6 14.3 30.4 34.3 59.4 59.4 86.1 37.4 40 75.2 63.1 84.3 68.3 9.1-5.3 47-28.5 84.5-68.5 25-26.8 44.9-55.7 59.2-86.1 17.8-37.9 26.8-78 26.8-119.4v-149.9c-13.3-6.1-80.7-34.9-170.5-34.9s-157.2 28.8-170.5 34.9z"/><path d="m364.7 119.9c-37.3 4.7-74.2 14.1-109.8 28.1v36.5c35.5-14.1 72.4-23.4 109.8-28.1z" fill="url(#a)"/><path d="m477.2 119.9c-37.3-4.7-75.1-4.7-112.4 0v36.5c37.3-4.7 75.1-4.7 112.4 0z" fill="#fff"/><path d="m586.9 148c-35.5-14.1-72.4-23.4-109.8-28.1v36.5c37.3 4.7 74.2 14.1 109.8 28.1z" fill="url(#b)"/><path d="m421 157c22.7 0 45.9 1.9 68.7 5.5 18.3 2.9 36.5 7 54 12.2 20.8 6.1 35.8 12.3 43.1 15.5v105.3c0 21.2-2.4 42.3-7.2 62.7-4.4 18.5-10.8 36.9-19.1 54.5-14 29.9-33.6 58.4-58.3 84.8-9.7 10.4-20.3 20.5-31.3 30-8.9 7.6-18.1 14.9-27.4 21.6-10 7.2-17.9 12.2-22.5 14.9-4.6-2.7-12.5-7.7-22.5-14.9-9.3-6.7-18.5-14-27.4-21.6-11.1-9.5-21.6-19.6-31.3-30-24.6-26.4-44.2-54.9-58.3-84.8-8.3-17.7-14.7-36-19.1-54.5-4.8-20.4-7.2-41.5-7.2-62.7v-105.3c7.3-3.2 22.3-9.4 43.1-15.5 17.5-5.1 35.7-9.2 54-12.2 22.9-3.7 46-5.5 68.7-5.5" fill="url(#c)"/><g opacity=".4"><path d="m538.3 173.1c-15.9-4.4-32.2-8-48.6-10.6-12.9-2.1-25.9-3.6-38.9-4.5v385.8c6.8-5.2 13.6-10.6 20.1-16.2 11.1-9.5 21.6-19.6 31.3-30 13.6-14.6 25.7-29.8 36.1-45.6z" fill="url(#e)"/><path d="m477.2 119.9v36.5c20.6 2.6 41 6.6 61.1 12v-36.5c-20.1-5.4-40.6-9.4-61.1-12z" fill="url(#f)"/></g><path d="m298.6 693.1h25.2c.8 0 1.5.7 1.5 1.5v6.9c0 1.2 1.3 1.9 2.3 1.2 3.2-2.2 8.9-6 10.4-6.9 2.1-1.3 3.4-2.7 10.5-2.7s12.7 5.7 12.7 12.7v26.1c0 .8-.7 1.5-1.5 1.5h-19c-.8 0-1.5-.7-1.5-1.5v-22.7c0-1.2-1.3-1.9-2.3-1.2-1.4.9-3.3 2.2-5.1 3.6-2 1.6-4 3.7-5.2 5.2-.9 1.1-1.4 2.5-1.4 3.9v34.6c0 .8.7 1.5 1.5 1.5h4.4c.8 0 1.5.7 1.5 1.5v9.8c0 .8-.7 1.5-1.5 1.5h-32.6c-.8 0-1.5-.7-1.5-1.5v-9.8c0-.8.7-1.5 1.5-1.5h4c.8 0 1.5-.7 1.5-1.5v-48c0-.8-.7-1.5-1.5-1.5h-4c-.8 0-1.5-.7-1.5-1.5v-9.8c0-.8.7-1.5 1.5-1.5zm104.3 0h25.2c.8 0 1.5.7 1.5 1.5v6.9c0 1.2 1.3 1.9 2.3 1.2 3.2-2.2 8.9-6 10.4-6.9 2.1-1.3 3.4-2.7 10.5-2.7s12.7 5.7 12.7 12.7v26.1c0 .8-.7 1.5-1.5 1.5h-19c-.8 0-1.5-.7-1.5-1.5v-22.7c0-1.2-1.3-1.9-2.3-1.2-1.4.9-3.3 2.2-5.1 3.6-2 1.6-4 3.7-5.2 5.2-.9 1.1-1.4 2.5-1.4 3.9v34.6c0 .8.7 1.5 1.5 1.5h4.4c.8 0 1.5.7 1.5 1.5v9.8c0 .8-.7 1.5-1.5 1.5h-32.6c-.8 0-1.5-.7-1.5-1.5v-9.8c0-.8.7-1.5 1.5-1.5h4c.8 0 1.5-.7 1.5-1.5v-48c0-.8-.7-1.5-1.5-1.5h-4c-.8 0-1.5-.7-1.5-1.5v-9.8c0-.8.7-1.5 1.5-1.5zm209.8 0h25.2c.8 0 1.5.7 1.5 1.5v6.9c0 1.2 1.3 1.9 2.3 1.2 3.2-2.2 8.9-6 10.4-6.9 2.1-1.3 3.3-2.7 10.5-2.7s12.7 5.7 12.7 12.7v26.1c0 .8-.7 1.5-1.5 1.5h-19c-.8 0-1.5-.7-1.5-1.5v-22.7c0-1.2-1.3-1.9-2.3-1.2-1.4.9-3.3 2.2-5.1 3.6-2 1.6-4 3.7-5.2 5.2-.9 1.1-1.4 2.5-1.4 3.9v34.6c0 .8.7 1.5 1.5 1.5h4.4c.8 0 1.5.7 1.5 1.5v9.8c0 .8-.7 1.5-1.5 1.5h-32.6c-.8 0-1.5-.7-1.5-1.5v-9.8c0-.8.7-1.5 1.5-1.5h4c.8 0 1.5-.7 1.5-1.5v-48c0-.8-.7-1.5-1.5-1.5h-4c-.8 0-1.5-.7-1.5-1.5v-9.8c0-.8.7-1.5 1.5-1.5zm-380.3 35.8h-17.2c-.8 0-1.5-.7-1.5-1.5v-19.1c0-2.8 2.2-5 5-5h10.1c2.8 0 5 2.2 5 5v19.1c0 .8-.7 1.5-1.5 1.5zm23.7 7v-24.4c0-10.1-8.2-18.3-18.3-18.3h-27.5c-10.1 0-18.3 8.2-18.3 18.3v39.8c0 10.1 8.2 18.3 18.3 18.3h27.5c10.1 0 18.3-8.2 18.3-18.3v-5.7c0-.8-.7-1.5-1.5-1.5h-19.2c-.8 0-1.5.7-1.5 1.5v8.9c0 2.8-2.2 5-5 5h-10.1c-2.8 0-5-2.2-5-5v-15.6c0-.8.7-1.5 1.5-1.5h39.4c.8 0 1.5-.7 1.5-1.5zm486.4-42.7h-27.2c-.8 0-1.5.7-1.5 1.5v9.8c0 .8.7 1.5 1.5 1.5h4.3c.8 0 1.5.7 1.5 1.5v48c0 .8-.7 1.5-1.5 1.5h-4.3c-.8 0-1.5.7-1.5 1.5v9.8c0 .8.7 1.5 1.5 1.5h34.5c.8 0 1.5-.7 1.5-1.5v-9.8c0-.8-.7-1.5-1.5-1.5h-4.3c-.8 0-1.5-.7-1.5-1.5v-60.7c0-.8-.7-1.5-1.5-1.5z"/><path d="m145.7 705.8h-8.5c-.8 0-1.5.7-1.5 1.5v2.8c0 .8-.7 1.5-1.5 1.5h-4.9c-.8 0-1.5-.7-1.5-1.5v-28.3c0-.8.7-1.5 1.5-1.5h613.2c.8 0 1.5-.7 1.5-1.5v-9.8c0-.8-.7-1.5-1.5-1.5h-650.4c-.8 0-1.5.7-1.5 1.5v9.8c0 .8.7 1.5 1.5 1.5h11.5c.8 0 1.5.7 1.5 1.5v73.5c0 .8-.7 1.5-1.5 1.5h-11.5c-.8 0-1.5.7-1.5 1.5v9.8c0 .8.7 1.5 1.5 1.5h48.7c.8 0 1.5-.7 1.5-1.5v-9.8c0-.8-.7-1.5-1.5-1.5h-11.5c-.8 0-1.5-.7-1.5-1.5v-28.3c0-.8.7-1.5 1.5-1.5h4.9c.8 0 1.5.7 1.5 1.5v2.8c0 .8.7 1.5 1.5 1.5h8.5c.8 0 1.5-.7 1.5-1.5v-22.5c0-.8-.7-1.5-1.5-1.5z"/><path d="m566.6 755.3v-44.2c0-10.1-7.9-18.3-17.7-18.3h-25.5c-9.8 0-17.7 8.2-17.7 18.3v5.7c0 .8.6 1.5 1.4 1.5h18.5c.8 0 1.4-.7 1.4-1.5v-8.9c0-2.8 2.2-5 4.8-5h8.7c2.7 0 4.8 2.2 4.8 5v15.6c0 .8-.6 1.5-1.4 1.5h-24.6c-8.2 0-14.8 6.9-14.8 15.4v10.5c0 10.1 7.9 18.3 17.7 18.3l47.4.2c.8 0 1.4-.7 1.4-1.5v-9.8c0-.8-.6-1.5-1.4-1.5h-1.8c-.8 0-1.4-.7-1.4-1.5zm-22.5 3.8h-13.1c-2.7 0-4.9-2.2-4.9-4.9v-15.8c0-2.7 2.2-4.9 4.9-4.9h13.1c.8 0 1.5.7 1.5 1.5v22.6c0 .8-.7 1.5-1.5 1.5zm-163-283.4c-1.1-3.6-2.7-7.7-7.9-7.7s-5.4 2.3-5.4 5.5 2.1 5 7 7.4c6 3 9.9 5.9 9.9 11.5s-5.5 11.5-13.6 11.5-6.8-1-9.5-1.8c-.3-1.3-1.3-7.1-1.7-9.8l2.2-.5c1.1 3.5 4.3 9.7 9.8 9.7s5.5-2.1 5.5-5.7-2-5.2-6.8-7.7c-5.9-3.1-9.7-6-9.7-11.8s4.6-10.6 13.1-10.6 6.8.8 8 1c.2 2.1.6 5 1.1 8.6l-2.1.5zm104.1.1c-.6-2.1-1.5-4.2-2.5-5.3-1.2-1.2-1.9-1.5-4.6-1.5h-4.2c-1.9 0-2.1.1-2.1 2v12.3h6c3.3 0 3.8-.8 4.6-4.8h2.1v12.5h-2.1c-.6-3.8-1.5-4.8-4.6-4.8h-6v8.8c0 5.2.3 5.6 5.4 5.9v2.1h-18v-2.1c4.3-.4 4.8-.7 4.8-5.9v-20.7c0-5-.5-5.5-4.8-5.8v-2.1h19.1c4.8 0 7.7 0 8.6-.1 0 1 .3 5.8.6 9.1l-2.2.3z"/><path d="m536.3 285.9c-3.6 0-12.8.6-18.5 4.1-7.1 4.4-16 12.2-14.1 31.9 2 19.7 15.4 29.9 6.5 47.4-8.5 16.8-24.2 13.6-25.4 13.3h-.1c-.9-1.9-4.1-17.2-20.7-31.2-20-16.9-26.3-21.8-30-33.2-1.1-3.3-1.7-6.4-2-9.1-.3-2.3.3-5 2.2-4.3s2.5 1.7 4.9 2c2.5.3 3.5-.2 4.5-.5.2 0 .2-.3 0-.3-1.2-.4-3-1.4-4.4-3.3s-.6-5.2-.3-6.5c0-.2.3-.2.3 0 .3.6.9 1.6 2.1 2.6 1.8 1.4 4.5.9 6.8 1.4 2.4.6 3.8 1.8 4.4 2.4.1.1.3 0 .3-.1 0-.9-.4-2.8-1.6-4-1.7-1.7-2.6-1.3-5.5-3.5-2-1.5-2.8-3.8-3.1-5 0-.2.2-.3.3-.1.8 1 2.5 3 4.9 3.6 3.3.8 6-.2 10 0 3.1.2 5.4 1.9 6.3 2.7.1.1.4 0 .3-.2-.3-1-1.2-3.1-3.5-4.9-3.1-2.4-5.2-1.6-10-3.9-3.3-1.5-4.3-4.2-4.6-5.7 0-.2.2-.3.3-.1.6.8 1.9 2 4.8 2.7 4.9 1.2 6.8-1.2 12.2-.4 4 .7 6.5 3.1 7.5 4.3.1.1.4 0 .3-.2-.5-1.5-1.7-4.5-4.2-6.6-3.5-2.8-6.5-2.5-12-5-4.2-2-5.3-4.9-5.5-6.2 0-.2.2-.3.3-.2.8.8 2.9 2.6 5.7 2.9 3.7.4 10.2-1.4 14.5.9 3.3 1.7 5.7 4.6 6.7 5.9.1.2.4 0 .3-.1-.4-1.7-1.7-5.8-4.9-9.3-4.1-4.6-7.3-3.5-13.2-5.6-4.2-1.5-6.2-4.1-6.9-5.5-.1-.2.1-.4.3-.2 1 .9 3.3 2.4 6.8 2.7 5.2.4 7.6-2 12-1 3.5.8 6.8 3.9 8.1 5.2.1.1.4 0 .3-.2-.6-1.8-2.4-6.1-5.9-8.3-4.5-2.7-7.4-1.2-12.9-3.2-4.2-1.6-6.3-4.1-7.1-5.2-.1-.1 0-.3.2-.3 1.3.6 4.5 1.9 7 1.9 3.1-.1 5.9-1.8 10.6-1.8s7.4 2.4 8.7 3.3c.1.1.4 0 .3-.2-.6-1.2-2-3.7-4.8-5.9-3.8-3-6.2-2.5-12.9-4.1-4.6-1.1-7.2-3-8.4-4.1-.1-.1 0-.4.2-.3 1.1.5 3 1 5.8.9 4.7-.2 5.6-2.7 11.1-2.8 3.9 0 7 1.6 8.4 2.6.2.1.4-.1.2-.3-1-1.3-3-3.5-5.9-5.3-4.2-2.6-9.5-2.2-14.5-2.6-3.8-.3-6.1-2.6-7-3.7-.1-.1 0-.4.2-.3 1 .4 3.1 1.2 5.8.9 4-.3 5-2.7 9.8-3 3.6-.2 6.6 1.5 7.8 2.3.1.1.4 0 .3-.2-.6-1.1-2.2-3.4-5.4-4.9-4.4-2.1-8.4 0-13.3-1.4-3.8-1.1-6-3.4-6.8-4.4-.1-.1 0-.3.2-.3.9.3 2.7.7 4.6.7 2.7 0 6.7-1.9 9.8-1.9 2.4 0 5 1.6 6.1 2.4.1.1.4 0 .3-.2-.6-1.2-2.2-3.9-5.4-5.2-4.3-1.8-9.3-.9-13-1.1-2.3-.1-4.1-.8-5.1-1.3-.2 0-.1-.4 0-.3 1.3 0 3.6 0 6.7-1.3s5.2-1.5 6.2-1.5.2-.2 0-.3c-.8-.5-2.4-1.3-4.3-1.7-2.8-.5-6.2 0-8.8-1.5-5.1-2.8-9.1-7.5-17-8.8h-.1c-1.6-5.6-5.2-7.6-10.2-12.3h-.3c-1.5 2.8-1.9 5-1.8 6.8 0 .2-.2.3-.3.1-1.4-1.6-3.2-3-5.4-5h-.3c-1.7 3.1-1.5 5.3-1 7.1 0 .1 0 .3-.2.2-.9-.3-1.9-.6-2.9-.9-3.8-.9-6.8-.4-8.4 0-.2 0-.2.4 0 .4.8 0 1.7 0 2.7.4 1.8.6 2.7 1.5 3.1 2 .1.1 0 .3-.2.3-.8-.3-2.4-.8-4.9-.8-2.9 0-5.8 1.2-7.3 2-.2 0-.1.4.1.3 1.3-.2 3.6-.3 6.6 0 3.4.4 6.6 2.7 8 3.8.1 0 0 .3 0 .3-3.4.8-7.1 2.4-8.1 4.4-.6 1.2-14.4 6.1-29.7 8.6-1.8.3-3.2.7-4 3s-1.8 4.6-1.5 7.3 3 4.2 3.7 5.1c.7 1 2.3 2.7 5.6 3.7s4.8-.7 6.3-1.3c1.1-.5 10.5-.4 15.7 1.7 6.2 2.6 11.6 3.2 16.8 1.9.2 0 .4.1.4.4-.8 3.2-3.4 12.5-6.4 18.3-3.6 7.1-9 10.4-13.1 15.2-3.9 4.5-6.6 9.5-6.9 10.1-.7.3-6.9 3.1-10.3 4.8-3.6 1.8-8.3 5.4-10.2 11.2-.2.5-.3 1-.4 1.3 0 .2-.4.2-.4 0 0-1.2 0-2.8.1-3.7.2-1.5.6-2.5.7-2.9v-.2l-19.6-14.2c-.2-.3-3.3-3.9-8.9-3.9s-9 7-9.1 7.3-18.6 31.2-18.6 31.2-2.9 4.3-3.8 6.2-1 5.7-1.1 6c-.2.5-3.8 9.4-4.3 13.7-.5 4.5 4.1 3.9 9.5 1.1s7.1-7.5 7.5-8.7-4.1-4.3-3-5.9c.9-1.4 2.1-2.1 2.4-2.3v-.1c.1-1 1.4-10.2 3.9-13.3 2.7-3.2 15.2-17 16.2-17s2.9 4.3 7.9 10.4c3.8 4.6 7.2 7.4 8.6 8.4.2.1 0 .4-.1.3l-22.2-4.6c-.2 0-4.2-1.2-7.8 3-3.8 4.3-2.7 12.7-2.7 12.7s2.9 23 3 25 .4 7 .5 8c.2 1.1 4.5 6.4 5.4 8.6.9 2.1 6.4 17.7 12 17.8s4.8-17.1 4.3-19.1-6.8-1.8-8-3.8-1.1-5.7-1.6-7.7-3.8-9.6-4.3-14.5c-.5-4.3-.2-12.3-.2-14.1 0-.1.2-.2.3-.1 1.9 1.5 13 10.3 24.9 16.4 9.8 5.1 16.8 6.5 19.6 6.9.2 0 .2.3 0 .4l-6.3 1c-.1 0-.2.2-.1.3 1.1 1.9 8.9 14.6 21.8 26.1 11.7 10.4 25 18 29 20.2.2.1 0 .4-.1.3-1.8-.5-5.3-1.4-8.9-3-4.6-2-8.4-4.5-9.4-5.2-.1 0-.3 0-.3.1-.2 1.9-.9 12.2 3.2 25.6 4.5 14.8 15 26.1 11.4 27.9-5.6 2.9-30.1 2-31.5 1.6-2-.5-5.4-.5-6.6 0-2.2.9-12.5.3-16.3.8s-12.2 6.4-12.6 10c-.5 3.6 15.3 4 17.9 3.4 2.5-.6 1.9-6 4.6-5.6 2.7.5 8.2 1.5 10.2 1s6.4-2.5 16.5-.6c10 2 24.6 6.8 27.9 4.8 5.9-3.6-5.5-24.7-3.5-36.1 2.1-12.2 8.1-17.5 10.5-25.2 1.3-4.1.9-10.4.7-12.8 0-.2.3-.3.4 0 .9 2.1 2.6 7.8.1 16.3-3.1 10.9-10.1 15.5-8 30.2s12.5 31.6 11.9 34.4c-1.2 5.4-23.9 24.6-26.8 26.1-1.8.9-5.5 5.2-7.6 7.5s-11.1 9.7-8.7 11.4c2.4 1.6 9.2 2.2 15.3 1.4 5.1-.7 9.1-3.3 9-4.6-.1-1.4-1.8-5.5-.6-6.1s5-3.1 6.1-4.6c1.2-1.5 9.9-13.6 16-17.5s10.3-4.2 11.4-6.1c1-2 1.4-7-2.5-16.8-3.9-9.7 6.3-16.9 15.3-23.1 14.1-9.7 17.1-27.3 18-29.7 0 0 .1-.1.2 0 .4 0 1.5.4 2.8 2 1.6 2 .8 4.1-1.3 12-1.6 6.1.2 9.5 1.1 10.7.1.1.4 0 .3-.1-.2-1.5-.6-5.4.6-8.4 1.4-3.8 4.4-6.5 6-5.5s.4 3.5-1.7 8-4.5 8.5-4.8 16.5c-.2 6.2 3.4 9.2 5 10.2.2.1.4 0 .2-.2-.4-.8-1-2.3-.9-5 0-6.7 13.2-23.4 12.2-30.7-.7-5.5-2.9-8.3-3.9-9.4-.1-.1 0-.4.2-.3 1.6.5 5.5 2.2 6.6 6 1.4 4.8-1.8 10.8-1.2 15.3.5 3.6 4 6 5.2 6.7.1 0 .3 0 .2-.2-.5-1.2-1.7-4.4-1.1-7.5.8-3.9 3.3-7.5 4.4-14.5 1-6-2.9-9.1-3.9-9.8-.1 0-.1-.2 0-.3 1.9-1.1 14.5-9.2 18.5-28.4 4.3-20.9-1.3-27.3-1.1-33.6.2-5.3 3.6-7.4 4.7-8 .1 0 .1-.3 0-.3-.7-.3-2.5-.6-4.8.9-1.8 1.2-2.4 2.3-2.6 3 0 .2-.3.2-.3 0-.7-1.9-2.6-8.1-1-14.7 1.6-6.5 6.5-8.9 8.1-9.6.2 0 .2-.3 0-.3-1.4-.3-5.2-.8-9.7 2.8-4.2 3.3-5.7 10.5-6.2 13.7 0 .2-.3.2-.4 0-.3-3.7-.5-13.4 4.7-19.4 5-5.7 12.3-8.2 15.3-9.1.2 0 .2-.4 0-.4z"/></svg>